<svg width="658" height="804" viewBox="0 0 658 804" fill="none" xmlns="http://www.w3.org/2000/svg"><g clip-path="url(#clip0_58_325)"><mask id="mask0_58_325" style="mask-type:alpha" maskUnits="userSpaceOnUse" x="-1" y="-241" width="1103" height="1052"><path d="M297.181 -195.456C323.692 -228.593 365.764 -245.219 407.766 -239.159L624.022 -207.959L840.027 -175.051C881.978 -168.66 917.415 -140.538 933.164 -101.134L1014.27 101.75L1093.78 305.268C1109.21 344.795 1102.58 389.544 1076.33 422.889L941.183 594.571L804.679 765.183C778.174 798.321 736.1 814.945 694.097 808.884L477.842 777.683L261.839 744.776C219.886 738.385 184.451 710.264 168.698 670.859L87.5905 467.976L8.08797 264.458C-7.35326 224.93 -0.716621 180.182 25.5324 146.837L160.68 -24.8461L297.181 -195.456Z" fill="#140E32"/></mask><g mask="url(#mask0_58_325)"><path d="M657.938 -0.300049H-3.2439V803.84H657.938V-0.300049Z" fill="#140E32"/><mask id="mask1_58_325" style="mask-type:alpha" maskUnits="userSpaceOnUse" x="-4" y="-1" width="662" height="805"><path d="M657.938 -0.300049H-3.2439V803.84H657.938V-0.300049Z" fill="#345AFA"/></mask><g mask="url(#mask1_58_325)"><g opacity=".56"><mask id="mask2_58_325" style="mask-type:alpha" maskUnits="userSpaceOnUse" x="-1" y="-27" width="684" height="838"><path fill="#140E32" d="M-0.12 -26.001H682.36V810.267H-0.12z"/></mask><g mask="url(#mask2_58_325)" stroke="#9CF9FF" stroke-width=".742"><path opacity=".25" d="M132.244 675.99C8.29605 691.598 -22.436 789.354 -22.3084 836.281C-4.25177 871.782 47.9544 867.906 71.8004 861.53C141.426 827.865 221.259 773.542 278.381 657.245C217.937 819.449 152.902 836.281 116.177 868.033C136.07 891.879 190.24 918.76 267.669 861.53C345.099 804.299 314.213 652.016 289.092 583.029C288.455 607.512 256.192 660.382 132.244 675.99Z"/><path opacity=".25" d="M128.05 26.7146C150.233 -63.0612 90.8762 -110.291 58.4248 -122.683C29.0978 -119.651 17.8909 -82.5559 15.9533 -64.3872C20.6917 -7.33583 36.9859 62.2616 102.133 132.652C6.15666 47.7572 11.8254 -1.64602 -0.341766 -35.4611C-22.1056 -28.0611 -55.0823 2.21074 -36.1403 70.9208C-17.1983 139.631 96.2144 158.797 150.553 159.791C133.809 152.839 105.867 116.49 128.05 26.7146Z"/><path opacity=".25" d="M322.446 515.222C352.606 554.08 391.89 544.876 407.762 535.416C416.165 522.175 404.376 505.267 397.431 498.468C372.055 481.636 337.632 465.491 286.772 469.477C353.851 457.405 372.603 476.059 390.729 482.129C394.816 470.605 393.053 446.86 358.127 432.113C323.202 417.366 277.81 458.387 259.48 480.74C267.903 476.043 292.287 476.364 322.446 515.222Z"/><path opacity=".25" d="M572.339 26.5257C527.607 6.06594 527.571 -34.2818 533.145 -51.8982C544.11 -63.1105 563.268 -55.5065 571.477 -50.303C593.672 -29.4557 617.271 0.355237 625.038 50.7768C621.428 -17.2841 598.975 -31.2665 588.916 -47.521C599.198 -54.138 622.716 -57.859 645.069 -27.2387C667.422 3.38159 637.886 56.9606 620.323 79.9226C622.967 70.6485 617.071 46.9854 572.339 26.5257Z"/><path opacity=".25" d="M579.814 788.446C623.868 810.328 622.612 850.656 616.477 868.085C605.158 878.94 586.253 870.727 578.216 865.263C556.699 843.716 534.067 813.164 527.918 762.52C529.347 830.662 551.341 845.356 560.875 861.924C550.386 868.208 526.761 871.174 505.4 839.854C484.039 808.534 515.275 755.928 533.564 733.54C530.625 742.725 535.76 766.565 579.814 788.446Z"/><path opacity=".25" d="M619.148 229.801C776.156 189.262 860.054 292.475 882.377 349.149C877.598 400.626 812.76 420.955 780.938 424.685C680.817 417.421 558.486 390.124 433.87 277.183C584.482 443.915 671.003 433.071 730.517 453.786C717.94 492.083 665.464 550.458 544.641 518.502C423.818 486.546 388.137 288.039 385.4 192.779C397.896 222.011 462.141 270.34 619.148 229.801Z"/><path opacity=".25" d="M-33.9645 162.982C-15.7458 167.775 232.124 254.441 272.477 335.516C312.83 416.591 60.2619 326.178 75.9069 409.003C84.737 455.749 236.119 498.864 152.218 571.153C68.3158 643.441 -87.9013 625.469 -173.801 592.32"/><path opacity=".25" d="M-59.7993 143.854C-41.5806 148.647 293.333 272.039 333.686 353.114C374.038 434.189 121.471 343.776 137.116 426.6C145.946 473.347 297.328 516.462 213.426 588.75C129.525 661.039 -73.747 642.191 -159.646 609.043"/><path opacity=".25" d="M-79.8715 146.915C-61.6528 151.707 186.217 238.374 226.57 319.449C266.923 400.524 14.3549 310.111 29.9999 392.935C38.83 439.682 190.212 482.797 106.311 555.085C22.4088 627.374 -133.808 609.401 -219.708 576.253"/><path opacity=".25" d="M-137.255 124.727C-119.036 129.519 128.834 216.186 169.186 297.26C209.539 378.335 -43.0284 287.923 -27.3834 370.747C-18.5533 417.494 132.829 460.609 48.9273 532.897C-34.9745 605.185 -191.192 587.213 -277.091 554.064"/><path opacity=".25" d="M767.314 690.711C706.263 703.084 545.007 551.646 483.832 563.313C386.601 581.858 348.389 840.489 348.389 840.489"/><path opacity=".25" d="M780.523 738.856C719.473 751.229 558.216 599.79 497.042 611.458C399.81 630.003 375.82 846.414 375.82 846.414"/><path opacity=".25" d="M789.704 786.272C728.653 798.644 567.397 647.206 506.222 658.874C408.991 677.419 385.001 893.829 385.001 893.829"/><path opacity=".25" d="M801.656 829.198C740.605 841.57 579.349 690.132 518.174 701.8C420.943 720.345 396.953 936.756 396.953 936.756"/><path opacity=".25" d="M279.912 -68.847C279.912 -68.847 134.954 17.8356 183.508 55.4838C213.26 78.5531 250.764 31.6567 279.912 55.4838C318 86.6178 242.808 139.207 268.818 180.962C310.553 247.959 401.872 72.1411 462.392 122.814C483.233 140.264 481.419 161.75 500.647 180.962C585.171 265.415 698.429 118.223 791.773 86.8534"/><path opacity=".25" d="M301.335 -94.0957C301.335 -94.0957 156.377 -7.41311 204.931 30.2351C234.683 53.3044 272.187 6.40796 301.335 30.2351C339.423 61.3691 264.231 113.959 290.241 155.713C331.976 222.71 423.295 46.8924 483.815 97.565C504.656 115.015 502.842 136.501 522.07 155.713C606.594 240.166 719.852 92.9743 813.196 61.6047"/><path opacity=".25" d="M323.524 -117.814C323.524 -117.814 178.566 -31.1316 227.12 6.51662C256.872 29.586 294.375 -17.3105 323.524 6.51662C361.612 37.6507 286.419 90.2402 312.43 131.995C354.164 198.992 445.484 23.174 506.003 73.8465C526.845 91.2968 525.03 112.782 544.259 131.995C628.782 216.448 742.04 69.2558 835.384 37.8862"/><path opacity=".25" d="M350.303 -150.714C350.303 -150.714 205.344 -64.0314 253.899 -26.3832C283.651 -3.31387 321.154 -50.2103 350.303 -26.3832C388.391 4.75081 313.198 57.3404 339.209 99.0952C380.943 166.092 472.263 -9.72588 532.782 40.9467C553.623 58.3969 551.809 79.8826 571.038 99.0952C655.561 183.548 768.819 36.356 862.163 4.98638"/></g></g><path fill-rule="evenodd" clip-rule="evenodd" d="M363.061 50.0915L360.71 57.5018L319.442 44.4085L321.793 36.9982L310.968 33.5639L308.617 40.9742L280.245 31.9724C276.112 30.6611 271.698 32.9486 270.387 37.0816L245.017 117.045L359.882 153.488C362.373 154.279 365.033 152.9 365.823 150.409L368.796 151.352C367.485 155.485 363.072 157.773 358.939 156.461L244.073 120.018L243.153 122.918C241.842 127.051 244.13 131.464 248.263 132.775L368.601 170.956C372.734 172.267 377.148 169.979 378.459 165.846L405.693 80.0103C407.004 75.8774 404.717 71.4639 400.584 70.1526L395.11 68.4159L368.796 151.352L365.823 150.409L392.137 67.4727L371.534 60.9361L373.885 53.5258L363.061 50.0915ZM358.833 45.7369C358.852 45.657 358.873 45.5775 358.898 45.4986L361.829 36.2626L356.765 34.6561C356.745 35.1375 356.662 35.6243 356.509 36.1057L354.02 43.9508C353.995 44.03 353.967 44.1075 353.936 44.1833L358.833 45.7369ZM311.911 30.591L312.467 28.8384C313.779 24.7054 318.192 22.4179 322.325 23.7292L353.51 33.6234C353.681 34.1028 353.702 34.6398 353.536 35.1623L351.99 40.0346L351.047 43.0076L348.074 42.0643L312.752 30.8576L311.911 30.591ZM364.802 37.2059L362.814 43.4689L361.871 46.4419L364.844 47.3852L374.829 50.5529L375.385 48.8003C376.696 44.6673 374.408 40.2538 370.275 38.9426L364.802 37.2059Z" fill="#fff"/><path d="M394.859 65.459C396.17 61.326 393.1 58.0243 388.967 56.713L359.918 47.4965L364.116 33.7164C365.427 29.5834 363.14 25.17 359.007 23.8587L312.663 9.23496C308.53 7.92368 304.116 10.2111 302.805 14.3441L298.954 26.4799L270.582 17.4781C266.449 16.1669 262.035 18.4543 260.724 22.5873L233.183 107.024C231.871 111.157 234.159 115.571 238.292 116.882L243.442 118.516M355.245 32.8034C355.649 31.5317 354.945 30.1738 353.673 29.7703L314.001 17.0625C312.73 16.659 311.372 17.3629 310.968 18.6345L308.479 26.4799L307.367 30.7491L310.334 31.7279" stroke="#fff" stroke-width="3.119" stroke-linejoin="round"/><circle cx="314.867" cy="86.631" r="26.121" transform="rotate(17.603 314.867 86.631)" stroke="#5496B4" stroke-width="3.119" stroke-linejoin="round"/><rect x="313.898" y="66.219" width="14.195" height="38.327" rx="7.098" transform="rotate(17.603 313.898 66.219)" fill="#5496B4"/><rect x="294.455" y="87.601" width="14.195" height="38.327" rx="7.098" transform="rotate(-72.397 294.455 87.601)" fill="#5496B4"/><path d="M515.959 123.848L517.035 122.827C516.761 122.538 516.383 122.372 515.985 122.365C515.587 122.358 515.203 122.511 514.919 122.79L515.959 123.848ZM485.011 154.263V155.747C485.4 155.747 485.773 155.594 486.051 155.321L485.011 154.263ZM456.844 152.78C456.025 152.78 455.361 153.444 455.361 154.263C455.361 155.083 456.025 155.747 456.844 155.747V152.78ZM524.387 134.884L525.409 135.96L527.561 133.918L526.54 132.842L524.387 134.884ZM514.919 122.79L483.971 153.205L486.051 155.321L516.999 124.907L514.919 122.79ZM485.011 152.78H456.844V155.747H485.011V152.78ZM514.883 124.87L524.387 134.884L526.54 132.842L517.035 122.827L514.883 124.87Z" fill="#9CF9FF"/><path fill-rule="evenodd" clip-rule="evenodd" d="M536.22 90.4661C532.123 90.4661 528.802 93.7874 528.802 97.8844V134.39L546.907 152.183L552.126 147.054C552.703 146.486 553.629 146.486 554.206 147.054L559.425 152.183L567.079 144.662C567.656 144.094 568.581 144.094 569.159 144.662L576.812 152.183L595.245 134.068C595.822 133.5 596.747 133.5 597.325 134.068L616.365 152.78H646.01C646.83 152.78 647.494 153.444 647.494 154.263C647.494 155.083 646.83 155.747 646.01 155.747H615.758C615.369 155.747 614.995 155.594 614.718 155.321L596.285 137.206L577.852 155.321C577.275 155.889 576.349 155.889 575.772 155.321L568.119 147.8L560.465 155.321C559.888 155.889 558.963 155.889 558.385 155.321L553.166 150.192L547.947 155.321C547.37 155.889 546.444 155.889 545.867 155.321L528.802 138.55V159.456C528.802 163.553 532.123 166.874 536.22 166.874H677.167C681.264 166.874 684.585 163.553 684.585 159.456V97.8844C684.585 93.7874 681.264 90.4661 677.167 90.4661H536.22Z" fill="#5496B4"/><ellipse cx="594.824" cy="116.059" rx="4.451" ry="4.08" fill="#140E32"/><ellipse cx="594.824" cy="98.997" rx="4.451" ry="4.08" fill="#140E32"/><ellipse cx="594.824" cy="82.677" rx="4.451" ry="4.08" fill="#fff"/><ellipse cx="594.824" cy="65.615" rx="4.451" ry="4.08" fill="#fff"/><circle cx="610.032" cy="116.059" r="4.08" fill="#140E32"/><circle cx="610.032" cy="98.997" r="4.08" fill="#140E32"/><circle cx="610.032" cy="82.677" r="4.08" fill="#fff"/><circle cx="610.032" cy="65.615" r="4.08" fill="#fff"/><circle cx="624.126" cy="116.059" r="4.08" fill="#140E32"/><circle cx="624.126" cy="98.997" r="4.08" fill="#140E32"/><circle cx="624.126" cy="82.677" r="4.08" fill="#fff"/><circle cx="624.126" cy="65.615" r="4.08" fill="#fff"/><ellipse cx="639.334" cy="116.059" rx="4.451" ry="4.08" fill="#140E32"/><ellipse cx="639.334" cy="98.997" rx="4.451" ry="4.08" fill="#140E32"/><ellipse cx="639.334" cy="82.677" rx="4.451" ry="4.08" fill="#fff"/><ellipse cx="639.334" cy="65.615" rx="4.451" ry="4.08" fill="#fff"/><path d="M93.9626 230.379C95.7621 221.985 95.7372 213.063 93.5538 204.166C85.8398 172.733 54.1044 153.504 22.6709 161.218C-8.76269 168.932 -27.9912 200.667 -20.2772 232.101C-12.5633 263.535 19.1721 282.763 50.6056 275.049C53.0427 274.451 55.4065 273.709 57.69 272.833L59.492 266.587C55.8001 265.068 52.7391 262.59 50.5338 259.548L41.8733 264.331C42.5402 266.16 42.3589 267.877 41.3013 268.534C39.9537 269.371 37.6938 268.17 36.2535 265.852C34.8136 263.533 34.7389 260.976 36.0865 260.138C37.0289 259.553 38.4175 259.964 39.6594 261.057L48.5381 256.154C47.0988 253.061 46.4377 249.613 46.7265 246.113L37.8446 243.551C37.0282 244.841 35.9151 245.573 34.8947 245.334C33.3498 244.973 32.6011 242.526 33.2222 239.869C33.8429 237.211 35.5991 235.349 37.1441 235.71C38.4151 236.007 39.1471 237.717 39.0205 239.793L47.4444 242.224C48.6153 238.184 50.9693 234.8 54.0366 232.323L50.1168 225.224C48.6264 225.56 47.3221 225.29 46.7693 224.4C45.932 223.052 47.133 220.792 49.4516 219.352C51.7698 217.912 54.3277 217.837 55.165 219.185C55.8537 220.294 55.1626 222.02 53.6047 223.399L57.334 230.153C61.2746 228.074 65.9233 227.258 70.6039 228.069L72.5366 221.37C70.7715 220.548 69.6856 219.206 69.9689 217.993C70.33 216.448 72.7773 215.7 75.435 216.32C78.0926 216.942 79.9542 218.698 79.5931 220.242C79.3405 221.323 78.068 222.014 76.4169 222.119L74.4044 229.095C78.446 230.596 81.778 233.228 84.1227 236.504L90.0791 233.215C89.7439 231.725 90.0137 230.421 90.9038 229.868C91.7178 229.362 92.8647 229.6 93.9626 230.379Z" fill="#5496B4"/><path d="M33.9544 204.297C34.013 203.708 34.7388 203.277 35.6804 203.211L36.3661 198.684C34.6154 198.219 33.0918 197.285 31.92 196.047L28.3061 198.71C28.7142 199.493 28.7341 200.277 28.297 200.635C27.7402 201.091 26.6525 200.684 25.8676 199.726C25.0828 198.768 24.8981 197.622 25.455 197.166C25.8444 196.847 26.4934 196.95 27.1167 197.368L30.8216 194.638C29.9914 193.331 29.4903 191.819 29.4134 190.227L25.2661 189.599C24.975 190.228 24.5174 190.622 24.0443 190.576C23.3279 190.504 22.8465 189.448 22.9689 188.215C23.0912 186.983 23.7714 186.042 24.4878 186.113C25.0772 186.171 25.5075 186.897 25.5732 187.839L29.5067 188.435C29.7949 186.548 30.654 184.886 31.8877 183.591L29.7048 180.629C29.0541 180.868 28.4514 180.823 28.1501 180.456C27.6938 179.899 28.1006 178.811 29.0587 178.026C30.0166 177.241 31.163 177.056 31.6193 177.613C31.9947 178.072 31.7857 178.889 31.1663 179.602L33.243 182.42C34.8931 181.252 36.9364 180.61 39.0901 180.698L39.5639 177.57C38.7213 177.305 38.1534 176.765 38.2092 176.203C38.2805 175.486 39.3373 175.005 40.5697 175.127C41.802 175.25 42.7433 175.93 42.6721 176.646C42.6222 177.147 42.0906 177.533 41.354 177.678L40.8606 180.936C42.7676 181.372 44.4221 182.36 45.6706 183.695L48.1561 181.863C47.9173 181.213 47.9616 180.61 48.3294 180.309C48.8862 179.852 49.9739 180.259 50.7587 181.217C51.5435 182.175 51.7283 183.322 51.1714 183.778C50.7132 184.153 49.8957 183.944 49.1832 183.325L46.7602 185.11C47.8727 186.885 48.38 189.033 48.0481 191.243L51.2146 191.722C51.4801 190.88 52.0198 190.312 52.582 190.368C53.2985 190.439 53.7799 191.496 53.6575 192.728C53.535 193.96 52.855 194.902 52.1386 194.831C51.6377 194.781 51.2517 194.249 51.1066 193.512L47.6066 192.982C46.9549 194.774 45.7577 196.276 44.2332 197.333L46.5514 200.479C47.335 200.071 48.1183 200.051 48.4763 200.488C48.9324 201.045 48.5257 202.132 47.5677 202.917C46.6097 203.702 45.4633 203.887 45.0071 203.33C44.6882 202.94 44.7911 202.291 45.2094 201.668L42.6622 198.212C41.2798 198.819 39.7298 199.103 38.1273 198.982L37.4402 203.519C38.0693 203.81 38.4642 204.267 38.4172 204.741C38.346 205.457 37.2892 205.938 36.0568 205.816C34.8244 205.693 33.8831 205.013 33.9544 204.297Z" fill="#fff"/><path d="M322.593 533.584C322.685 532.663 323.819 531.99 325.29 531.887L326.362 524.812C323.626 524.085 321.245 522.626 319.414 520.69L313.766 524.852C314.404 526.077 314.435 527.301 313.752 527.861C312.882 528.573 311.182 527.938 309.955 526.441C308.729 524.944 308.44 523.152 309.311 522.439C309.919 521.941 310.933 522.102 311.907 522.755L317.697 518.488C316.4 516.446 315.617 514.084 315.497 511.596L309.015 510.614C308.561 511.597 307.846 512.214 307.106 512.141C305.987 512.029 305.234 510.378 305.426 508.452C305.617 506.526 306.68 505.055 307.799 505.167C308.72 505.258 309.393 506.392 309.495 507.864L315.642 508.795C316.093 505.847 317.435 503.25 319.363 501.225L315.952 496.597C314.935 496.97 313.993 496.9 313.522 496.326C312.809 495.455 313.445 493.756 314.942 492.529C316.439 491.303 318.231 491.014 318.944 491.884C319.53 492.6 319.204 493.878 318.236 494.991L321.481 499.395C324.06 497.57 327.253 496.567 330.619 496.705L331.359 491.817C330.042 491.402 329.155 490.558 329.242 489.68C329.354 488.56 331.005 487.808 332.931 487.999C334.857 488.19 336.328 489.253 336.216 490.373C336.139 491.155 335.308 491.759 334.157 491.985L333.386 497.076C336.366 497.758 338.951 499.301 340.902 501.388L344.787 498.526C344.413 497.509 344.483 496.567 345.057 496.096C345.928 495.383 347.627 496.019 348.854 497.516C350.08 499.013 350.369 500.805 349.499 501.517C348.783 502.104 347.505 501.778 346.392 500.81L342.605 503.6C344.344 506.373 345.137 509.729 344.618 513.183L349.566 513.933C349.981 512.616 350.825 511.729 351.703 511.816C352.823 511.927 353.575 513.579 353.384 515.505C353.192 517.43 352.13 518.901 351.01 518.79C350.227 518.712 349.624 517.881 349.398 516.73L343.928 515.902C342.909 518.701 341.039 521.049 338.656 522.701L342.279 527.617C343.503 526.979 344.727 526.948 345.287 527.631C346 528.501 345.364 530.201 343.867 531.428C342.37 532.654 340.579 532.943 339.866 532.072C339.367 531.464 339.528 530.45 340.182 529.476L336.201 524.074C334.041 525.023 331.619 525.468 329.114 525.278L328.04 532.367C329.024 532.822 329.641 533.537 329.567 534.277C329.456 535.396 327.804 536.149 325.879 535.957C323.953 535.766 322.482 534.703 322.593 533.584Z" fill="#fff"/><path d="M469.413 68.2869C469.469 67.73 470.154 67.3235 471.044 67.2613L471.692 62.984C470.038 62.5447 468.598 61.6622 467.491 60.4922L464.077 63.0084C464.463 63.7487 464.481 64.4886 464.069 64.8269C463.542 65.2579 462.515 64.8736 461.773 63.9685C461.032 63.0635 460.857 61.9804 461.383 61.5494C461.751 61.248 462.365 61.3453 462.953 61.7404L466.454 59.161C465.669 57.9265 465.196 56.498 465.123 54.994L461.205 54.4006C460.93 54.9948 460.498 55.3678 460.051 55.3234C459.374 55.2561 458.919 54.2578 459.035 53.0935C459.15 51.9292 459.793 51.0399 460.47 51.1073C461.027 51.1626 461.433 51.8482 461.495 52.738L465.211 53.3008C465.484 51.5185 466.295 49.9486 467.461 48.7246L465.399 45.9262C464.784 46.1519 464.214 46.11 463.93 45.7625C463.499 45.2363 463.883 44.2088 464.788 43.4674C465.693 42.7258 466.776 42.5513 467.207 43.0775C467.562 43.5103 467.365 44.2827 466.779 44.9557L468.741 47.6181C470.3 46.5146 472.231 45.9086 474.265 45.992L474.713 43.0366C473.917 42.7858 473.38 42.2758 473.433 41.7447C473.5 41.0679 474.499 40.6131 475.663 40.7287C476.827 40.8444 477.717 41.4869 477.649 42.1636C477.602 42.6369 477.1 43.0016 476.404 43.1386L475.938 46.216C477.74 46.6283 479.303 47.5613 480.482 48.823L482.83 47.0925C482.605 46.4778 482.647 45.9084 482.994 45.6237C483.52 45.1927 484.548 45.577 485.289 46.4821C486.031 47.3871 486.205 48.4702 485.679 48.9012C485.246 49.2558 484.474 49.0585 483.801 48.4733L481.512 50.1603C482.563 51.8369 483.042 53.8657 482.728 55.9539L485.72 56.407C485.971 55.6109 486.481 55.0744 487.012 55.1271C487.689 55.1944 488.144 56.1927 488.028 57.3571C487.912 58.5213 487.27 59.4105 486.593 59.3433C486.12 59.2962 485.755 58.7939 485.618 58.0981L482.311 57.5973C481.696 59.2897 480.565 60.7092 479.124 61.7076L481.314 64.6795C482.055 64.294 482.795 64.2752 483.133 64.6881C483.564 65.2142 483.18 66.2417 482.275 66.9834C481.37 67.7248 480.286 67.8993 479.855 67.3732C479.554 67.0053 479.651 66.3921 480.047 65.8033L477.64 62.5377C476.334 63.1117 474.87 63.3802 473.356 63.2654L472.707 67.5514C473.301 67.8265 473.674 68.2588 473.63 68.7058C473.562 69.3826 472.564 69.8375 471.4 69.7218C470.235 69.6061 469.346 68.9637 469.413 68.2869Z" fill="#fff"/><path d="M57.3214 276.28C55.2501 276.154 53.5449 276.884 53.2484 278.152C52.8881 279.694 54.7454 281.445 57.3966 282.065C60.0478 282.684 62.4892 281.937 62.8495 280.396C63.0873 279.378 62.3575 278.268 61.0696 277.453L63.8657 267.761C67.3241 268.484 70.784 268.308 73.9712 267.38L78.5343 275.643C77.444 276.882 77.0339 278.267 77.6177 279.207C78.4528 280.552 81.0045 280.477 83.3173 279.041C85.6302 277.604 86.8281 275.35 85.9932 274.005C85.3378 272.95 83.6248 272.769 81.7999 273.435L77.647 265.914C81.2726 264.047 84.3123 261.114 86.2455 257.396L93.723 259.553C93.8283 261.2 94.5176 262.47 95.5953 262.722C97.1364 263.082 98.888 261.225 99.5077 258.574C100.127 255.922 99.3803 253.481 97.839 253.121C96.6295 252.838 95.2906 253.922 94.4706 255.682L87.7057 253.731C89.0617 249.008 88.5704 244.182 86.6534 239.995L92.446 236.796C93.8217 238.35 95.544 239.039 96.6501 238.352C97.9947 237.517 97.92 234.966 96.4833 232.653" stroke="#fff" stroke-width="2.225"/><path d="M578.564 533.548C579.814 533.287 581.071 533.641 581.991 534.431L612.751 521.077C615.794 519.756 619.332 521.152 620.654 524.195L674.54 648.323C675.862 651.367 674.465 654.905 671.422 656.226L664.438 659.258L612.28 539.114C610.959 536.07 607.421 534.674 604.377 535.995L574.91 548.788C573.665 547.499 571.815 546.886 569.977 547.269L559.698 549.413C558.596 546.415 556.583 542.639 553.642 539.903C553.599 539.863 553.556 539.823 553.513 539.784C554.151 539.771 554.796 539.636 555.417 539.366C557.974 538.256 559.146 535.285 558.037 532.728C556.927 530.172 553.955 529 551.399 530.109C548.843 531.219 547.67 534.191 548.78 536.747C548.804 536.802 548.828 536.857 548.854 536.91C548.441 536.764 548.015 536.639 547.579 536.539C545.807 536.134 543.896 536.147 541.867 536.687C541.19 531.654 542.41 526.31 548.586 523.63C558.953 519.129 565.267 529.956 567.128 535.932L578.564 533.548Z" fill="#fff"/><path d="M535.254 553.559C535.838 556.013 536.817 558.291 537.758 559.945C538.092 560.532 537.935 561.277 537.391 561.679L529.125 567.786C528.675 568.119 528.356 568.571 528.185 569.072C528.029 569.592 528.005 570.132 528.21 570.635C528.356 570.995 528.548 571.472 528.743 572.103L530.611 576.406C530.812 576.869 530.734 577.407 530.409 577.795C529.084 579.376 527.67 582.013 527.61 584.752C527.557 587.232 528.603 590.004 532.403 592.324L585.469 569.287C586.113 567.768 586.445 565.585 585.607 563.508C584.716 561.302 582.361 558.877 576.749 557.54C576.341 557.443 576.002 557.159 575.834 556.773L575.728 556.528L575.724 556.52L575.656 556.364L575.653 556.355L573.834 552.166L573.529 551.66C573.15 551.017 572.794 550.707 572.438 550.397C572.202 550.192 571.937 550.017 571.635 549.937C571.276 549.842 570.895 549.805 570.522 549.883L559.087 552.267C558.414 552.408 557.744 552.014 557.54 551.357C556.652 548.507 554.706 544.539 551.823 541.857C550.396 540.529 548.779 539.553 546.983 539.142C545.616 538.829 544.089 538.831 542.388 539.313C542.654 540.339 542.981 541.328 543.341 542.251C546.903 541.415 550.663 543.218 552.172 546.693C553.869 550.602 552.075 555.146 548.167 556.843C544.258 558.54 539.714 556.747 538.017 552.838C537.764 552.257 537.589 551.662 537.487 551.064L536.646 551.685C535.988 552.171 535.515 552.829 535.254 553.559Z" fill="#fff"/><path d="M533.061 555.672L503.434 568.534C500.39 569.855 498.994 573.394 500.315 576.437L502.045 580.42L525.383 570.288C525.266 568.513 526.043 566.745 527.539 565.639L534.876 560.217C534.217 558.915 533.57 557.36 533.061 555.672Z" fill="#fff"/><path d="M661.988 660.321L562.105 703.683C559.062 705.004 555.523 703.608 554.202 700.565L503.108 582.869L526.162 572.861L527.845 576.739C526.424 578.658 525.01 581.544 524.941 584.694C524.861 588.371 526.623 592.164 531.662 594.983C532.026 595.187 532.464 595.209 532.846 595.043L586.998 571.534C587.285 571.41 587.518 571.189 587.659 570.91C588.667 568.908 589.365 565.683 588.083 562.508C586.819 559.379 583.766 556.618 578.021 555.107L578.019 555.101L577.836 554.681L577.576 554.08L577.407 553.692L576.283 551.102L605.441 538.444C607.131 537.71 609.097 538.486 609.831 540.177L661.988 660.321Z" fill="#fff"/><path d="M540.086 549.143C539.978 550.009 540.093 550.916 540.466 551.775C541.575 554.331 544.547 555.504 547.103 554.394C549.66 553.284 550.832 550.313 549.723 547.756C548.809 545.653 546.635 544.486 544.469 544.758C544.616 545.045 544.765 545.318 544.912 545.577L540.086 549.143Z" fill="#fff"/><rect x="503.781" y="592.91" width="109.997" height="121.097" rx="4.451" transform="rotate(-23.467 503.781 592.91)" fill="#5496B4"/><rect x="541.773" y="659.581" width="34.091" height="35.715" rx="4.451" transform="rotate(-23.467 541.773 659.581)" fill="#140E32"/><rect x="576.548" y="644.297" width="59.816" height="5.382" rx="2.691" transform="rotate(-23.467 576.548 644.297)" fill="#fff"/><rect x="536.1" y="646.074" width="97.451" height="5.22" rx="2.61" transform="rotate(-23.467 536.1 646.074)" fill="#140E32"/><rect x="532.152" y="636.973" width="97.451" height="5.22" rx="2.61" transform="rotate(-23.467 532.152 636.973)" fill="#140E32"/><rect width="42.696" height="5.22" rx="2.61" transform="rotate(-23.467 1748.238 -1089.456)" fill="#140E32"/><rect x="528.204" y="627.872" width="52.796" height="5.22" rx="2.61" transform="rotate(-23.467 528.204 627.872)" fill="#140E32"/><rect x="524.256" y="618.771" width="97.451" height="5.22" rx="2.61" transform="rotate(-23.467 524.256 618.771)" fill="#140E32"/><rect width="55.927" height="5.22" rx="2.61" transform="rotate(-23.467 1707.085 -1047.696)" fill="#140E32"/><rect x="520.309" y="609.67" width="38.877" height="5.22" rx="2.61" transform="rotate(-23.467 520.309 609.67)" fill="#140E32"/><rect x="516.361" y="600.568" width="97.451" height="5.22" rx="2.61" transform="rotate(-23.467 516.361 600.568)" fill="#140E32"/><rect x="580.613" y="653.669" width="59.816" height="5.382" rx="2.691" transform="rotate(-23.467 580.613 653.669)" fill="#fff"/><rect x="623.559" y="646.163" width="17.464" height="5.382" rx="2.691" transform="rotate(-23.467 623.559 646.163)" fill="#fff"/><rect x="584.679" y="663.042" width="39.378" height="5.382" rx="2.691" transform="rotate(-23.467 584.679 663.042)" fill="#fff"/><rect x="588.743" y="672.41" width="44.08" height="5.382" rx="2.691" transform="rotate(-23.467 588.743 672.41)" fill="#fff"/><path d="M538.419 535.279C535.587 536.508 533.64 538.286 532.413 540.395C531.195 542.49 530.735 544.828 530.73 547.122C530.727 548.449 530.876 549.779 531.128 551.068L533.648 550C533.488 549.048 533.398 548.082 533.4 547.128C533.404 545.178 533.795 543.33 534.721 541.738C535.639 540.16 537.129 538.75 539.482 537.728L538.419 535.279Z" fill="#fff"/><path d="M501.268 580.732L495.095 583.437C492.052 584.758 490.656 588.297 491.977 591.34L545.896 715.544C547.218 718.587 550.756 719.984 553.799 718.662L663.082 671.22C666.125 669.899 667.521 666.361 666.2 663.318L665.002 660.43L662.419 661.611L663.751 664.381C664.485 666.072 663.709 668.037 662.019 668.771L552.736 716.213C551.045 716.947 549.08 716.172 548.346 714.481L494.426 590.277C493.692 588.586 494.467 586.62 496.158 585.886L502.046 583.305L501.268 580.732Z" fill="#fff"/><path d="M536.142 548.205C534.445 544.296 537.787 540.341 540.93 539.808L541.599 542.251C539.115 542.591 537.209 544.06 538.258 547.165L536.142 548.205Z" fill="#fff"/><path fill-rule="evenodd" clip-rule="evenodd" d="M350.059 707.448C371.825 710.59 392.063 695.168 395.261 673.002C398.46 650.837 383.409 630.323 361.643 627.181C339.877 624.04 319.639 639.462 316.441 661.627C316.321 662.457 316.227 663.284 316.158 664.108C322.692 666.514 332.618 668.946 349.402 667.875L349.686 672.317C333.257 673.365 322.983 671.169 316.03 668.785C316.597 688.052 330.662 704.649 350.059 707.448Z" fill="#fff"/><path d="M312.56 665.497C302.902 663.365 289.157 667.573 284.408 685.473C277.787 710.431 315.409 750.452 366.602 728.945C452.45 692.879 423.929 769.247 412.997 779.358" stroke="#fff" stroke-width="2.967"/><path d="M403.764 592.597C396.749 587.868 379.29 587.979 365.571 626.26C357.091 651.804 352.903 669.842 352.903 669.842C352.903 669.842 372.412 688.909 392.074 668.752C411.735 648.594 436.474 621.125 421.949 606.932" stroke="#5496B4" stroke-width="4.451"/><rect x="398.677" y="584.544" width="13.151" height="8.767" rx="4.384" transform="rotate(29.38 398.677 584.544)" fill="#fff"/><rect x="422.736" y="599.089" width="13.151" height="8.767" rx="4.384" transform="rotate(55.157 422.736 599.089)" fill="#fff"/><path d="M353.796 664.47C355.049 663.932 356.487 664.638 356.828 665.958L357.906 670.131C358.247 671.452 357.331 672.766 355.974 672.902L350.893 673.413C349.8 673.522 348.79 672.818 348.516 671.755L347.826 669.085C347.551 668.022 348.094 666.917 349.103 666.484L353.796 664.47Z" fill="#D9D9D9"/><circle cx="135.634" cy="103.819" r="22.997" fill="#fff"/><circle cx="582.955" cy="448.026" r="14.095" fill="#5496B4"/><circle cx="476.132" cy="703.215" r="8.16" fill="#fff"/><rect x="142.31" y="223.995" width="385.008" height="72.699" rx="11.869" fill="#fff"/><path d="M160.633 280.479V241.013H189.556L189.499 249.865H169.147L171.627 247.384V280.479H160.633ZM219.468 280.479L208.362 261.704L217.326 256.405L232.041 280.479H219.468ZM194.323 280.479V241.013H205.43V280.479H194.323ZM202.216 265.369V256.348H216.537V265.369H202.216ZM218.397 261.93L208.08 260.802L220.201 241.013H231.928L218.397 261.93ZM235.622 280.479V241.013H272.663V280.479H261.612V247.384L264.093 249.865H244.191L246.616 247.384V280.479H235.622ZM296.886 280.479V249.921H307.542V261.253H318.535V249.921H329.247V280.479H318.535V269.767H307.542V280.479H296.886ZM354.57 280.479V274.784L353.837 273.375V262.888C353.837 261.197 353.311 259.9 352.258 258.998C351.244 258.059 349.609 257.589 347.353 257.589C345.888 257.589 344.403 257.833 342.9 258.322C341.396 258.773 340.118 259.412 339.066 260.239L335.457 252.966C337.186 251.838 339.254 250.974 341.659 250.372C344.102 249.733 346.527 249.414 348.932 249.414C353.893 249.414 357.727 250.56 360.433 252.853C363.177 255.108 364.549 258.66 364.549 263.508V280.479H354.57ZM345.549 280.986C343.106 280.986 341.039 280.572 339.348 279.746C337.656 278.919 336.36 277.791 335.457 276.363C334.593 274.935 334.161 273.337 334.161 271.571C334.161 269.691 334.631 268.075 335.57 266.722C336.547 265.331 338.032 264.279 340.024 263.565C342.016 262.813 344.591 262.437 347.748 262.437H354.965V268.019H349.214C347.485 268.019 346.263 268.301 345.549 268.864C344.873 269.428 344.534 270.18 344.534 271.12C344.534 272.059 344.892 272.811 345.606 273.375C346.32 273.939 347.297 274.22 348.537 274.22C349.703 274.22 350.755 273.939 351.695 273.375C352.672 272.773 353.386 271.871 353.837 270.669L355.303 274.615C354.739 276.72 353.63 278.317 351.976 279.407C350.36 280.46 348.218 280.986 345.549 280.986ZM388.021 280.479V241.013H425.061V280.479H414.011V247.384L416.492 249.865H396.59L399.014 247.384V280.479H388.021ZM430.51 240.957H443.308L450.355 251.669L457.346 240.957H470.313L457.346 259.844L471.441 280.479H458.305L450.355 268.808L442.462 280.479H429.608L443.646 260.351L430.51 240.957ZM474.846 280.479V241.013H494.015C498.751 241.013 502.415 241.915 505.009 243.72C507.64 245.486 508.955 248.004 508.955 251.274C508.955 254.469 507.734 256.987 505.291 258.829C502.848 260.633 499.578 261.535 495.481 261.535L496.608 258.885C501.044 258.885 504.501 259.769 506.982 261.535C509.5 263.264 510.759 265.82 510.759 269.203C510.759 272.661 509.406 275.404 506.7 277.434C504.032 279.464 500.16 280.479 495.086 280.479H474.846ZM485.84 272.473H494.635C496.251 272.473 497.454 272.134 498.243 271.458C499.07 270.744 499.484 269.71 499.484 268.357C499.484 267.004 499.07 266.008 498.243 265.369C497.454 264.692 496.251 264.354 494.635 264.354H485.84V272.473ZM485.84 256.799H492.944C494.522 256.799 495.706 256.48 496.496 255.841C497.285 255.164 497.68 254.187 497.68 252.909C497.68 251.631 497.285 250.673 496.496 250.034C495.706 249.357 494.522 249.019 492.944 249.019H485.84V256.799Z" fill="#140E32"/><path d="M147.807 324.29L146.172 330.548L145.721 328.434C146.379 328.434 146.924 328.641 147.356 329.054C147.788 329.468 148.005 330.022 148.005 330.717C148.005 331.413 147.788 331.977 147.356 332.409C146.924 332.822 146.388 333.029 145.749 333.029C145.073 333.029 144.518 332.813 144.086 332.381C143.654 331.948 143.438 331.394 143.438 330.717C143.438 330.492 143.447 330.285 143.466 330.097C143.504 329.891 143.569 329.646 143.663 329.364C143.757 329.082 143.889 328.725 144.058 328.293L145.552 324.29H147.807ZM153.783 324.29L152.148 330.548L151.697 328.434C152.355 328.434 152.9 328.641 153.332 329.054C153.765 329.468 153.981 330.022 153.981 330.717C153.981 331.413 153.765 331.977 153.332 332.409C152.9 332.822 152.365 333.029 151.726 333.029C151.049 333.029 150.495 332.813 150.062 332.381C149.63 331.948 149.414 331.394 149.414 330.717C149.414 330.492 149.423 330.285 149.442 330.097C149.48 329.891 149.546 329.646 149.64 329.364C149.734 329.082 149.865 328.725 150.034 328.293L151.528 324.29H153.783ZM161.312 333.677H171.121V336.694H161.312V333.677ZM161.593 342.134H172.728V345.207H157.929V325.474H172.334V328.547H161.593V342.134ZM176.419 345.207V330.154H179.942V336.271H187.525V330.154H191.049V345.207H187.525V339.259H179.942V345.207H176.419ZM202.96 345.489C201.719 345.489 200.611 345.301 199.633 344.925C198.656 344.549 197.811 343.976 197.096 343.205C196.401 342.416 195.865 341.42 195.49 340.217C195.114 339.015 194.926 337.586 194.926 335.932C194.926 334.73 195.029 333.63 195.236 332.634C195.443 331.638 195.753 330.746 196.166 329.956C196.58 329.148 197.096 328.434 197.717 327.814C198.356 327.194 199.098 326.677 199.944 326.264C200.789 325.85 201.748 325.531 202.819 325.305L209.81 323.811L210.317 326.968L203.975 328.265C203.618 328.34 203.185 328.453 202.678 328.603C202.189 328.735 201.682 328.942 201.156 329.223C200.648 329.486 200.169 329.872 199.718 330.379C199.286 330.868 198.929 331.507 198.647 332.296C198.384 333.067 198.252 334.034 198.252 335.2C198.252 335.557 198.262 335.829 198.28 336.017C198.318 336.186 198.346 336.374 198.365 336.581C198.403 336.769 198.421 337.051 198.421 337.427L197.096 336.045C197.472 335.087 197.989 334.269 198.647 333.593C199.323 332.897 200.103 332.371 200.987 332.014C201.889 331.638 202.866 331.45 203.918 331.45C205.328 331.45 206.577 331.742 207.667 332.324C208.757 332.907 209.612 333.724 210.233 334.777C210.853 335.829 211.163 337.022 211.163 338.357C211.163 339.747 210.825 340.978 210.148 342.05C209.472 343.121 208.513 343.966 207.273 344.587C206.051 345.188 204.614 345.489 202.96 345.489ZM203.242 342.642C204.087 342.642 204.83 342.463 205.469 342.106C206.126 341.73 206.634 341.223 206.991 340.584C207.367 339.945 207.555 339.231 207.555 338.441C207.555 337.652 207.367 336.966 206.991 336.384C206.634 335.782 206.126 335.303 205.469 334.946C204.83 334.589 204.069 334.41 203.185 334.41C202.34 334.41 201.579 334.579 200.902 334.918C200.244 335.256 199.727 335.726 199.352 336.327C198.994 336.91 198.816 337.586 198.816 338.357C198.816 339.146 199.004 339.87 199.38 340.527C199.756 341.185 200.272 341.702 200.93 342.078C201.607 342.454 202.377 342.642 203.242 342.642ZM221.593 345.404C219.92 345.404 218.454 345.075 217.195 344.417C215.955 343.741 214.987 342.82 214.292 341.655C213.615 340.49 213.277 339.165 213.277 337.68C213.277 336.177 213.606 334.852 214.264 333.706C214.94 332.54 215.861 331.629 217.026 330.971C218.21 330.313 219.554 329.985 221.057 329.985C222.523 329.985 223.829 330.304 224.976 330.943C226.122 331.582 227.024 332.484 227.682 333.649C228.339 334.814 228.668 336.186 228.668 337.765C228.668 337.915 228.659 338.084 228.64 338.272C228.64 338.46 228.631 338.639 228.612 338.808H216.068V336.468H226.751L225.37 337.201C225.389 336.337 225.21 335.575 224.835 334.918C224.459 334.26 223.942 333.743 223.284 333.367C222.645 332.991 221.903 332.803 221.057 332.803C220.193 332.803 219.432 332.991 218.774 333.367C218.135 333.743 217.627 334.269 217.252 334.946C216.895 335.604 216.716 336.384 216.716 337.286V337.849C216.716 338.751 216.923 339.55 217.336 340.245C217.75 340.941 218.332 341.476 219.084 341.852C219.836 342.228 220.7 342.416 221.677 342.416C222.523 342.416 223.284 342.284 223.961 342.021C224.637 341.758 225.239 341.345 225.765 340.781L227.653 342.952C226.977 343.741 226.122 344.352 225.088 344.784C224.073 345.197 222.908 345.404 221.593 345.404ZM243.319 345.207L237.878 337.99L240.754 336.214L247.463 345.207H243.319ZM232.522 345.207V330.154H236.046V345.207H232.522ZM235.003 339.174V336.243H240.105V339.174H235.003ZM241.092 338.103L237.794 337.708L243.319 330.154H247.096L241.092 338.103ZM260.068 342.219L259.307 343.064V330.154H262.831V343.064L261.985 342.219H269.427L268.609 343.064V330.154H272.133V345.207H249.948V330.154H253.472V343.064L252.654 342.219H260.068ZM276.871 345.207V330.154H280.395V340.076L288.711 330.154H291.924V345.207H288.401V335.284L280.113 345.207H276.871ZM307.461 345.207L302.02 337.99L304.896 336.214L311.605 345.207H307.461ZM296.664 345.207V330.154H300.188V345.207H296.664ZM299.145 339.174V336.243H304.247V339.174H299.145ZM305.234 338.103L301.936 337.708L307.461 330.154H311.238L305.234 338.103ZM322.948 345.207V342.162L322.751 341.514V336.186C322.751 335.153 322.441 334.354 321.82 333.79C321.2 333.207 320.261 332.916 319.001 332.916C318.156 332.916 317.32 333.048 316.493 333.311C315.685 333.574 314.999 333.94 314.435 334.41L313.054 331.845C313.862 331.225 314.82 330.764 315.929 330.464C317.056 330.144 318.222 329.985 319.424 329.985C321.604 329.985 323.286 330.511 324.47 331.563C325.673 332.597 326.274 334.204 326.274 336.384V345.207H322.948ZM318.212 345.404C317.085 345.404 316.098 345.216 315.252 344.84C314.407 344.446 313.749 343.91 313.279 343.234C312.828 342.538 312.602 341.758 312.602 340.894C312.602 340.048 312.8 339.287 313.194 338.61C313.608 337.934 314.275 337.398 315.196 337.004C316.117 336.609 317.338 336.412 318.861 336.412H323.23V338.751H319.114C317.911 338.751 317.103 338.949 316.69 339.343C316.277 339.719 316.07 340.189 316.07 340.753C316.07 341.392 316.323 341.899 316.831 342.275C317.338 342.651 318.043 342.839 318.945 342.839C319.81 342.839 320.58 342.642 321.257 342.247C321.952 341.852 322.45 341.27 322.751 340.499L323.343 342.613C323.004 343.497 322.394 344.183 321.51 344.671C320.646 345.16 319.546 345.404 318.212 345.404ZM335.206 345.46C334.06 345.46 332.923 345.329 331.795 345.066C330.686 344.784 329.681 344.389 328.779 343.882L329.765 341.26C330.498 341.674 331.325 341.993 332.246 342.219C333.167 342.444 334.088 342.557 335.009 342.557C335.798 342.557 336.474 342.482 337.038 342.331C337.602 342.162 338.034 341.918 338.335 341.599C338.654 341.279 338.814 340.913 338.814 340.499C338.814 339.898 338.551 339.447 338.025 339.146C337.518 338.827 336.785 338.667 335.826 338.667H332.923V336.299H335.544C336.146 336.299 336.653 336.233 337.066 336.102C337.499 335.97 337.828 335.773 338.053 335.51C338.279 335.247 338.391 334.936 338.391 334.579C338.391 334.222 338.25 333.912 337.969 333.649C337.705 333.367 337.32 333.161 336.813 333.029C336.305 332.879 335.695 332.803 334.98 332.803C334.229 332.803 333.449 332.897 332.641 333.085C331.851 333.273 331.043 333.546 330.216 333.903L329.314 331.309C330.273 330.877 331.203 330.548 332.105 330.323C333.026 330.078 333.937 329.947 334.84 329.928C336.211 329.872 337.433 330.013 338.504 330.351C339.575 330.689 340.421 331.178 341.041 331.817C341.661 332.456 341.971 333.207 341.971 334.072C341.971 334.786 341.746 335.434 341.295 336.017C340.863 336.581 340.261 337.022 339.491 337.342C338.739 337.661 337.875 337.821 336.897 337.821L337.01 337.06C338.683 337.06 339.998 337.398 340.957 338.075C341.915 338.733 342.394 339.635 342.394 340.781C342.394 341.702 342.084 342.519 341.464 343.234C340.844 343.929 339.989 344.474 338.899 344.869C337.828 345.263 336.597 345.46 335.206 345.46ZM355.157 345.207V342.162L354.959 341.514V336.186C354.959 335.153 354.649 334.354 354.029 333.79C353.409 333.207 352.469 332.916 351.21 332.916C350.364 332.916 349.528 333.048 348.701 333.311C347.893 333.574 347.207 333.94 346.643 334.41L345.262 331.845C346.07 331.225 347.029 330.764 348.137 330.464C349.265 330.144 350.43 329.985 351.633 329.985C353.813 329.985 355.495 330.511 356.679 331.563C357.882 332.597 358.483 334.204 358.483 336.384V345.207H355.157ZM350.421 345.404C349.293 345.404 348.307 345.216 347.461 344.84C346.615 344.446 345.957 343.91 345.488 343.234C345.037 342.538 344.811 341.758 344.811 340.894C344.811 340.048 345.008 339.287 345.403 338.61C345.816 337.934 346.484 337.398 347.404 337.004C348.325 336.609 349.547 336.412 351.069 336.412H355.438V338.751H351.323C350.12 338.751 349.312 338.949 348.899 339.343C348.485 339.719 348.278 340.189 348.278 340.753C348.278 341.392 348.532 341.899 349.039 342.275C349.547 342.651 350.252 342.839 351.154 342.839C352.018 342.839 352.789 342.642 353.465 342.247C354.161 341.852 354.659 341.27 354.959 340.499L355.551 342.613C355.213 343.497 354.602 344.183 353.719 344.671C352.854 345.16 351.755 345.404 350.421 345.404ZM360.616 345.207L367.241 336.581L367.184 338.47L360.87 330.154H364.788L369.214 336.073H367.72L372.174 330.154H375.98L369.609 338.47L369.637 336.581L376.233 345.207H372.259L367.607 338.921L369.073 339.118L364.506 345.207H360.616ZM385.109 345.404C383.531 345.404 382.121 345.075 380.881 344.417C379.659 343.741 378.701 342.82 378.006 341.655C377.31 340.49 376.963 339.165 376.963 337.68C376.963 336.177 377.31 334.852 378.006 333.706C378.701 332.54 379.659 331.629 380.881 330.971C382.121 330.313 383.531 329.985 385.109 329.985C386.575 329.985 387.863 330.285 388.971 330.887C390.099 331.469 390.954 332.334 391.537 333.48L388.83 335.059C388.379 334.344 387.825 333.818 387.167 333.48C386.528 333.142 385.833 332.973 385.081 332.973C384.217 332.973 383.437 333.161 382.741 333.536C382.046 333.912 381.501 334.457 381.106 335.171C380.712 335.867 380.514 336.703 380.514 337.68C380.514 338.657 380.712 339.503 381.106 340.217C381.501 340.913 382.046 341.448 382.741 341.824C383.437 342.2 384.217 342.388 385.081 342.388C385.833 342.388 386.528 342.219 387.167 341.88C387.825 341.542 388.379 341.016 388.83 340.302L391.537 341.88C390.954 343.008 390.099 343.882 388.971 344.502C387.863 345.103 386.575 345.404 385.109 345.404ZM405.435 345.207L399.995 337.99L402.87 336.214L409.579 345.207H405.435ZM394.639 345.207V330.154H398.163V345.207H394.639ZM397.12 339.174V336.243H402.222V339.174H397.12ZM403.208 338.103L399.91 337.708L405.435 330.154H409.213L403.208 338.103ZM420.923 345.207V342.162L420.725 341.514V336.186C420.725 335.153 420.415 334.354 419.795 333.79C419.175 333.207 418.235 332.916 416.976 332.916C416.13 332.916 415.294 333.048 414.467 333.311C413.659 333.574 412.973 333.94 412.409 334.41L411.028 331.845C411.836 331.225 412.795 330.764 413.904 330.464C415.031 330.144 416.196 329.985 417.399 329.985C419.579 329.985 421.261 330.511 422.445 331.563C423.648 332.597 424.249 334.204 424.249 336.384V345.207H420.923ZM416.187 345.404C415.059 345.404 414.073 345.216 413.227 344.84C412.381 344.446 411.724 343.91 411.254 343.234C410.803 342.538 410.577 341.758 410.577 340.894C410.577 340.048 410.774 339.287 411.169 338.61C411.583 337.934 412.25 337.398 413.171 337.004C414.091 336.609 415.313 336.412 416.835 336.412H421.205V338.751H417.089C415.886 338.751 415.078 338.949 414.665 339.343C414.251 339.719 414.044 340.189 414.044 340.753C414.044 341.392 414.298 341.899 414.806 342.275C415.313 342.651 416.018 342.839 416.92 342.839C417.784 342.839 418.555 342.642 419.231 342.247C419.927 341.852 420.425 341.27 420.725 340.499L421.317 342.613C420.979 343.497 420.368 344.183 419.485 344.671C418.621 345.16 417.521 345.404 416.187 345.404ZM438.166 345.207V340.076L438.673 340.668H434.163C432.095 340.668 430.47 340.236 429.286 339.372C428.121 338.488 427.538 337.22 427.538 335.566C427.538 333.799 428.158 332.456 429.399 331.535C430.658 330.614 432.33 330.154 434.416 330.154H441.323V345.207H438.166ZM427.341 345.207L431.4 339.456H435.008L431.118 345.207H427.341ZM438.166 338.949V332.183L438.673 333.114H434.529C433.439 333.114 432.593 333.32 431.992 333.734C431.41 334.128 431.118 334.777 431.118 335.679C431.118 337.37 432.218 338.216 434.416 338.216H438.673L438.166 338.949ZM144.678 379.207V364.154H148.371L154.432 374.837H152.966L159.337 364.154H162.635L162.663 379.207H159.478V367.931L160.041 368.297L154.404 377.628H152.881L147.215 368.044L147.892 367.875V379.207H144.678ZM167.389 379.207V364.154H170.913V370.271H178.496V364.154H182.02V379.207H178.496V373.259H170.913V379.207H167.389ZM193.451 379.404C191.91 379.404 190.538 379.075 189.336 378.417C188.133 377.741 187.184 376.82 186.488 375.655C185.793 374.49 185.445 373.165 185.445 371.68C185.445 370.177 185.793 368.852 186.488 367.706C187.184 366.54 188.133 365.629 189.336 364.971C190.538 364.313 191.91 363.985 193.451 363.985C195.011 363.985 196.392 364.313 197.595 364.971C198.817 365.629 199.766 366.531 200.442 367.677C201.137 368.824 201.485 370.158 201.485 371.68C201.485 373.165 201.137 374.49 200.442 375.655C199.766 376.82 198.817 377.741 197.595 378.417C196.392 379.075 195.011 379.404 193.451 379.404ZM193.451 376.388C194.316 376.388 195.086 376.2 195.763 375.824C196.439 375.448 196.965 374.903 197.341 374.189C197.736 373.475 197.933 372.639 197.933 371.68C197.933 370.703 197.736 369.867 197.341 369.171C196.965 368.457 196.439 367.912 195.763 367.536C195.086 367.161 194.325 366.973 193.479 366.973C192.615 366.973 191.844 367.161 191.168 367.536C190.51 367.912 189.984 368.457 189.589 369.171C189.195 369.867 188.997 370.703 188.997 371.68C188.997 372.639 189.195 373.475 189.589 374.189C189.984 374.903 190.51 375.448 191.168 375.824C191.844 376.2 192.605 376.388 193.451 376.388ZM204.966 379.207V364.154H216.524V367.142H207.672L208.49 366.352V379.207H204.966ZM225.137 379.404C223.596 379.404 222.224 379.075 221.021 378.417C219.818 377.741 218.869 376.82 218.174 375.655C217.479 374.49 217.131 373.165 217.131 371.68C217.131 370.177 217.479 368.852 218.174 367.706C218.869 366.54 219.818 365.629 221.021 364.971C222.224 364.313 223.596 363.985 225.137 363.985C226.697 363.985 228.078 364.313 229.281 364.971C230.502 365.629 231.451 366.531 232.128 367.677C232.823 368.824 233.171 370.158 233.171 371.68C233.171 373.165 232.823 374.49 232.128 375.655C231.451 376.82 230.502 377.741 229.281 378.417C228.078 379.075 226.697 379.404 225.137 379.404ZM225.137 376.388C226.001 376.388 226.772 376.2 227.448 375.824C228.125 375.448 228.651 374.903 229.027 374.189C229.422 373.475 229.619 372.639 229.619 371.68C229.619 370.703 229.422 369.867 229.027 369.171C228.651 368.457 228.125 367.912 227.448 367.536C226.772 367.161 226.011 366.973 225.165 366.973C224.3 366.973 223.53 367.161 222.853 367.536C222.196 367.912 221.669 368.457 221.275 369.171C220.88 369.867 220.683 370.703 220.683 371.68C220.683 372.639 220.88 373.475 221.275 374.189C221.669 374.903 222.196 375.448 222.853 375.824C223.53 376.2 224.291 376.388 225.137 376.388ZM236.652 379.207V364.154H251.085V379.207H247.589V366.324L248.407 367.142H239.358L240.175 366.324V379.207H236.652ZM264.183 379.404C262.962 379.404 261.843 379.122 260.829 378.558C259.833 377.995 259.034 377.149 258.433 376.021C257.85 374.875 257.559 373.428 257.559 371.68C257.559 369.914 257.841 368.467 258.404 367.339C258.987 366.211 259.776 365.375 260.772 364.83C261.768 364.266 262.905 363.985 264.183 363.985C265.668 363.985 266.974 364.304 268.102 364.943C269.248 365.582 270.15 366.475 270.808 367.621C271.484 368.767 271.823 370.12 271.823 371.68C271.823 373.24 271.484 374.603 270.808 375.768C270.15 376.914 269.248 377.807 268.102 378.446C266.974 379.085 265.668 379.404 264.183 379.404ZM255.839 384.676V364.154H259.194V367.706L259.081 371.708L259.363 375.711V384.676H255.839ZM263.789 376.388C264.634 376.388 265.386 376.2 266.044 375.824C266.72 375.448 267.256 374.903 267.651 374.189C268.045 373.475 268.242 372.639 268.242 371.68C268.242 370.703 268.045 369.867 267.651 369.171C267.256 368.457 266.72 367.912 266.044 367.536C265.386 367.161 264.634 366.973 263.789 366.973C262.943 366.973 262.182 367.161 261.505 367.536C260.829 367.912 260.293 368.457 259.898 369.171C259.504 369.867 259.306 370.703 259.306 371.68C259.306 372.639 259.504 373.475 259.898 374.189C260.293 374.903 260.829 375.448 261.505 375.824C262.182 376.2 262.943 376.388 263.789 376.388ZM282.039 379.404C280.498 379.404 279.126 379.075 277.923 378.417C276.72 377.741 275.771 376.82 275.076 375.655C274.38 374.49 274.033 373.165 274.033 371.68C274.033 370.177 274.38 368.852 275.076 367.706C275.771 366.54 276.72 365.629 277.923 364.971C279.126 364.313 280.498 363.985 282.039 363.985C283.598 363.985 284.98 364.313 286.182 364.971C287.404 365.629 288.353 366.531 289.03 367.677C289.725 368.824 290.073 370.158 290.073 371.68C290.073 373.165 289.725 374.49 289.03 375.655C288.353 376.82 287.404 377.741 286.182 378.417C284.98 379.075 283.598 379.404 282.039 379.404ZM282.039 376.388C282.903 376.388 283.674 376.2 284.35 375.824C285.027 375.448 285.553 374.903 285.929 374.189C286.323 373.475 286.521 372.639 286.521 371.68C286.521 370.703 286.323 369.867 285.929 369.171C285.553 368.457 285.027 367.912 284.35 367.536C283.674 367.161 282.912 366.973 282.067 366.973C281.202 366.973 280.432 367.161 279.755 367.536C279.097 367.912 278.571 368.457 278.177 369.171C277.782 369.867 277.585 370.703 277.585 371.68C277.585 372.639 277.782 373.475 278.177 374.189C278.571 374.903 279.097 375.448 279.755 375.824C280.432 376.2 281.193 376.388 282.039 376.388ZM303.11 379.489C303.091 379.489 303.006 379.489 302.856 379.489C302.724 379.489 302.593 379.489 302.461 379.489C302.349 379.489 302.273 379.489 302.236 379.489C299.06 379.451 296.598 378.765 294.85 377.431C293.102 376.078 292.229 374.151 292.229 371.652C292.229 369.171 293.102 367.273 294.85 365.958C296.598 364.642 299.088 363.966 302.32 363.928C302.358 363.928 302.433 363.928 302.546 363.928C302.677 363.928 302.8 363.928 302.912 363.928C303.044 363.928 303.119 363.928 303.138 363.928C306.389 363.928 308.917 364.595 310.721 365.93C312.544 367.245 313.455 369.153 313.455 371.652C313.455 374.17 312.544 376.106 310.721 377.459C308.917 378.812 306.38 379.489 303.11 379.489ZM302.997 376.557C304.594 376.557 305.91 376.378 306.943 376.021C307.977 375.646 308.748 375.101 309.255 374.386C309.762 373.653 310.016 372.742 310.016 371.652C310.016 370.581 309.762 369.698 309.255 369.002C308.748 368.288 307.977 367.762 306.943 367.424C305.91 367.067 304.594 366.888 302.997 366.888C302.959 366.888 302.865 366.888 302.715 366.888C302.583 366.888 302.499 366.888 302.461 366.888C300.902 366.888 299.624 367.076 298.628 367.452C297.632 367.809 296.889 368.335 296.401 369.03C295.931 369.726 295.696 370.6 295.696 371.652C295.696 372.723 295.931 373.616 296.401 374.33C296.889 375.044 297.632 375.589 298.628 375.965C299.642 376.341 300.92 376.538 302.461 376.557C302.499 376.557 302.583 376.557 302.715 376.557C302.865 376.557 302.959 376.557 302.997 376.557ZM301.165 384.676V358.29H304.491V384.676H301.165ZM316.87 379.207V364.154H320.394V374.076L328.71 364.154H331.923V379.207H328.4V369.284L320.112 379.207H316.87ZM334.465 379.179L334.634 376.219C334.765 376.238 334.888 376.256 335 376.275C335.113 376.294 335.216 376.303 335.31 376.303C335.893 376.303 336.344 376.125 336.663 375.768C336.983 375.411 337.218 374.931 337.368 374.33C337.537 373.71 337.65 373.024 337.706 372.272C337.782 371.502 337.838 370.731 337.876 369.961L338.129 364.154H350.307V379.207H346.783V366.183L347.601 367.142H340.441L341.202 366.155L341.005 370.13C340.948 371.464 340.835 372.704 340.666 373.851C340.516 374.978 340.272 375.965 339.933 376.811C339.614 377.656 339.163 378.314 338.58 378.784C338.017 379.254 337.293 379.489 336.41 379.489C336.128 379.489 335.818 379.46 335.48 379.404C335.16 379.348 334.822 379.273 334.465 379.179ZM362.607 369.115C364.543 369.115 366.018 369.547 367.033 370.412C368.048 371.276 368.555 372.498 368.555 374.076C368.555 375.711 367.992 376.989 366.864 377.91C365.736 378.812 364.148 379.254 362.1 379.235L355.053 379.207V364.154H358.576V369.087L362.607 369.115ZM361.79 376.642C362.824 376.66 363.613 376.444 364.158 375.993C364.703 375.542 364.975 374.884 364.975 374.02C364.975 373.155 364.703 372.535 364.158 372.159C363.632 371.765 362.842 371.558 361.79 371.539L358.576 371.511V376.613L361.79 376.642ZM371.652 379.207V364.154H375.176V370.271H382.759V364.154H386.283V379.207H382.759V373.259H375.176V379.207H371.652ZM400.138 379.207V376.162L399.941 375.514V370.186C399.941 369.153 399.631 368.354 399.011 367.79C398.391 367.207 397.451 366.916 396.192 366.916C395.346 366.916 394.51 367.048 393.683 367.311C392.875 367.574 392.189 367.94 391.625 368.41L390.244 365.845C391.052 365.225 392.011 364.764 393.119 364.464C394.247 364.144 395.412 363.985 396.615 363.985C398.795 363.985 400.477 364.511 401.661 365.563C402.863 366.597 403.465 368.204 403.465 370.384V379.207H400.138ZM395.403 379.404C394.275 379.404 393.288 379.216 392.443 378.84C391.597 378.446 390.939 377.91 390.47 377.234C390.019 376.538 389.793 375.758 389.793 374.894C389.793 374.048 389.99 373.287 390.385 372.61C390.798 371.934 391.466 371.398 392.386 371.004C393.307 370.609 394.529 370.412 396.051 370.412H400.42V372.751H396.305C395.102 372.751 394.294 372.949 393.88 373.343C393.467 373.719 393.26 374.189 393.26 374.753C393.26 375.392 393.514 375.899 394.021 376.275C394.529 376.651 395.234 376.839 396.136 376.839C397 376.839 397.771 376.642 398.447 376.247C399.142 375.852 399.64 375.27 399.941 374.499L400.533 376.613C400.195 377.497 399.584 378.183 398.701 378.671C397.836 379.16 396.737 379.404 395.403 379.404ZM417.381 379.207V374.076L417.889 374.668H413.378C411.311 374.668 409.686 374.236 408.502 373.372C407.337 372.488 406.754 371.22 406.754 369.566C406.754 367.799 407.374 366.456 408.614 365.535C409.874 364.614 411.546 364.154 413.632 364.154H420.539V379.207H417.381ZM406.557 379.207L410.616 373.456H414.224L410.334 379.207H406.557ZM417.381 372.949V366.183L417.889 367.114H413.745C412.655 367.114 411.809 367.32 411.208 367.734C410.625 368.128 410.334 368.777 410.334 369.679C410.334 371.37 411.433 372.216 413.632 372.216H417.889L417.381 372.949ZM433.069 379.207V364.154H436.593V376.219H443.781V364.154H447.305V379.207H433.069ZM446.29 382.561V379.122L447.107 379.207H443.781V376.219H449.588V382.561H446.29ZM459.744 379.404C458.071 379.404 456.605 379.075 455.346 378.417C454.106 377.741 453.138 376.82 452.443 375.655C451.766 374.49 451.428 373.165 451.428 371.68C451.428 370.177 451.757 368.852 452.414 367.706C453.091 366.54 454.012 365.629 455.177 364.971C456.361 364.313 457.705 363.985 459.208 363.985C460.674 363.985 461.98 364.304 463.126 364.943C464.273 365.582 465.175 366.484 465.833 367.649C466.49 368.814 466.819 370.186 466.819 371.765C466.819 371.915 466.81 372.084 466.791 372.272C466.791 372.46 466.782 372.639 466.763 372.808H454.219V370.468H464.902L463.521 371.201C463.54 370.337 463.361 369.575 462.985 368.918C462.61 368.26 462.093 367.743 461.435 367.367C460.796 366.991 460.054 366.803 459.208 366.803C458.344 366.803 457.582 366.991 456.925 367.367C456.286 367.743 455.778 368.269 455.403 368.946C455.045 369.604 454.867 370.384 454.867 371.286V371.849C454.867 372.751 455.074 373.55 455.487 374.245C455.901 374.941 456.483 375.476 457.235 375.852C457.987 376.228 458.851 376.416 459.828 376.416C460.674 376.416 461.435 376.284 462.112 376.021C462.788 375.758 463.389 375.345 463.916 374.781L465.804 376.952C465.128 377.741 464.273 378.352 463.239 378.784C462.224 379.197 461.059 379.404 459.744 379.404ZM470.673 379.207V364.154H474.197V370.271H481.78V364.154H485.304V379.207H481.78V373.259H474.197V379.207H470.673ZM493.155 379.207V366.296L493.972 367.142H487.855V364.154H501.95V367.142H495.861L496.679 366.296V379.207H493.155ZM512.85 379.404C511.629 379.404 510.51 379.122 509.496 378.558C508.5 377.995 507.701 377.149 507.099 376.021C506.517 374.875 506.226 373.428 506.226 371.68C506.226 369.914 506.507 368.467 507.071 367.339C507.654 366.211 508.443 365.375 509.439 364.83C510.435 364.266 511.572 363.985 512.85 363.985C514.335 363.985 515.641 364.304 516.768 364.943C517.915 365.582 518.817 366.475 519.475 367.621C520.151 368.767 520.489 370.12 520.489 371.68C520.489 373.24 520.151 374.603 519.475 375.768C518.817 376.914 517.915 377.807 516.768 378.446C515.641 379.085 514.335 379.404 512.85 379.404ZM504.506 384.676V364.154H507.861V367.706L507.748 371.708L508.03 375.711V384.676H504.506ZM512.455 376.388C513.301 376.388 514.053 376.2 514.711 375.824C515.387 375.448 515.923 374.903 516.317 374.189C516.712 373.475 516.909 372.639 516.909 371.68C516.909 370.703 516.712 369.867 516.317 369.171C515.923 368.457 515.387 367.912 514.711 367.536C514.053 367.161 513.301 366.973 512.455 366.973C511.61 366.973 510.849 367.161 510.172 367.536C509.496 367.912 508.96 368.457 508.565 369.171C508.171 369.867 507.973 370.703 507.973 371.68C507.973 372.639 508.171 373.475 508.565 374.189C508.96 374.903 509.496 375.448 510.172 375.824C510.849 376.2 511.61 376.388 512.455 376.388ZM532.937 379.207V376.162L532.74 375.514V370.186C532.74 369.153 532.43 368.354 531.809 367.79C531.189 367.207 530.25 366.916 528.99 366.916C528.145 366.916 527.309 367.048 526.482 367.311C525.674 367.574 524.988 367.94 524.424 368.41L523.043 365.845C523.851 365.225 524.809 364.764 525.918 364.464C527.045 364.144 528.211 363.985 529.413 363.985C531.593 363.985 533.275 364.511 534.459 365.563C535.662 366.597 536.263 368.204 536.263 370.384V379.207H532.937ZM528.201 379.404C527.074 379.404 526.087 379.216 525.241 378.84C524.396 378.446 523.738 377.91 523.268 377.234C522.817 376.538 522.591 375.758 522.591 374.894C522.591 374.048 522.789 373.287 523.183 372.61C523.597 371.934 524.264 371.398 525.185 371.004C526.106 370.609 527.327 370.412 528.85 370.412H533.219V372.751H529.103C527.9 372.751 527.092 372.949 526.679 373.343C526.266 373.719 526.059 374.189 526.059 374.753C526.059 375.392 526.312 375.899 526.82 376.275C527.327 376.651 528.032 376.839 528.934 376.839C529.799 376.839 530.569 376.642 531.246 376.247C531.941 375.852 532.439 375.27 532.74 374.499L533.332 376.613C532.993 377.497 532.383 378.183 531.499 378.671C530.635 379.16 529.535 379.404 528.201 379.404ZM538.425 379.179L538.594 376.219C538.726 376.238 538.848 376.256 538.961 376.275C539.073 376.294 539.177 376.303 539.271 376.303C539.853 376.303 540.304 376.125 540.624 375.768C540.943 375.411 541.178 374.931 541.328 374.33C541.498 373.71 541.61 373.024 541.667 372.272C541.742 371.502 541.798 370.731 541.836 369.961L542.09 364.154H554.267V379.207H550.744V366.183L551.561 367.142H544.401L545.162 366.155L544.965 370.13C544.908 371.464 544.796 372.704 544.627 373.851C544.476 374.978 544.232 375.965 543.894 376.811C543.574 377.656 543.123 378.314 542.541 378.784C541.977 379.254 541.253 379.489 540.37 379.489C540.088 379.489 539.778 379.46 539.44 379.404C539.12 379.348 538.782 379.273 538.425 379.179ZM566.568 369.115C568.503 369.115 569.979 369.547 570.993 370.412C572.008 371.276 572.516 372.498 572.516 374.076C572.516 375.711 571.952 376.989 570.824 377.91C569.697 378.812 568.109 379.254 566.06 379.235L559.013 379.207V364.154H562.537V369.087L566.568 369.115ZM565.75 376.642C566.784 376.66 567.573 376.444 568.118 375.993C568.663 375.542 568.936 374.884 568.936 374.02C568.936 373.155 568.663 372.535 568.118 372.159C567.592 371.765 566.803 371.558 565.75 371.539L562.537 371.511V376.613L565.75 376.642ZM575.613 379.207V364.154H579.136V370.271H586.719V364.154H590.243V379.207H586.719V373.259H579.136V379.207H575.613ZM604.099 379.207V376.162L603.901 375.514V370.186C603.901 369.153 603.591 368.354 602.971 367.79C602.351 367.207 601.411 366.916 600.152 366.916C599.307 366.916 598.47 367.048 597.643 367.311C596.835 367.574 596.149 367.94 595.586 368.41L594.204 365.845C595.012 365.225 595.971 364.764 597.08 364.464C598.207 364.144 599.372 363.985 600.575 363.985C602.755 363.985 604.437 364.511 605.621 365.563C606.824 366.597 607.425 368.204 607.425 370.384V379.207H604.099ZM599.363 379.404C598.235 379.404 597.249 379.216 596.403 378.84C595.557 378.446 594.9 377.91 594.43 377.234C593.979 376.538 593.753 375.758 593.753 374.894C593.753 374.048 593.951 373.287 594.345 372.61C594.759 371.934 595.426 371.398 596.347 371.004C597.267 370.609 598.489 370.412 600.011 370.412H604.381V372.751H600.265C599.062 372.751 598.254 372.949 597.841 373.343C597.427 373.719 597.221 374.189 597.221 374.753C597.221 375.392 597.474 375.899 597.982 376.275C598.489 376.651 599.194 376.839 600.096 376.839C600.96 376.839 601.731 376.642 602.407 376.247C603.103 375.852 603.601 375.27 603.901 374.499L604.493 376.613C604.155 377.497 603.544 378.183 602.661 378.671C601.797 379.16 600.697 379.404 599.363 379.404ZM621.342 379.207V374.076L621.849 374.668H617.339C615.271 374.668 613.646 374.236 612.462 373.372C611.297 372.488 610.714 371.22 610.714 369.566C610.714 367.799 611.334 366.456 612.575 365.535C613.834 364.614 615.506 364.154 617.592 364.154H624.499V379.207H621.342ZM610.517 379.207L614.576 373.456H618.184L614.294 379.207H610.517ZM621.342 372.949V366.183L621.849 367.114H617.705C616.615 367.114 615.769 367.32 615.168 367.734C614.586 368.128 614.294 368.777 614.294 369.679C614.294 371.37 615.394 372.216 617.592 372.216H621.849L621.342 372.949ZM153.022 413.404C151.801 413.404 150.683 413.122 149.668 412.558C148.672 411.995 147.873 411.149 147.272 410.021C146.689 408.875 146.398 407.428 146.398 405.68C146.398 403.914 146.68 402.467 147.243 401.339C147.826 400.211 148.615 399.375 149.611 398.83C150.607 398.266 151.744 397.985 153.022 397.985C154.507 397.985 155.813 398.304 156.941 398.943C158.087 399.582 158.989 400.475 159.647 401.621C160.323 402.767 160.662 404.12 160.662 405.68C160.662 407.24 160.323 408.603 159.647 409.768C158.989 410.914 158.087 411.807 156.941 412.446C155.813 413.085 154.507 413.404 153.022 413.404ZM144.678 418.676V398.154H148.033V401.706L147.92 405.708L148.202 409.711V418.676H144.678ZM152.628 410.388C153.473 410.388 154.225 410.2 154.883 409.824C155.559 409.448 156.095 408.903 156.49 408.189C156.884 407.475 157.082 406.639 157.082 405.68C157.082 404.703 156.884 403.867 156.49 403.171C156.095 402.457 155.559 401.912 154.883 401.536C154.225 401.161 153.473 400.973 152.628 400.973C151.782 400.973 151.021 401.161 150.344 401.536C149.668 401.912 149.132 402.457 148.737 403.171C148.343 403.867 148.146 404.703 148.146 405.68C148.146 406.639 148.343 407.475 148.737 408.189C149.132 408.903 149.668 409.448 150.344 409.824C151.021 410.2 151.782 410.388 152.628 410.388ZM173.109 413.207V410.162L172.912 409.514V404.186C172.912 403.153 172.602 402.354 171.982 401.79C171.361 401.207 170.422 400.916 169.163 400.916C168.317 400.916 167.481 401.048 166.654 401.311C165.846 401.574 165.16 401.94 164.596 402.41L163.215 399.845C164.023 399.225 164.981 398.764 166.09 398.464C167.218 398.144 168.383 397.985 169.586 397.985C171.766 397.985 173.447 398.511 174.631 399.563C175.834 400.597 176.436 402.204 176.436 404.384V413.207H173.109ZM168.373 413.404C167.246 413.404 166.259 413.216 165.414 412.84C164.568 412.446 163.91 411.91 163.44 411.234C162.989 410.538 162.764 409.758 162.764 408.894C162.764 408.048 162.961 407.287 163.356 406.61C163.769 405.934 164.436 405.398 165.357 405.004C166.278 404.609 167.5 404.412 169.022 404.412H173.391V406.751H169.275C168.073 406.751 167.265 406.949 166.851 407.343C166.438 407.719 166.231 408.189 166.231 408.753C166.231 409.392 166.485 409.899 166.992 410.275C167.5 410.651 168.204 410.839 169.106 410.839C169.971 410.839 170.741 410.642 171.418 410.247C172.113 409.852 172.611 409.27 172.912 408.499L173.504 410.613C173.166 411.497 172.555 412.183 171.672 412.671C170.807 413.16 169.708 413.404 168.373 413.404ZM180.796 413.207V398.154H184.32V408.076L192.635 398.154H195.849V413.207H192.325V403.284L184.038 413.207H180.796ZM188.097 396.378C186.594 396.378 185.438 396.03 184.63 395.335C183.822 394.621 183.408 393.587 183.389 392.234H185.729C185.748 392.91 185.955 393.446 186.349 393.841C186.763 394.235 187.336 394.433 188.069 394.433C188.783 394.433 189.347 394.235 189.76 393.841C190.192 393.446 190.418 392.91 190.437 392.234H192.833C192.814 393.587 192.391 394.621 191.564 395.335C190.756 396.03 189.6 396.378 188.097 396.378ZM207.298 413.404C205.757 413.404 204.385 413.075 203.182 412.417C201.98 411.741 201.031 410.82 200.335 409.655C199.64 408.49 199.292 407.165 199.292 405.68C199.292 404.177 199.64 402.852 200.335 401.706C201.031 400.54 201.98 399.629 203.182 398.971C204.385 398.313 205.757 397.985 207.298 397.985C208.858 397.985 210.239 398.313 211.442 398.971C212.663 399.629 213.613 400.531 214.289 401.677C214.984 402.824 215.332 404.158 215.332 405.68C215.332 407.165 214.984 408.49 214.289 409.655C213.613 410.82 212.663 411.741 211.442 412.417C210.239 413.075 208.858 413.404 207.298 413.404ZM207.298 410.388C208.163 410.388 208.933 410.2 209.61 409.824C210.286 409.448 210.812 408.903 211.188 408.189C211.583 407.475 211.78 406.639 211.78 405.68C211.78 404.703 211.583 403.867 211.188 403.171C210.812 402.457 210.286 401.912 209.61 401.536C208.933 401.161 208.172 400.973 207.326 400.973C206.462 400.973 205.691 401.161 205.015 401.536C204.357 401.912 203.831 402.457 203.436 403.171C203.042 403.867 202.844 404.703 202.844 405.68C202.844 406.639 203.042 407.475 203.436 408.189C203.831 408.903 204.357 409.448 205.015 409.824C205.691 410.2 206.452 410.388 207.298 410.388ZM218.813 413.207V398.154H222.337V404.271H229.92V398.154H233.443V413.207H229.92V407.259H222.337V413.207H218.813ZM238.166 413.207V398.154H241.689V404.271H249.272V398.154H252.796V413.207H249.272V407.259H241.689V413.207H238.166ZM266.652 413.207V410.162L266.454 409.514V404.186C266.454 403.153 266.144 402.354 265.524 401.79C264.904 401.207 263.964 400.916 262.705 400.916C261.86 400.916 261.023 401.048 260.196 401.311C259.388 401.574 258.702 401.94 258.139 402.41L256.757 399.845C257.565 399.225 258.524 398.764 259.633 398.464C260.76 398.144 261.925 397.985 263.128 397.985C265.308 397.985 266.99 398.511 268.174 399.563C269.377 400.597 269.978 402.204 269.978 404.384V413.207H266.652ZM261.916 413.404C260.788 413.404 259.802 413.216 258.956 412.84C258.11 412.446 257.453 411.91 256.983 411.234C256.532 410.538 256.306 409.758 256.306 408.894C256.306 408.048 256.504 407.287 256.898 406.61C257.312 405.934 257.979 405.398 258.9 405.004C259.821 404.609 261.042 404.412 262.564 404.412H266.934V406.751H262.818C261.615 406.751 260.807 406.949 260.394 407.343C259.98 407.719 259.774 408.189 259.774 408.753C259.774 409.392 260.027 409.899 260.535 410.275C261.042 410.651 261.747 410.839 262.649 410.839C263.513 410.839 264.284 410.642 264.96 410.247C265.656 409.852 266.154 409.27 266.454 408.499L267.046 410.613C266.708 411.497 266.097 412.183 265.214 412.671C264.35 413.16 263.25 413.404 261.916 413.404ZM283.895 413.207V408.076L284.402 408.668H279.892C277.825 408.668 276.199 408.236 275.015 407.372C273.85 406.488 273.267 405.22 273.267 403.566C273.267 401.799 273.887 400.456 275.128 399.535C276.387 398.614 278.059 398.154 280.145 398.154H287.052V413.207H283.895ZM273.07 413.207L277.129 407.456H280.737L276.847 413.207H273.07ZM283.895 406.949V400.183L284.402 401.114H280.258C279.168 401.114 278.323 401.32 277.721 401.734C277.139 402.128 276.847 402.777 276.847 403.679C276.847 405.37 277.947 406.216 280.145 406.216H284.402L283.895 406.949ZM306.771 413.489C305.53 413.489 304.421 413.301 303.444 412.925C302.467 412.549 301.621 411.976 300.907 411.205C300.212 410.416 299.676 409.42 299.3 408.217C298.925 407.015 298.737 405.586 298.737 403.932C298.737 402.73 298.84 401.63 299.047 400.634C299.253 399.638 299.563 398.746 299.977 397.956C300.39 397.148 300.907 396.434 301.527 395.814C302.166 395.194 302.909 394.677 303.754 394.264C304.6 393.85 305.558 393.531 306.63 393.305L313.621 391.811L314.128 394.968L307.785 396.265C307.428 396.34 306.996 396.453 306.489 396.603C306 396.735 305.493 396.942 304.966 397.223C304.459 397.486 303.98 397.872 303.529 398.379C303.097 398.868 302.739 399.507 302.458 400.296C302.194 401.067 302.063 402.034 302.063 403.2C302.063 403.557 302.072 403.829 302.091 404.017C302.129 404.186 302.157 404.374 302.176 404.581C302.213 404.769 302.232 405.051 302.232 405.427L300.907 404.045C301.283 403.087 301.8 402.269 302.458 401.593C303.134 400.897 303.914 400.371 304.797 400.014C305.699 399.638 306.677 399.45 307.729 399.45C309.138 399.45 310.388 399.742 311.478 400.324C312.568 400.907 313.423 401.724 314.043 402.777C314.664 403.829 314.974 405.022 314.974 406.357C314.974 407.747 314.635 408.978 313.959 410.05C313.282 411.121 312.324 411.966 311.084 412.587C309.862 413.188 308.424 413.489 306.771 413.489ZM307.052 410.642C307.898 410.642 308.64 410.463 309.279 410.106C309.937 409.73 310.445 409.223 310.802 408.584C311.178 407.945 311.365 407.231 311.365 406.441C311.365 405.652 311.178 404.966 310.802 404.384C310.445 403.782 309.937 403.303 309.279 402.946C308.64 402.589 307.879 402.41 306.996 402.41C306.15 402.41 305.389 402.579 304.713 402.918C304.055 403.256 303.538 403.726 303.162 404.327C302.805 404.91 302.627 405.586 302.627 406.357C302.627 407.146 302.815 407.87 303.191 408.527C303.566 409.185 304.083 409.702 304.741 410.078C305.417 410.454 306.188 410.642 307.052 410.642ZM325.093 413.404C323.552 413.404 322.181 413.075 320.978 412.417C319.775 411.741 318.826 410.82 318.131 409.655C317.435 408.49 317.088 407.165 317.088 405.68C317.088 404.177 317.435 402.852 318.131 401.706C318.826 400.54 319.775 399.629 320.978 398.971C322.181 398.313 323.552 397.985 325.093 397.985C326.653 397.985 328.035 398.313 329.237 398.971C330.459 399.629 331.408 400.531 332.084 401.677C332.78 402.824 333.127 404.158 333.127 405.68C333.127 407.165 332.78 408.49 332.084 409.655C331.408 410.82 330.459 411.741 329.237 412.417C328.035 413.075 326.653 413.404 325.093 413.404ZM325.093 410.388C325.958 410.388 326.728 410.2 327.405 409.824C328.082 409.448 328.608 408.903 328.984 408.189C329.378 407.475 329.576 406.639 329.576 405.68C329.576 404.703 329.378 403.867 328.984 403.171C328.608 402.457 328.082 401.912 327.405 401.536C326.728 401.161 325.967 400.973 325.122 400.973C324.257 400.973 323.487 401.161 322.81 401.536C322.152 401.912 321.626 402.457 321.232 403.171C320.837 403.867 320.64 404.703 320.64 405.68C320.64 406.639 320.837 407.475 321.232 408.189C321.626 408.903 322.152 409.448 322.81 409.824C323.487 410.2 324.248 410.388 325.093 410.388ZM334.244 413.179L334.414 410.219C334.545 410.238 334.667 410.256 334.78 410.275C334.893 410.294 334.996 410.303 335.09 410.303C335.673 410.303 336.124 410.125 336.443 409.768C336.763 409.411 336.998 408.931 337.148 408.33C337.317 407.71 337.43 407.024 337.486 406.272C337.561 405.502 337.618 404.731 337.655 403.961L337.909 398.154H350.087V413.207H346.563V400.183L347.381 401.142H340.221L340.982 400.155L340.784 404.13C340.728 405.464 340.615 406.704 340.446 407.851C340.296 408.978 340.051 409.965 339.713 410.811C339.394 411.656 338.943 412.314 338.36 412.784C337.796 413.254 337.073 413.489 336.19 413.489C335.908 413.489 335.598 413.46 335.259 413.404C334.94 413.348 334.602 413.273 334.244 413.179ZM362.387 403.115C364.323 403.115 365.798 403.547 366.813 404.412C367.828 405.276 368.335 406.498 368.335 408.076C368.335 409.711 367.771 410.989 366.644 411.91C365.516 412.812 363.928 413.254 361.88 413.235L354.832 413.207V398.154H358.356V403.087L362.387 403.115ZM361.57 410.642C362.603 410.66 363.393 410.444 363.938 409.993C364.483 409.542 364.755 408.884 364.755 408.02C364.755 407.155 364.483 406.535 363.938 406.159C363.411 405.765 362.622 405.558 361.57 405.539L358.356 405.511V410.613L361.57 410.642ZM371.432 413.207V398.154H374.956V404.271H382.539V398.154H386.063V413.207H382.539V407.259H374.956V413.207H371.432ZM390.785 413.207V398.154H394.309V408.076L402.624 398.154H405.838V413.207H402.314V403.284L394.027 413.207H390.785ZM410.578 413.207V398.154H414.102V410.219H421.29V398.154H424.814V413.207H410.578ZM423.799 416.561V413.122L424.616 413.207H421.29V410.219H427.097V416.561H423.799ZM439.367 413.207V410.162L439.17 409.514V404.186C439.17 403.153 438.859 402.354 438.239 401.79C437.619 401.207 436.68 400.916 435.42 400.916C434.575 400.916 433.738 401.048 432.912 401.311C432.103 401.574 431.417 401.94 430.854 402.41L429.472 399.845C430.281 399.225 431.239 398.764 432.348 398.464C433.475 398.144 434.64 397.985 435.843 397.985C438.023 397.985 439.705 398.511 440.889 399.563C442.092 400.597 442.693 402.204 442.693 404.384V413.207H439.367ZM434.631 413.404C433.504 413.404 432.517 413.216 431.671 412.84C430.826 412.446 430.168 411.91 429.698 411.234C429.247 410.538 429.021 409.758 429.021 408.894C429.021 408.048 429.219 407.287 429.613 406.61C430.027 405.934 430.694 405.398 431.615 405.004C432.536 404.609 433.757 404.412 435.279 404.412H439.649V406.751H435.533C434.33 406.751 433.522 406.949 433.109 407.343C432.695 407.719 432.489 408.189 432.489 408.753C432.489 409.392 432.742 409.899 433.25 410.275C433.757 410.651 434.462 410.839 435.364 410.839C436.228 410.839 436.999 410.642 437.676 410.247C438.371 409.852 438.869 409.27 439.17 408.499L439.762 410.613C439.423 411.497 438.813 412.183 437.929 412.671C437.065 413.16 435.965 413.404 434.631 413.404ZM448.125 413.404C447.486 413.404 446.941 413.188 446.49 412.756C446.039 412.305 445.813 411.741 445.813 411.064C445.813 410.35 446.039 409.786 446.49 409.373C446.941 408.941 447.486 408.725 448.125 408.725C448.764 408.725 449.309 408.941 449.76 409.373C450.211 409.786 450.436 410.35 450.436 411.064C450.436 411.741 450.211 412.305 449.76 412.756C449.309 413.188 448.764 413.404 448.125 413.404ZM452.399 400.832L454.034 394.574L454.513 396.688C453.855 396.688 453.301 396.481 452.85 396.068C452.417 395.654 452.201 395.1 452.201 394.404C452.201 393.709 452.417 393.155 452.85 392.741C453.301 392.309 453.846 392.093 454.485 392.093C455.142 392.093 455.687 392.309 456.12 392.741C456.552 393.174 456.768 393.728 456.768 394.404C456.768 394.611 456.749 394.827 456.712 395.053C456.693 395.26 456.636 395.504 456.542 395.786C456.467 396.049 456.336 396.397 456.148 396.829L454.682 400.832H452.399ZM458.375 400.832L460.01 394.574L460.489 396.688C459.831 396.688 459.277 396.481 458.826 396.068C458.393 395.654 458.177 395.1 458.177 394.404C458.177 393.709 458.393 393.155 458.826 392.741C459.277 392.309 459.822 392.093 460.461 392.093C461.118 392.093 461.663 392.309 462.096 392.741C462.528 393.174 462.744 393.728 462.744 394.404C462.744 394.611 462.725 394.827 462.688 395.053C462.669 395.26 462.613 395.504 462.519 395.786C462.443 396.049 462.312 396.397 462.124 396.829L460.658 400.832H458.375Z" fill="#F8F4EB"/></g></g><path d="M108.557 482.151C109.67 475.845 117.145 471.76 126.071 470.505C143.172 468.102 162.505 479.04 169.253 494.936L180.851 522.261L210.248 518.13C227.349 515.727 246.682 526.665 253.429 542.561C258.874 555.387 254.461 567.523 243.57 572.994M210.344 594.602L216.144 608.265C223.169 621.243 217.606 636.45 207.22 636.45" stroke="#fff" stroke-width="2.967" stroke-linejoin="round"/><path fill-rule="evenodd" clip-rule="evenodd" d="M120.082 533.696C121.705 533.468 122.501 532.06 121.861 530.552L110.262 503.227C107.445 496.591 107.543 490.16 109.985 484.943C110.635 484.81 111.298 484.695 111.975 484.6C129.076 482.196 148.409 493.135 155.157 509.031L166.756 536.356L196.152 532.225C213.253 529.821 232.586 540.759 239.334 556.656C241.39 561.499 242.04 566.244 241.467 570.569C239.131 571.728 236.47 572.55 233.522 572.964L204.126 577.095C202.503 577.323 201.707 578.731 202.347 580.24L207.2 591.672L191.191 593.922L202.79 621.247C204.846 626.09 205.496 630.835 204.923 635.16C202.587 636.319 199.926 637.141 196.979 637.555C181.5 639.73 164.002 629.83 157.895 615.443L146.296 588.117C145.656 586.609 143.821 585.571 142.198 585.799L112.802 589.93C97.3237 592.106 79.8252 582.205 73.718 567.818C70.9015 561.182 70.9996 554.751 73.4412 549.534C74.0907 549.401 74.7542 549.286 75.4314 549.191L104.828 545.06L101.135 536.359L120.082 533.696ZM99.9752 533.628L115.984 531.378L118.922 530.965L117.763 528.233L107.323 503.64C104.668 497.383 104.357 491.29 106.001 486.055C93.0178 490.717 87.322 503.819 93.2288 517.734L99.9752 533.628ZM69.4568 550.646C56.4739 555.308 50.7781 568.41 56.6849 582.325C63.4324 598.222 82.7655 609.16 99.8665 606.756L129.263 602.625L140.862 629.95C147.609 645.847 166.942 656.785 184.043 654.381C194.413 652.924 201.581 646.895 204.113 638.831C202.265 639.495 200.269 639.987 198.138 640.287C181.037 642.69 161.704 631.752 154.956 615.856L144.517 591.262L143.357 588.53L140.419 588.943L113.961 592.662C96.8602 595.065 77.5271 584.127 70.7796 568.231C68.1236 561.974 67.8135 555.881 69.4568 550.646ZM210.138 591.259L220.587 589.79C230.957 588.333 238.125 582.304 240.657 574.24C238.808 574.903 236.813 575.396 234.682 575.695L208.224 579.414L205.286 579.827L206.445 582.558L210.138 591.259Z" fill="#5496B4"/></g><defs><clipPath id="clip0_58_325"><path fill="#fff" d="M0 0H658V804H0z"/></clipPath></defs></svg>