<svg width="386" height="41" viewBox="0 0 386 41" fill="none" xmlns="http://www.w3.org/2000/svg"><path d="M7.12538 0.484106V1.90611H2.64338V13.0841H0.879379V0.484106H7.12538ZM8.68407 13.0841V0.484106H10.4481V13.0841H8.68407ZM15.2001 13.0841L10.5381 6.55011L14.8941 0.484106H16.8561L12.5001 6.56811L17.1801 13.0841H15.2001ZM20.45 13.0841H18.686V0.484106H27.074V13.0841H25.31V1.90611H20.45V13.0841ZM38.7604 13.0841V8.83611H34.9984V13.0841H33.3604V3.54411H34.9984V7.54011H38.7604V3.54411H40.3984V13.0841H38.7604ZM44.1352 6.64011H42.4792V6.22611C42.4792 5.39811 42.8032 4.72011 43.4512 4.19211C44.1112 3.66411 44.9512 3.40011 45.9712 3.40011C46.9912 3.40011 47.8252 3.66411 48.4732 4.19211C49.1212 4.70811 49.4452 5.38611 49.4452 6.22611V13.0841H47.8072V12.2201C47.0752 12.8921 46.2052 13.2281 45.1972 13.2281C44.3572 13.2281 43.6792 13.0121 43.1632 12.5801C42.6472 12.1361 42.3892 11.5301 42.3892 10.7621V10.1861C42.3892 9.39411 42.7072 8.76411 43.3432 8.29611C43.9912 7.81611 44.8432 7.55211 45.8992 7.50411L47.8072 7.41411V6.11811C47.8072 5.69811 47.6332 5.35611 47.2852 5.09211C46.9372 4.82811 46.4992 4.69611 45.9712 4.69611C45.4312 4.69611 44.9872 4.82811 44.6392 5.09211C44.3032 5.34411 44.1352 5.68611 44.1352 6.11811V6.64011ZM47.8072 10.6361V8.71011L45.9172 8.80011C45.3292 8.83611 44.8672 8.96811 44.5312 9.19611C44.2072 9.42411 44.0452 9.72411 44.0452 10.0961V10.7621C44.0452 11.1221 44.2072 11.4101 44.5312 11.6261C44.8552 11.8301 45.2812 11.9321 45.8092 11.9321C46.3852 11.9321 46.8592 11.8121 47.2312 11.5721C47.6152 11.3201 47.8072 11.0081 47.8072 10.6361ZM57.4344 13.0841H55.6704V0.484106H64.0584V13.0841H62.2944V1.90611H57.4344V13.0841ZM72.8136 0.484106H74.7756L71.3016 6.62211L74.9736 13.0841H73.0116L70.2576 8.22411L67.5396 13.0841H65.5776L69.2496 6.62211L65.7936 0.484106H67.7376L70.2756 5.02011L72.8136 0.484106ZM76.4829 13.0841V0.484106H80.1549C81.3909 0.484106 82.3869 0.760106 83.1429 1.31211C83.8989 1.85211 84.2769 2.55411 84.2769 3.41811V4.08411C84.2769 5.18811 83.7009 6.01611 82.5489 6.56811C83.2209 6.82011 83.7429 7.19211 84.1149 7.68411C84.4869 8.16411 84.6729 8.71611 84.6729 9.34011V9.97011C84.6729 10.8941 84.2949 11.6441 83.5389 12.2201C82.7949 12.7961 81.7989 13.0841 80.5509 13.0841H76.4829ZM80.4969 7.34211H78.2469V11.6801H80.4969C81.2409 11.6801 81.8289 11.5241 82.2609 11.2121C82.6929 10.8881 82.9089 10.4681 82.9089 9.95211V9.19611C82.9089 8.64411 82.6929 8.20011 82.2609 7.86411C81.8289 7.51611 81.2409 7.34211 80.4969 7.34211ZM80.1009 1.90611H78.2469V5.92011H80.1009C80.8449 5.92011 81.4329 5.76411 81.8649 5.45211C82.2969 5.12811 82.5129 4.71411 82.5129 4.21011V3.47211C82.5129 3.01611 82.2969 2.64411 81.8649 2.35611C81.4329 2.05611 80.8449 1.90611 80.1009 1.90611ZM90.095 4.33611V0.484106H91.499V4.33611H90.095ZM92.651 4.33611V0.484106H94.055V4.33611H92.651ZM103.048 11.6801V13.0841H96.1177V0.484106H103.048V1.90611H97.8817V6.04611H102.526V7.46811H97.8817V11.6801H103.048ZM110.391 13.0841V8.83611H106.629V13.0841H104.991V3.54411H106.629V7.54011H110.391V3.54411H112.029V13.0841H110.391ZM120.32 12.4541C119.66 12.9701 118.808 13.2281 117.764 13.2281C116.72 13.2281 115.862 12.9701 115.19 12.4541C114.53 11.9261 114.2 11.2421 114.2 10.4021V3.81411C114.2 2.95011 114.452 2.24211 114.956 1.69011C115.472 1.12611 116.204 0.796106 117.152 0.700106L120.734 0.304106L120.914 1.65411L117.53 2.08611C116.99 2.14611 116.57 2.32611 116.27 2.62611C115.982 2.91411 115.838 3.31011 115.838 3.81411V4.58811C116.426 3.97611 117.284 3.67011 118.412 3.67011C119.276 3.67011 119.978 3.91611 120.518 4.40811C121.058 4.88811 121.328 5.52411 121.328 6.31611V10.4021C121.328 11.2421 120.992 11.9261 120.32 12.4541ZM116.378 11.5361C116.738 11.8001 117.2 11.9321 117.764 11.9321C118.328 11.9321 118.79 11.8061 119.15 11.5541C119.51 11.2901 119.69 10.9421 119.69 10.5101V6.31611C119.69 5.93211 119.51 5.61411 119.15 5.36211C118.802 5.09811 118.352 4.96611 117.8 4.96611C117.236 4.96611 116.768 5.08011 116.396 5.30811C116.036 5.52411 115.85 5.81811 115.838 6.19011V10.5101C115.838 10.9301 116.018 11.2721 116.378 11.5361ZM123.304 10.4021V6.22611C123.304 5.38611 123.634 4.70811 124.294 4.19211C124.966 3.66411 125.824 3.40011 126.868 3.40011C127.912 3.40011 128.764 3.66411 129.424 4.19211C130.096 4.70811 130.432 5.38611 130.432 6.22611V8.90811H124.942V10.5101C124.942 10.9421 125.116 11.2901 125.464 11.5541C125.824 11.8061 126.292 11.9321 126.868 11.9321C127.432 11.9321 127.894 11.8061 128.254 11.5541C128.614 11.2901 128.794 10.9421 128.794 10.5101V10.1141H130.432V10.4021C130.432 11.2421 130.096 11.9261 129.424 12.4541C128.764 12.9701 127.912 13.2281 126.868 13.2281C125.824 13.2281 124.966 12.9701 124.294 12.4541C123.634 11.9261 123.304 11.2421 123.304 10.4021ZM126.868 4.69611C126.292 4.69611 125.824 4.82811 125.464 5.09211C125.116 5.34411 124.942 5.68611 124.942 6.11811V7.61211H128.794V6.11811C128.794 5.68611 128.614 5.34411 128.254 5.09211C127.894 4.82811 127.432 4.69611 126.868 4.69611ZM132.448 13.0841V3.54411H134.086V8.11611L137.596 3.54411H139.468L135.868 8.15211L139.792 13.0841H137.92L134.086 8.20611V13.0841H132.448ZM141.114 13.0841V3.54411H142.752V11.7881H146.208V3.54411H147.864V11.7881H151.32V3.54411H152.958V13.0841H141.114ZM160.828 13.0841V6.42411L156.544 13.0841H155.23V3.54411H156.868V10.2221L161.152 3.54411H162.466V13.0841H160.828ZM164.739 13.0841V3.54411H166.377V8.11611L169.887 3.54411H171.759L168.159 8.15211L172.083 13.0841H170.211L166.377 8.20611V13.0841H164.739ZM174.723 6.64011H173.067V6.22611C173.067 5.39811 173.391 4.72011 174.039 4.19211C174.699 3.66411 175.539 3.40011 176.559 3.40011C177.579 3.40011 178.413 3.66411 179.061 4.19211C179.709 4.70811 180.033 5.38611 180.033 6.22611V13.0841H178.395V12.2201C177.663 12.8921 176.793 13.2281 175.785 13.2281C174.945 13.2281 174.267 13.0121 173.751 12.5801C173.235 12.1361 172.977 11.5301 172.977 10.7621V10.1861C172.977 9.39411 173.295 8.76411 173.931 8.29611C174.579 7.81611 175.431 7.55211 176.487 7.50411L178.395 7.41411V6.11811C178.395 5.69811 178.221 5.35611 177.873 5.09211C177.525 4.82811 177.087 4.69611 176.559 4.69611C176.019 4.69611 175.575 4.82811 175.227 5.09211C174.891 5.34411 174.723 5.68611 174.723 6.11811V6.64011ZM178.395 10.6361V8.71011L176.505 8.80011C175.917 8.83611 175.455 8.96811 175.119 9.19611C174.795 9.42411 174.633 9.72411 174.633 10.0961V10.7621C174.633 11.1221 174.795 11.4101 175.119 11.6261C175.443 11.8301 175.869 11.9321 176.397 11.9321C176.973 11.9321 177.447 11.8121 177.819 11.5721C178.203 11.3201 178.395 11.0081 178.395 10.6361ZM185.379 3.40011C186.363 3.40011 187.155 3.61611 187.755 4.04811C188.367 4.48011 188.673 5.05011 188.673 5.75811V6.31611C188.673 7.10811 188.235 7.72611 187.359 8.17011C188.463 8.59011 189.015 9.27411 189.015 10.2221V10.7981C189.015 11.5181 188.673 12.1061 187.989 12.5621C187.317 13.0061 186.459 13.2281 185.415 13.2281C184.335 13.2281 183.465 12.9881 182.805 12.5081C182.145 12.0161 181.815 11.3741 181.815 10.5821V10.1141H183.471V10.5821C183.471 10.9901 183.645 11.3201 183.993 11.5721C184.353 11.8121 184.821 11.9321 185.397 11.9321C185.973 11.9321 186.447 11.8181 186.819 11.5901C187.191 11.3621 187.377 11.0561 187.377 10.6721V10.1681C187.377 9.78411 187.209 9.47211 186.873 9.23211C186.549 8.99211 186.135 8.87211 185.631 8.87211H184.317V7.57611H185.271C185.775 7.57611 186.189 7.46811 186.513 7.25211C186.849 7.02411 187.017 6.73011 187.017 6.37011V5.88411C187.017 5.52411 186.861 5.23611 186.549 5.02011C186.237 4.80411 185.829 4.69611 185.325 4.69611C184.785 4.69611 184.341 4.82211 183.993 5.07411C183.645 5.31411 183.471 5.63811 183.471 6.04611V6.51411H181.815V6.04611C181.815 5.26611 182.145 4.63011 182.805 4.13811C183.477 3.64611 184.335 3.40011 185.379 3.40011ZM192.301 6.64011H190.645V6.22611C190.645 5.39811 190.969 4.72011 191.617 4.19211C192.277 3.66411 193.117 3.40011 194.137 3.40011C195.157 3.40011 195.991 3.66411 196.639 4.19211C197.287 4.70811 197.611 5.38611 197.611 6.22611V13.0841H195.973V12.2201C195.241 12.8921 194.371 13.2281 193.363 13.2281C192.523 13.2281 191.845 13.0121 191.329 12.5801C190.813 12.1361 190.555 11.5301 190.555 10.7621V10.1861C190.555 9.39411 190.873 8.76411 191.509 8.29611C192.157 7.81611 193.009 7.55211 194.065 7.50411L195.973 7.41411V6.11811C195.973 5.69811 195.799 5.35611 195.451 5.09211C195.103 4.82811 194.665 4.69611 194.137 4.69611C193.597 4.69611 193.153 4.82811 192.805 5.09211C192.469 5.34411 192.301 5.68611 192.301 6.11811V6.64011ZM195.973 10.6361V8.71011L194.083 8.80011C193.495 8.83611 193.033 8.96811 192.697 9.19611C192.373 9.42411 192.211 9.72411 192.211 10.0961V10.7621C192.211 11.1221 192.373 11.4101 192.697 11.6261C193.021 11.8301 193.447 11.9321 193.975 11.9321C194.551 11.9321 195.025 11.8121 195.397 11.5721C195.781 11.3201 195.973 11.0081 195.973 10.6361ZM204.865 13.0841L202.723 9.46611L200.581 13.0841H198.871L201.805 8.15211L199.087 3.54411H200.797L202.723 6.83811L204.649 3.54411H206.359L203.623 8.15211L206.575 13.0841H204.865ZM213.064 6.74811V6.11811C213.064 5.68611 212.884 5.34411 212.524 5.09211C212.164 4.82811 211.702 4.69611 211.138 4.69611C210.562 4.69611 210.094 4.82811 209.734 5.09211C209.386 5.34411 209.212 5.68611 209.212 6.11811V10.5101C209.212 10.9421 209.386 11.2901 209.734 11.5541C210.094 11.8061 210.562 11.9321 211.138 11.9321C211.702 11.9321 212.164 11.8061 212.524 11.5541C212.884 11.2901 213.064 10.9421 213.064 10.5101V9.88011H214.702V10.4021C214.702 11.2421 214.366 11.9261 213.694 12.4541C213.034 12.9701 212.182 13.2281 211.138 13.2281C210.094 13.2281 209.236 12.9701 208.564 12.4541C207.904 11.9261 207.574 11.2421 207.574 10.4021V6.22611C207.574 5.38611 207.904 4.70811 208.564 4.19211C209.236 3.66411 210.094 3.40011 211.138 3.40011C212.182 3.40011 213.034 3.66411 213.694 4.19211C214.366 4.70811 214.702 5.38611 214.702 6.22611V6.74811H213.064ZM216.665 13.0841V3.54411H218.303V8.11611L221.813 3.54411H223.685L220.085 8.15211L224.009 13.0841H222.137L218.303 8.20611V13.0841H216.665ZM226.649 6.64011H224.993V6.22611C224.993 5.39811 225.317 4.72011 225.965 4.19211C226.625 3.66411 227.465 3.40011 228.485 3.40011C229.505 3.40011 230.339 3.66411 230.987 4.19211C231.635 4.70811 231.959 5.38611 231.959 6.22611V13.0841H230.321V12.2201C229.589 12.8921 228.719 13.2281 227.711 13.2281C226.871 13.2281 226.193 13.0121 225.677 12.5801C225.161 12.1361 224.903 11.5301 224.903 10.7621V10.1861C224.903 9.39411 225.221 8.76411 225.857 8.29611C226.505 7.81611 227.357 7.55211 228.413 7.50411L230.321 7.41411V6.11811C230.321 5.69811 230.147 5.35611 229.799 5.09211C229.451 4.82811 229.013 4.69611 228.485 4.69611C227.945 4.69611 227.501 4.82811 227.153 5.09211C226.817 5.34411 226.649 5.68611 226.649 6.11811V6.64011ZM230.321 10.6361V8.71011L228.431 8.80011C227.843 8.83611 227.381 8.96811 227.045 9.19611C226.721 9.42411 226.559 9.72411 226.559 10.0961V10.7621C226.559 11.1221 226.721 11.4101 227.045 11.6261C227.369 11.8301 227.795 11.9321 228.323 11.9321C228.899 11.9321 229.373 11.8121 229.745 11.5721C230.129 11.3201 230.321 11.0081 230.321 10.6361ZM240.617 3.54411V13.0841H238.961V9.37611H237.377L235.199 13.0841H233.561L235.811 9.16011C235.187 8.96811 234.695 8.65611 234.335 8.22411C233.987 7.79211 233.813 7.27011 233.813 6.65811V6.26211C233.813 5.43411 234.131 4.77411 234.767 4.28211C235.415 3.79011 236.261 3.54411 237.305 3.54411H240.617ZM235.451 6.74811C235.451 7.16811 235.619 7.49811 235.955 7.73811C236.291 7.96611 236.747 8.08011 237.323 8.08011H238.961V4.84011H237.323C236.747 4.84011 236.291 4.96011 235.955 5.20011C235.619 5.42811 235.451 5.74611 235.451 6.15411V6.74811ZM246.759 13.0841V3.54411H248.091L251.367 9.55611L254.607 3.54411H255.957V13.0841H254.463V6.65811L251.763 11.6801H250.953L248.253 6.65811V13.0841H246.759ZM263.62 13.0841V8.83611H259.858V13.0841H258.22V3.54411H259.858V7.54011H263.62V3.54411H265.258V13.0841H263.62ZM274.503 10.4021C274.503 11.2421 274.167 11.9261 273.495 12.4541C272.835 12.9701 271.983 13.2281 270.939 13.2281C269.895 13.2281 269.037 12.9701 268.365 12.4541C267.705 11.9261 267.375 11.2421 267.375 10.4021V6.22611C267.375 5.38611 267.705 4.70811 268.365 4.19211C269.037 3.66411 269.895 3.40011 270.939 3.40011C271.983 3.40011 272.835 3.66411 273.495 4.19211C274.167 4.70811 274.503 5.38611 274.503 6.22611V10.4021ZM272.865 10.5101V6.11811C272.865 5.68611 272.685 5.34411 272.325 5.09211C271.965 4.82811 271.503 4.69611 270.939 4.69611C270.363 4.69611 269.895 4.82811 269.535 5.09211C269.187 5.34411 269.013 5.68611 269.013 6.11811V10.5101C269.013 10.9421 269.187 11.2901 269.535 11.5541C269.895 11.8061 270.363 11.9321 270.939 11.9321C271.503 11.9321 271.965 11.8061 272.325 11.5541C272.685 11.2901 272.865 10.9421 272.865 10.5101ZM276.624 13.0841V3.54411H282.132V4.84011H278.262V13.0841H276.624ZM290.446 10.4021C290.446 11.2421 290.11 11.9261 289.438 12.4541C288.778 12.9701 287.926 13.2281 286.882 13.2281C285.838 13.2281 284.98 12.9701 284.308 12.4541C283.648 11.9261 283.318 11.2421 283.318 10.4021V6.22611C283.318 5.38611 283.648 4.70811 284.308 4.19211C284.98 3.66411 285.838 3.40011 286.882 3.40011C287.926 3.40011 288.778 3.66411 289.438 4.19211C290.11 4.70811 290.446 5.38611 290.446 6.22611V10.4021ZM288.808 10.5101V6.11811C288.808 5.68611 288.628 5.34411 288.268 5.09211C287.908 4.82811 287.446 4.69611 286.882 4.69611C286.306 4.69611 285.838 4.82811 285.478 5.09211C285.13 5.34411 284.956 5.68611 284.956 6.11811V10.5101C284.956 10.9421 285.13 11.2901 285.478 11.5541C285.838 11.8061 286.306 11.9321 286.882 11.9321C287.446 11.9321 287.908 11.8061 288.268 11.5541C288.628 11.2901 288.808 10.9421 288.808 10.5101ZM297.967 13.0841V4.84011H294.205V13.0841H292.567V3.54411H299.605V13.0841H297.967ZM301.866 16.6841V3.54411H303.504V4.37211C304.212 3.72411 305.046 3.40011 306.006 3.40011C306.87 3.40011 307.566 3.64011 308.094 4.12011C308.634 4.60011 308.904 5.24211 308.904 6.04611V10.5821C308.904 11.3861 308.634 12.0281 308.094 12.5081C307.566 12.9881 306.87 13.2281 306.006 13.2281C305.058 13.2281 304.224 12.9101 303.504 12.2741V16.6841H301.866ZM305.394 11.9321C305.946 11.9321 306.396 11.8061 306.744 11.5541C307.092 11.2901 307.266 10.9661 307.266 10.5821V6.04611C307.266 5.66211 307.092 5.34411 306.744 5.09211C306.396 4.82811 305.946 4.69611 305.394 4.69611C304.854 4.69611 304.404 4.81611 304.044 5.05611C303.684 5.29611 303.504 5.60811 303.504 5.99211V10.7081C303.516 11.0801 303.702 11.3801 304.062 11.6081C304.422 11.8241 304.866 11.9321 305.394 11.9321ZM318.008 10.4021C318.008 11.2421 317.672 11.9261 317 12.4541C316.34 12.9701 315.488 13.2281 314.444 13.2281C313.4 13.2281 312.542 12.9701 311.87 12.4541C311.21 11.9261 310.88 11.2421 310.88 10.4021V6.22611C310.88 5.38611 311.21 4.70811 311.87 4.19211C312.542 3.66411 313.4 3.40011 314.444 3.40011C315.488 3.40011 316.34 3.66411 317 4.19211C317.672 4.70811 318.008 5.38611 318.008 6.22611V10.4021ZM316.37 10.5101V6.11811C316.37 5.68611 316.19 5.34411 315.83 5.09211C315.47 4.82811 315.008 4.69611 314.444 4.69611C313.868 4.69611 313.4 4.82811 313.04 5.09211C312.692 5.34411 312.518 5.68611 312.518 6.11811V10.5101C312.518 10.9421 312.692 11.2901 313.04 11.5541C313.4 11.8061 313.868 11.9321 314.444 11.9321C315.008 11.9321 315.47 11.8061 315.83 11.5541C316.19 11.2901 316.37 10.9421 316.37 10.5101ZM324.738 16.6841V12.3641C324.114 12.9401 323.394 13.2281 322.578 13.2281C321.798 13.2281 321.168 12.9881 320.688 12.5081C320.22 12.0281 319.986 11.3861 319.986 10.5821V6.04611C319.986 5.24211 320.22 4.60011 320.688 4.12011C321.168 3.64011 321.798 3.40011 322.578 3.40011C323.394 3.40011 324.114 3.68811 324.738 4.26411V0.484106H326.394V4.24611C327.018 3.68211 327.738 3.40011 328.554 3.40011C329.322 3.40011 329.946 3.64611 330.426 4.13811C330.906 4.61811 331.146 5.25411 331.146 6.04611V10.5821C331.146 11.3741 330.906 12.0161 330.426 12.5081C329.946 12.9881 329.322 13.2281 328.554 13.2281C327.714 13.2281 326.994 12.9461 326.394 12.3821V16.6841H324.738ZM323.19 11.9321C323.634 11.9321 324 11.8121 324.288 11.5721C324.588 11.3321 324.738 11.0201 324.738 10.6361V5.99211C324.738 5.59611 324.588 5.28411 324.288 5.05611C324 4.81611 323.628 4.69611 323.172 4.69611C322.716 4.69611 322.344 4.82211 322.056 5.07411C321.768 5.32611 321.624 5.65011 321.624 6.04611V10.5821C321.624 10.9661 321.768 11.2901 322.056 11.5541C322.356 11.8061 322.734 11.9321 323.19 11.9321ZM327.942 11.9321C328.398 11.9321 328.77 11.8061 329.058 11.5541C329.346 11.2901 329.49 10.9661 329.49 10.5821V6.04611C329.49 5.66211 329.346 5.34411 329.058 5.09211C328.77 4.82811 328.398 4.69611 327.942 4.69611C327.498 4.69611 327.126 4.81611 326.826 5.05611C326.538 5.29611 326.394 5.60811 326.394 5.99211V10.6361C326.394 11.0201 326.538 11.3321 326.826 11.5721C327.126 11.8121 327.498 11.9321 327.942 11.9321ZM338.824 13.0841V6.42411L334.54 13.0841H333.226V3.54411H334.864V10.2221L339.148 3.54411H340.462V13.0841H338.824ZM341.799 11.8421H342.141C342.501 11.8421 342.777 11.6981 342.969 11.4101C343.173 11.1101 343.335 10.4681 343.455 9.48411C343.575 8.48811 343.635 7.06011 343.635 5.20011V3.54411H349.881V13.0841H348.243V4.84011H345.165V5.20011C345.165 7.49211 345.057 9.21411 344.841 10.3661C344.637 11.5061 344.331 12.2561 343.923 12.6161C343.527 12.9641 342.933 13.1381 342.141 13.1381H341.799V11.8421ZM352.157 13.0841V3.54411H353.795V6.98211H355.523C356.567 6.98211 357.407 7.24011 358.043 7.75611C358.691 8.26011 359.015 8.93211 359.015 9.77211V10.2941C359.015 11.1341 358.691 11.8121 358.043 12.3281C357.407 12.8321 356.567 13.0841 355.523 13.0841H352.157ZM355.487 8.27811H353.795V11.7881H355.487C356.063 11.7881 356.519 11.6621 356.855 11.4101C357.203 11.1581 357.377 10.8161 357.377 10.3841V9.66411C357.377 9.24411 357.203 8.90811 356.855 8.65611C356.519 8.40411 356.063 8.27811 355.487 8.27811ZM366.065 13.0841V8.83611H362.303V13.0841H360.665V3.54411H362.303V7.54011H366.065V3.54411H367.703V13.0841H366.065ZM371.44 6.64011H369.784V6.22611C369.784 5.39811 370.108 4.72011 370.756 4.19211C371.416 3.66411 372.256 3.40011 373.276 3.40011C374.296 3.40011 375.13 3.66411 375.778 4.19211C376.426 4.70811 376.75 5.38611 376.75 6.22611V13.0841H375.112V12.2201C374.38 12.8921 373.51 13.2281 372.502 13.2281C371.662 13.2281 370.984 13.0121 370.468 12.5801C369.952 12.1361 369.694 11.5301 369.694 10.7621V10.1861C369.694 9.39411 370.012 8.76411 370.648 8.29611C371.296 7.81611 372.148 7.55211 373.204 7.50411L375.112 7.41411V6.11811C375.112 5.69811 374.938 5.35611 374.59 5.09211C374.242 4.82811 373.804 4.69611 373.276 4.69611C372.736 4.69611 372.292 4.82811 371.944 5.09211C371.608 5.34411 371.44 5.68611 371.44 6.11811V6.64011ZM375.112 10.6361V8.71011L373.222 8.80011C372.634 8.83611 372.172 8.96811 371.836 9.19611C371.512 9.42411 371.35 9.72411 371.35 10.0961V10.7621C371.35 11.1221 371.512 11.4101 371.836 11.6261C372.16 11.8301 372.586 11.9321 373.114 11.9321C373.69 11.9321 374.164 11.8121 374.536 11.5721C374.92 11.3201 375.112 11.0081 375.112 10.6361ZM385.408 3.54411V13.0841H383.752V9.37611H382.168L379.99 13.0841H378.352L380.602 9.16011C379.978 8.96811 379.486 8.65611 379.126 8.22411C378.778 7.79211 378.604 7.27011 378.604 6.65811V6.26211C378.604 5.43411 378.922 4.77411 379.558 4.28211C380.206 3.79011 381.052 3.54411 382.096 3.54411H385.408ZM380.242 6.74811C380.242 7.16811 380.41 7.49811 380.746 7.73811C381.082 7.96611 381.538 8.08011 382.114 8.08011H383.752V4.84011H382.114C381.538 4.84011 381.082 4.96011 380.746 5.20011C380.41 5.42811 380.242 5.74611 380.242 6.15411V6.74811ZM0.735379 37.0841V27.5441H2.37338V35.7881H6.13538V27.5441H7.77338V35.7881H9.33938V39.4961H7.68338V37.0841H0.735379ZM10.2945 34.4021V30.2261C10.2945 29.3861 10.6245 28.7081 11.2845 28.1921C11.9565 27.6641 12.8145 27.4001 13.8585 27.4001C14.9025 27.4001 15.7545 27.6641 16.4145 28.1921C17.0865 28.7081 17.4225 29.3861 17.4225 30.2261V32.9081H11.9325V34.5101C11.9325 34.9421 12.1065 35.2901 12.4545 35.5541C12.8145 35.8061 13.2825 35.9321 13.8585 35.9321C14.4225 35.9321 14.8845 35.8061 15.2445 35.5541C15.6045 35.2901 15.7845 34.9421 15.7845 34.5101V34.1141H17.4225V34.4021C17.4225 35.2421 17.0865 35.9261 16.4145 36.4541C15.7545 36.9701 14.9025 37.2281 13.8585 37.2281C12.8145 37.2281 11.9565 36.9701 11.2845 36.4541C10.6245 35.9261 10.2945 35.2421 10.2945 34.4021ZM13.8585 28.6961C13.2825 28.6961 12.8145 28.8281 12.4545 29.0921C12.1065 29.3441 11.9325 29.6861 11.9325 30.1181V31.6121H15.7845V30.1181C15.7845 29.6861 15.6045 29.3441 15.2445 29.0921C14.8845 28.8281 14.4225 28.6961 13.8585 28.6961ZM24.8385 37.0841V32.8361H21.0765V37.0841H19.4385V27.5441H21.0765V31.5401H24.8385V27.5441H26.4765V37.0841H24.8385ZM28.0533 28.8401V27.5441H35.4513V28.8401H32.5713V37.0841H30.9333V28.8401H28.0533ZM37.0342 40.6841V27.5441H38.6722V28.3721C39.3802 27.7241 40.2142 27.4001 41.1742 27.4001C42.0382 27.4001 42.7342 27.6401 43.2622 28.1201C43.8022 28.6001 44.0722 29.2421 44.0722 30.0461V34.5821C44.0722 35.3861 43.8022 36.0281 43.2622 36.5081C42.7342 36.9881 42.0382 37.2281 41.1742 37.2281C40.2262 37.2281 39.3922 36.9101 38.6722 36.2741V40.6841H37.0342ZM40.5622 35.9321C41.1142 35.9321 41.5642 35.8061 41.9122 35.5541C42.2602 35.2901 42.4342 34.9661 42.4342 34.5821V30.0461C42.4342 29.6621 42.2602 29.3441 41.9122 29.0921C41.5642 28.8281 41.1142 28.6961 40.5622 28.6961C40.0222 28.6961 39.5722 28.8161 39.2122 29.0561C38.8522 29.2961 38.6722 29.6081 38.6722 29.9921V34.7081C38.6842 35.0801 38.8702 35.3801 39.2302 35.6081C39.5902 35.8241 40.0342 35.9321 40.5622 35.9321ZM47.5629 30.6401H45.9069V30.2261C45.9069 29.3981 46.2309 28.7201 46.8789 28.1921C47.5389 27.6641 48.3789 27.4001 49.3989 27.4001C50.4189 27.4001 51.2529 27.6641 51.9009 28.1921C52.5489 28.7081 52.8729 29.3861 52.8729 30.2261V37.0841H51.2349V36.2201C50.5029 36.8921 49.6329 37.2281 48.6249 37.2281C47.7849 37.2281 47.1069 37.0121 46.5909 36.5801C46.0749 36.1361 45.8169 35.5301 45.8169 34.7621V34.1861C45.8169 33.3941 46.1349 32.7641 46.7709 32.2961C47.4189 31.8161 48.2709 31.5521 49.3269 31.5041L51.2349 31.4141V30.1181C51.2349 29.6981 51.0609 29.3561 50.7129 29.0921C50.3649 28.8281 49.9269 28.6961 49.3989 28.6961C48.8589 28.6961 48.4149 28.8281 48.0669 29.0921C47.7309 29.3441 47.5629 29.6861 47.5629 30.1181V30.6401ZM51.2349 34.6361V32.7101L49.3449 32.8001C48.7569 32.8361 48.2949 32.9681 47.9589 33.1961C47.6349 33.4241 47.4729 33.7241 47.4729 34.0961V34.7621C47.4729 35.1221 47.6349 35.4101 47.9589 35.6261C48.2829 35.8301 48.7089 35.9321 49.2369 35.9321C49.8129 35.9321 50.2869 35.8121 50.6589 35.5721C51.0429 35.3201 51.2349 35.0081 51.2349 34.6361ZM54.1509 35.8421H54.4929C54.8529 35.8421 55.1289 35.6981 55.3209 35.4101C55.5249 35.1101 55.6869 34.4681 55.8069 33.4841C55.9269 32.4881 55.9869 31.0601 55.9869 29.2001V27.5441H62.2329V37.0841H60.5949V28.8401H57.5169V29.2001C57.5169 31.4921 57.4089 33.2141 57.1929 34.3661C56.9889 35.5061 56.6829 36.2561 56.2749 36.6161C55.8789 36.9641 55.2849 37.1381 54.4929 37.1381H54.1509V35.8421ZM64.5088 37.0841V27.5441H66.1468V30.9821H67.8748C68.9188 30.9821 69.7588 31.2401 70.3948 31.7561C71.0428 32.2601 71.3668 32.9321 71.3668 33.7721V34.2941C71.3668 35.1341 71.0428 35.8121 70.3948 36.3281C69.7588 36.8321 68.9188 37.0841 67.8748 37.0841H64.5088ZM67.8388 32.2781H66.1468V35.7881H67.8388C68.4148 35.7881 68.8708 35.6621 69.2068 35.4101C69.5548 35.1581 69.7288 34.8161 69.7288 34.3841V33.6641C69.7288 33.2441 69.5548 32.9081 69.2068 32.6561C68.8708 32.4041 68.4148 32.2781 67.8388 32.2781ZM78.4166 37.0841V32.8361H74.6546V37.0841H73.0166V27.5441H74.6546V31.5401H78.4166V27.5441H80.0546V37.0841H78.4166ZM83.7915 30.6401H82.1355V30.2261C82.1355 29.3981 82.4595 28.7201 83.1075 28.1921C83.7675 27.6641 84.6075 27.4001 85.6275 27.4001C86.6475 27.4001 87.4815 27.6641 88.1295 28.1921C88.7775 28.7081 89.1015 29.3861 89.1015 30.2261V37.0841H87.4635V36.2201C86.7315 36.8921 85.8615 37.2281 84.8535 37.2281C84.0135 37.2281 83.3355 37.0121 82.8195 36.5801C82.3035 36.1361 82.0455 35.5301 82.0455 34.7621V34.1861C82.0455 33.3941 82.3635 32.7641 82.9995 32.2961C83.6475 31.8161 84.4995 31.5521 85.5555 31.5041L87.4635 31.4141V30.1181C87.4635 29.6981 87.2895 29.3561 86.9415 29.0921C86.5935 28.8281 86.1555 28.6961 85.6275 28.6961C85.0875 28.6961 84.6435 28.8281 84.2955 29.0921C83.9595 29.3441 83.7915 29.6861 83.7915 30.1181V30.6401ZM87.4635 34.6361V32.7101L85.5735 32.8001C84.9855 32.8361 84.5235 32.9681 84.1875 33.1961C83.8635 33.4241 83.7015 33.7241 83.7015 34.0961V34.7621C83.7015 35.1221 83.8635 35.4101 84.1875 35.6261C84.5115 35.8301 84.9375 35.9321 85.4655 35.9321C86.0415 35.9321 86.5155 35.8121 86.8875 35.5721C87.2715 35.3201 87.4635 35.0081 87.4635 34.6361ZM97.7595 27.5441V37.0841H96.1035V33.3761H94.5195L92.3415 37.0841H90.7035L92.9535 33.1601C92.3295 32.9681 91.8375 32.6561 91.4775 32.2241C91.1295 31.7921 90.9555 31.2701 90.9555 30.6581V30.2621C90.9555 29.4341 91.2735 28.7741 91.9095 28.2821C92.5575 27.7901 93.4035 27.5441 94.4475 27.5441H97.7595ZM92.5935 30.7481C92.5935 31.1681 92.7615 31.4981 93.0975 31.7381C93.4335 31.9661 93.8895 32.0801 94.4655 32.0801H96.1035V28.8401H94.4655C93.8895 28.8401 93.4335 28.9601 93.0975 29.2001C92.7615 29.4281 92.5935 29.7461 92.5935 30.1541V30.7481ZM103.901 40.6841V27.5441H105.539V28.3721C106.247 27.7241 107.081 27.4001 108.041 27.4001C108.905 27.4001 109.601 27.6401 110.129 28.1201C110.669 28.6001 110.939 29.2421 110.939 30.0461V34.5821C110.939 35.3861 110.669 36.0281 110.129 36.5081C109.601 36.9881 108.905 37.2281 108.041 37.2281C107.093 37.2281 106.259 36.9101 105.539 36.2741V40.6841H103.901ZM107.429 35.9321C107.981 35.9321 108.431 35.8061 108.779 35.5541C109.127 35.2901 109.301 34.9661 109.301 34.5821V30.0461C109.301 29.6621 109.127 29.3441 108.779 29.0921C108.431 28.8281 107.981 28.6961 107.429 28.6961C106.889 28.6961 106.439 28.8161 106.079 29.0561C105.719 29.2961 105.539 29.6081 105.539 29.9921V34.7081C105.551 35.0801 105.737 35.3801 106.097 35.6081C106.457 35.8241 106.901 35.9321 107.429 35.9321ZM114.43 30.6401H112.774V30.2261C112.774 29.3981 113.098 28.7201 113.746 28.1921C114.406 27.6641 115.246 27.4001 116.266 27.4001C117.286 27.4001 118.12 27.6641 118.768 28.1921C119.416 28.7081 119.74 29.3861 119.74 30.2261V37.0841H118.102V36.2201C117.37 36.8921 116.5 37.2281 115.492 37.2281C114.652 37.2281 113.974 37.0121 113.458 36.5801C112.942 36.1361 112.684 35.5301 112.684 34.7621V34.1861C112.684 33.3941 113.002 32.7641 113.638 32.2961C114.286 31.8161 115.138 31.5521 116.194 31.5041L118.102 31.4141V30.1181C118.102 29.6981 117.928 29.3561 117.58 29.0921C117.232 28.8281 116.794 28.6961 116.266 28.6961C115.726 28.6961 115.282 28.8281 114.934 29.0921C114.598 29.3441 114.43 29.6861 114.43 30.1181V30.6401ZM118.102 34.6361V32.7101L116.212 32.8001C115.624 32.8361 115.162 32.9681 114.826 33.1961C114.502 33.4241 114.34 33.7241 114.34 34.0961V34.7621C114.34 35.1221 114.502 35.4101 114.826 35.6261C115.15 35.8301 115.576 35.9321 116.104 35.9321C116.68 35.9321 117.154 35.8121 117.526 35.5721C117.91 35.3201 118.102 35.0081 118.102 34.6361ZM127.552 37.0841V30.4241L123.268 37.0841H121.954V27.5441H123.592V34.2221L127.876 27.5441H129.19V37.0841H127.552ZM126.85 24.3041H128.11V24.6101C128.11 25.1741 127.87 25.6361 127.39 25.9961C126.922 26.3561 126.322 26.5361 125.59 26.5361C124.858 26.5361 124.258 26.3561 123.79 25.9961C123.322 25.6361 123.088 25.1741 123.088 24.6101V24.3041H124.348V24.7721C124.348 24.9881 124.462 25.1741 124.69 25.3301C124.93 25.4741 125.23 25.5461 125.59 25.5461C125.95 25.5461 126.25 25.4741 126.49 25.3301C126.73 25.1741 126.85 24.9881 126.85 24.7721V24.3041ZM138.448 34.4021C138.448 35.2421 138.112 35.9261 137.44 36.4541C136.78 36.9701 135.928 37.2281 134.884 37.2281C133.84 37.2281 132.982 36.9701 132.31 36.4541C131.65 35.9261 131.32 35.2421 131.32 34.4021V30.2261C131.32 29.3861 131.65 28.7081 132.31 28.1921C132.982 27.6641 133.84 27.4001 134.884 27.4001C135.928 27.4001 136.78 27.6641 137.44 28.1921C138.112 28.7081 138.448 29.3861 138.448 30.2261V34.4021ZM136.81 34.5101V30.1181C136.81 29.6861 136.63 29.3441 136.27 29.0921C135.91 28.8281 135.448 28.6961 134.884 28.6961C134.308 28.6961 133.84 28.8281 133.48 29.0921C133.132 29.3441 132.958 29.6861 132.958 30.1181V34.5101C132.958 34.9421 133.132 35.2901 133.48 35.5541C133.84 35.8061 134.308 35.9321 134.884 35.9321C135.448 35.9321 135.91 35.8061 136.27 35.5541C136.63 35.2901 136.81 34.9421 136.81 34.5101ZM145.969 37.0841V32.8361H142.207V37.0841H140.569V27.5441H142.207V31.5401H145.969V27.5441H147.607V37.0841H145.969ZM155.268 37.0841V32.8361H151.506V37.0841H149.868V27.5441H151.506V31.5401H155.268V27.5441H156.906V37.0841H155.268ZM160.643 30.6401H158.987V30.2261C158.987 29.3981 159.311 28.7201 159.959 28.1921C160.619 27.6641 161.459 27.4001 162.479 27.4001C163.499 27.4001 164.333 27.6641 164.981 28.1921C165.629 28.7081 165.953 29.3861 165.953 30.2261V37.0841H164.315V36.2201C163.583 36.8921 162.713 37.2281 161.705 37.2281C160.865 37.2281 160.187 37.0121 159.671 36.5801C159.155 36.1361 158.897 35.5301 158.897 34.7621V34.1861C158.897 33.3941 159.215 32.7641 159.851 32.2961C160.499 31.8161 161.351 31.5521 162.407 31.5041L164.315 31.4141V30.1181C164.315 29.6981 164.141 29.3561 163.793 29.0921C163.445 28.8281 163.007 28.6961 162.479 28.6961C161.939 28.6961 161.495 28.8281 161.147 29.0921C160.811 29.3441 160.643 29.6861 160.643 30.1181V30.6401ZM164.315 34.6361V32.7101L162.425 32.8001C161.837 32.8361 161.375 32.9681 161.039 33.1961C160.715 33.4241 160.553 33.7241 160.553 34.0961V34.7621C160.553 35.1221 160.715 35.4101 161.039 35.6261C161.363 35.8301 161.789 35.9321 162.317 35.9321C162.893 35.9321 163.367 35.8121 163.739 35.5721C164.123 35.3201 164.315 35.0081 164.315 34.6361ZM174.611 27.5441V37.0841H172.955V33.3761H171.371L169.193 37.0841H167.555L169.805 33.1601C169.181 32.9681 168.689 32.6561 168.329 32.2241C167.981 31.7921 167.807 31.2701 167.807 30.6581V30.2621C167.807 29.4341 168.125 28.7741 168.761 28.2821C169.409 27.7901 170.255 27.5441 171.299 27.5441H174.611ZM169.445 30.7481C169.445 31.1681 169.613 31.4981 169.949 31.7381C170.285 31.9661 170.741 32.0801 171.317 32.0801H172.955V28.8401H171.317C170.741 28.8401 170.285 28.9601 169.949 29.2001C169.613 29.4281 169.445 29.7461 169.445 30.1541V30.7481ZM186.783 36.4541C186.123 36.9701 185.271 37.2281 184.227 37.2281C183.183 37.2281 182.325 36.9701 181.653 36.4541C180.993 35.9261 180.663 35.2421 180.663 34.4021V27.8141C180.663 26.9501 180.915 26.2421 181.419 25.6901C181.935 25.1261 182.667 24.7961 183.615 24.7001L187.197 24.3041L187.377 25.6541L183.993 26.0861C183.453 26.1461 183.033 26.3261 182.733 26.6261C182.445 26.9141 182.301 27.3101 182.301 27.8141V28.5881C182.889 27.9761 183.747 27.6701 184.875 27.6701C185.739 27.6701 186.441 27.9161 186.981 28.4081C187.521 28.8881 187.791 29.5241 187.791 30.3161V34.4021C187.791 35.2421 187.455 35.9261 186.783 36.4541ZM182.841 35.5361C183.201 35.8001 183.663 35.9321 184.227 35.9321C184.791 35.9321 185.253 35.8061 185.613 35.5541C185.973 35.2901 186.153 34.9421 186.153 34.5101V30.3161C186.153 29.9321 185.973 29.6141 185.613 29.3621C185.265 29.0981 184.815 28.9661 184.263 28.9661C183.699 28.9661 183.231 29.0801 182.859 29.3081C182.499 29.5241 182.313 29.8181 182.301 30.1901V34.5101C182.301 34.9301 182.481 35.2721 182.841 35.5361ZM196.895 34.4021C196.895 35.2421 196.559 35.9261 195.887 36.4541C195.227 36.9701 194.375 37.2281 193.331 37.2281C192.287 37.2281 191.429 36.9701 190.757 36.4541C190.097 35.9261 189.767 35.2421 189.767 34.4021V30.2261C189.767 29.3861 190.097 28.7081 190.757 28.1921C191.429 27.6641 192.287 27.4001 193.331 27.4001C194.375 27.4001 195.227 27.6641 195.887 28.1921C196.559 28.7081 196.895 29.3861 196.895 30.2261V34.4021ZM195.257 34.5101V30.1181C195.257 29.6861 195.077 29.3441 194.717 29.0921C194.357 28.8281 193.895 28.6961 193.331 28.6961C192.755 28.6961 192.287 28.8281 191.927 29.0921C191.579 29.3441 191.405 29.6861 191.405 30.1181V34.5101C191.405 34.9421 191.579 35.2901 191.927 35.5541C192.287 35.8061 192.755 35.9321 193.331 35.9321C193.895 35.9321 194.357 35.8061 194.717 35.5541C195.077 35.2901 195.257 34.9421 195.257 34.5101ZM197.606 35.8421H197.948C198.308 35.8421 198.584 35.6981 198.776 35.4101C198.98 35.1101 199.142 34.4681 199.262 33.4841C199.382 32.4881 199.442 31.0601 199.442 29.2001V27.5441H205.688V37.0841H204.05V28.8401H200.972V29.2001C200.972 31.4921 200.864 33.2141 200.648 34.3661C200.444 35.5061 200.138 36.2561 199.73 36.6161C199.334 36.9641 198.74 37.1381 197.948 37.1381H197.606V35.8421ZM207.964 37.0841V27.5441H209.602V30.9821H211.33C212.374 30.9821 213.214 31.2401 213.85 31.7561C214.498 32.2601 214.822 32.9321 214.822 33.7721V34.2941C214.822 35.1341 214.498 35.8121 213.85 36.3281C213.214 36.8321 212.374 37.0841 211.33 37.0841H207.964ZM211.294 32.2781H209.602V35.7881H211.294C211.87 35.7881 212.326 35.6621 212.662 35.4101C213.01 35.1581 213.184 34.8161 213.184 34.3841V33.6641C213.184 33.2441 213.01 32.9081 212.662 32.6561C212.326 32.4041 211.87 32.2781 211.294 32.2781ZM221.872 37.0841V32.8361H218.11V37.0841H216.472V27.5441H218.11V31.5401H221.872V27.5441H223.51V37.0841H221.872ZM231.369 37.0841V30.4241L227.085 37.0841H225.771V27.5441H227.409V34.2221L231.693 27.5441H233.007V37.0841H231.369ZM235.28 37.0841V27.5441H236.918V35.7881H240.68V27.5441H242.318V35.7881H243.884V39.4961H242.228V37.0841H235.28ZM246.6 30.6401H244.944V30.2261C244.944 29.3981 245.268 28.7201 245.916 28.1921C246.576 27.6641 247.416 27.4001 248.436 27.4001C249.456 27.4001 250.29 27.6641 250.938 28.1921C251.586 28.7081 251.91 29.3861 251.91 30.2261V37.0841H250.272V36.2201C249.54 36.8921 248.67 37.2281 247.662 37.2281C246.822 37.2281 246.144 37.0121 245.628 36.5801C245.112 36.1361 244.854 35.5301 244.854 34.7621V34.1861C244.854 33.3941 245.172 32.7641 245.808 32.2961C246.456 31.8161 247.308 31.5521 248.364 31.5041L250.272 31.4141V30.1181C250.272 29.6981 250.098 29.3561 249.75 29.0921C249.402 28.8281 248.964 28.6961 248.436 28.6961C247.896 28.6961 247.452 28.8281 247.104 29.0921C246.768 29.3441 246.6 29.6861 246.6 30.1181V30.6401ZM250.272 34.6361V32.7101L248.382 32.8001C247.794 32.8361 247.332 32.9681 246.996 33.1961C246.672 33.4241 246.51 33.7241 246.51 34.0961V34.7621C246.51 35.1221 246.672 35.4101 246.996 35.6261C247.32 35.8301 247.746 35.9321 248.274 35.9321C248.85 35.9321 249.324 35.8121 249.696 35.5721C250.08 35.3201 250.272 35.0081 250.272 34.6361ZM253.484 28.3361V24.4841H254.888V28.3361H253.484ZM256.04 28.3361V24.4841H257.444V28.3361H256.04Z" fill="#fff"/></svg>