<svg width="242" height="57" viewBox="0 0 242 57" fill="none" xmlns="http://www.w3.org/2000/svg"><path d="M6.459 0.399999V1.822H1.977V13H0.212998V0.399999H6.459ZM8.01769 13V0.399999H9.78169V13H8.01769ZM14.5337 13L9.87169 6.466L14.2277 0.399999H16.1897L11.8337 6.484L16.5137 13H14.5337ZM19.7836 13H18.0196V0.399999H26.4076V13H24.6436V1.822H19.7836V13ZM38.094 13V8.752H34.332V13H32.694V3.46H34.332V7.456H38.094V3.46H39.732V13H38.094ZM43.4688 6.556H41.8128V6.142C41.8128 5.314 42.1368 4.636 42.7848 4.108C43.4448 3.58 44.2848 3.316 45.3048 3.316C46.3248 3.316 47.1588 3.58 47.8068 4.108C48.4548 4.624 48.7788 5.302 48.7788 6.142V13H47.1408V12.136C46.4088 12.808 45.5388 13.144 44.5308 13.144C43.6908 13.144 43.0128 12.928 42.4968 12.496C41.9808 12.052 41.7228 11.446 41.7228 10.678V10.102C41.7228 9.31 42.0408 8.68 42.6768 8.212C43.3248 7.732 44.1768 7.468 45.2328 7.42L47.1408 7.33V6.034C47.1408 5.614 46.9668 5.272 46.6188 5.008C46.2708 4.744 45.8328 4.612 45.3048 4.612C44.7648 4.612 44.3208 4.744 43.9728 5.008C43.6368 5.26 43.4688 5.602 43.4688 6.034V6.556ZM47.1408 10.552V8.626L45.2508 8.716C44.6628 8.752 44.2008 8.884 43.8648 9.112C43.5408 9.34 43.3788 9.64 43.3788 10.012V10.678C43.3788 11.038 43.5408 11.326 43.8648 11.542C44.1888 11.746 44.6148 11.848 45.1428 11.848C45.7188 11.848 46.1928 11.728 46.5648 11.488C46.9488 11.236 47.1408 10.924 47.1408 10.552ZM56.768 13H55.004V0.399999H63.392V13H61.628V1.822H56.768V13ZM72.1472 0.399999H74.1092L70.6352 6.538L74.3072 13H72.3452L69.5912 8.14L66.8732 13H64.9112L68.5832 6.538L65.1272 0.399999H67.0712L69.6092 4.936L72.1472 0.399999ZM75.8165 13V0.399999H79.4885C80.7245 0.399999 81.7205 0.675999 82.4765 1.228C83.2325 1.768 83.6105 2.47 83.6105 3.334V4C83.6105 5.104 83.0345 5.932 81.8825 6.484C82.5545 6.736 83.0765 7.108 83.4485 7.6C83.8205 8.08 84.0065 8.632 84.0065 9.256V9.886C84.0065 10.81 83.6285 11.56 82.8725 12.136C82.1285 12.712 81.1325 13 79.8845 13H75.8165ZM79.8305 7.258H77.5805V11.596H79.8305C80.5745 11.596 81.1625 11.44 81.5945 11.128C82.0265 10.804 82.2425 10.384 82.2425 9.868V9.112C82.2425 8.56 82.0265 8.116 81.5945 7.78C81.1625 7.432 80.5745 7.258 79.8305 7.258ZM79.4345 1.822H77.5805V5.836H79.4345C80.1785 5.836 80.7665 5.68 81.1985 5.368C81.6305 5.044 81.8465 4.63 81.8465 4.126V3.388C81.8465 2.932 81.6305 2.56 81.1985 2.272C80.7665 1.972 80.1785 1.822 79.4345 1.822ZM89.4286 4.252V0.399999H90.8326V4.252H89.4286ZM91.9846 4.252V0.399999H93.3886V4.252H91.9846ZM102.381 11.596V13H95.4513V0.399999H102.381V1.822H97.2153V5.962H101.859V7.384H97.2153V11.596H102.381ZM109.725 13V8.752H105.963V13H104.325V3.46H105.963V7.456H109.725V3.46H111.363V13H109.725ZM119.654 12.37C118.994 12.886 118.142 13.144 117.098 13.144C116.054 13.144 115.196 12.886 114.524 12.37C113.864 11.842 113.534 11.158 113.534 10.318V3.73C113.534 2.866 113.786 2.158 114.29 1.606C114.806 1.042 115.538 0.712 116.486 0.616L120.068 0.219999L120.248 1.57L116.864 2.002C116.324 2.062 115.904 2.242 115.604 2.542C115.316 2.83 115.172 3.226 115.172 3.73V4.504C115.76 3.892 116.618 3.586 117.746 3.586C118.61 3.586 119.312 3.832 119.852 4.324C120.392 4.804 120.662 5.44 120.662 6.232V10.318C120.662 11.158 120.326 11.842 119.654 12.37ZM115.712 11.452C116.072 11.716 116.534 11.848 117.098 11.848C117.662 11.848 118.124 11.722 118.484 11.47C118.844 11.206 119.024 10.858 119.024 10.426V6.232C119.024 5.848 118.844 5.53 118.484 5.278C118.136 5.014 117.686 4.882 117.134 4.882C116.57 4.882 116.102 4.996 115.73 5.224C115.37 5.44 115.184 5.734 115.172 6.106V10.426C115.172 10.846 115.352 11.188 115.712 11.452ZM122.638 10.318V6.142C122.638 5.302 122.968 4.624 123.628 4.108C124.3 3.58 125.158 3.316 126.202 3.316C127.246 3.316 128.098 3.58 128.758 4.108C129.43 4.624 129.766 5.302 129.766 6.142V8.824H124.276V10.426C124.276 10.858 124.45 11.206 124.798 11.47C125.158 11.722 125.626 11.848 126.202 11.848C126.766 11.848 127.228 11.722 127.588 11.47C127.948 11.206 128.128 10.858 128.128 10.426V10.03H129.766V10.318C129.766 11.158 129.43 11.842 128.758 12.37C128.098 12.886 127.246 13.144 126.202 13.144C125.158 13.144 124.3 12.886 123.628 12.37C122.968 11.842 122.638 11.158 122.638 10.318ZM126.202 4.612C125.626 4.612 125.158 4.744 124.798 5.008C124.45 5.26 124.276 5.602 124.276 6.034V7.528H128.128V6.034C128.128 5.602 127.948 5.26 127.588 5.008C127.228 4.744 126.766 4.612 126.202 4.612ZM131.782 13V3.46H133.42V8.032L136.93 3.46H138.802L135.202 8.068L139.126 13H137.254L133.42 8.122V13H131.782ZM140.448 13V3.46H142.086V11.704H145.542V3.46H147.198V11.704H150.654V3.46H152.292V13H140.448ZM160.161 13V6.34L155.877 13H154.563V3.46H156.201V10.138L160.485 3.46H161.799V13H160.161ZM164.073 13V3.46H165.711V8.032L169.221 3.46H171.093L167.493 8.068L171.417 13H169.545L165.711 8.122V13H164.073ZM174.057 6.556H172.401V6.142C172.401 5.314 172.725 4.636 173.373 4.108C174.033 3.58 174.873 3.316 175.893 3.316C176.913 3.316 177.747 3.58 178.395 4.108C179.043 4.624 179.367 5.302 179.367 6.142V13H177.729V12.136C176.997 12.808 176.127 13.144 175.119 13.144C174.279 13.144 173.601 12.928 173.085 12.496C172.569 12.052 172.311 11.446 172.311 10.678V10.102C172.311 9.31 172.629 8.68 173.265 8.212C173.913 7.732 174.765 7.468 175.821 7.42L177.729 7.33V6.034C177.729 5.614 177.555 5.272 177.207 5.008C176.859 4.744 176.421 4.612 175.893 4.612C175.353 4.612 174.909 4.744 174.561 5.008C174.225 5.26 174.057 5.602 174.057 6.034V6.556ZM177.729 10.552V8.626L175.839 8.716C175.251 8.752 174.789 8.884 174.453 9.112C174.129 9.34 173.967 9.64 173.967 10.012V10.678C173.967 11.038 174.129 11.326 174.453 11.542C174.777 11.746 175.203 11.848 175.731 11.848C176.307 11.848 176.781 11.728 177.153 11.488C177.537 11.236 177.729 10.924 177.729 10.552ZM184.713 3.316C185.697 3.316 186.489 3.532 187.089 3.964C187.701 4.396 188.007 4.966 188.007 5.674V6.232C188.007 7.024 187.569 7.642 186.693 8.086C187.797 8.506 188.349 9.19 188.349 10.138V10.714C188.349 11.434 188.007 12.022 187.323 12.478C186.651 12.922 185.793 13.144 184.749 13.144C183.669 13.144 182.799 12.904 182.139 12.424C181.479 11.932 181.149 11.29 181.149 10.498V10.03H182.805V10.498C182.805 10.906 182.979 11.236 183.327 11.488C183.687 11.728 184.155 11.848 184.731 11.848C185.307 11.848 185.781 11.734 186.153 11.506C186.525 11.278 186.711 10.972 186.711 10.588V10.084C186.711 9.7 186.543 9.388 186.207 9.148C185.883 8.908 185.469 8.788 184.965 8.788H183.651V7.492H184.605C185.109 7.492 185.523 7.384 185.847 7.168C186.183 6.94 186.351 6.646 186.351 6.286V5.8C186.351 5.44 186.195 5.152 185.883 4.936C185.571 4.72 185.163 4.612 184.659 4.612C184.119 4.612 183.675 4.738 183.327 4.99C182.979 5.23 182.805 5.554 182.805 5.962V6.43H181.149V5.962C181.149 5.182 181.479 4.546 182.139 4.054C182.811 3.562 183.669 3.316 184.713 3.316ZM191.635 6.556H189.979V6.142C189.979 5.314 190.303 4.636 190.951 4.108C191.611 3.58 192.451 3.316 193.471 3.316C194.491 3.316 195.325 3.58 195.973 4.108C196.621 4.624 196.945 5.302 196.945 6.142V13H195.307V12.136C194.575 12.808 193.705 13.144 192.697 13.144C191.857 13.144 191.179 12.928 190.663 12.496C190.147 12.052 189.889 11.446 189.889 10.678V10.102C189.889 9.31 190.207 8.68 190.843 8.212C191.491 7.732 192.343 7.468 193.399 7.42L195.307 7.33V6.034C195.307 5.614 195.133 5.272 194.785 5.008C194.437 4.744 193.999 4.612 193.471 4.612C192.931 4.612 192.487 4.744 192.139 5.008C191.803 5.26 191.635 5.602 191.635 6.034V6.556ZM195.307 10.552V8.626L193.417 8.716C192.829 8.752 192.367 8.884 192.031 9.112C191.707 9.34 191.545 9.64 191.545 10.012V10.678C191.545 11.038 191.707 11.326 192.031 11.542C192.355 11.746 192.781 11.848 193.309 11.848C193.885 11.848 194.359 11.728 194.731 11.488C195.115 11.236 195.307 10.924 195.307 10.552ZM204.199 13L202.057 9.382L199.915 13H198.205L201.139 8.068L198.421 3.46H200.131L202.057 6.754L203.983 3.46H205.693L202.957 8.068L205.909 13H204.199ZM212.397 6.664V6.034C212.397 5.602 212.217 5.26 211.857 5.008C211.497 4.744 211.035 4.612 210.471 4.612C209.895 4.612 209.427 4.744 209.067 5.008C208.719 5.26 208.545 5.602 208.545 6.034V10.426C208.545 10.858 208.719 11.206 209.067 11.47C209.427 11.722 209.895 11.848 210.471 11.848C211.035 11.848 211.497 11.722 211.857 11.47C212.217 11.206 212.397 10.858 212.397 10.426V9.796H214.035V10.318C214.035 11.158 213.699 11.842 213.027 12.37C212.367 12.886 211.515 13.144 210.471 13.144C209.427 13.144 208.569 12.886 207.897 12.37C207.237 11.842 206.907 11.158 206.907 10.318V6.142C206.907 5.302 207.237 4.624 207.897 4.108C208.569 3.58 209.427 3.316 210.471 3.316C211.515 3.316 212.367 3.58 213.027 4.108C213.699 4.624 214.035 5.302 214.035 6.142V6.664H212.397ZM215.999 13V3.46H217.637V8.032L221.147 3.46H223.019L219.419 8.068L223.343 13H221.471L217.637 8.122V13H215.999ZM225.982 6.556H224.326V6.142C224.326 5.314 224.65 4.636 225.298 4.108C225.958 3.58 226.798 3.316 227.818 3.316C228.838 3.316 229.672 3.58 230.32 4.108C230.968 4.624 231.292 5.302 231.292 6.142V13H229.654V12.136C228.922 12.808 228.052 13.144 227.044 13.144C226.204 13.144 225.526 12.928 225.01 12.496C224.494 12.052 224.236 11.446 224.236 10.678V10.102C224.236 9.31 224.554 8.68 225.19 8.212C225.838 7.732 226.69 7.468 227.746 7.42L229.654 7.33V6.034C229.654 5.614 229.48 5.272 229.132 5.008C228.784 4.744 228.346 4.612 227.818 4.612C227.278 4.612 226.834 4.744 226.486 5.008C226.15 5.26 225.982 5.602 225.982 6.034V6.556ZM229.654 10.552V8.626L227.764 8.716C227.176 8.752 226.714 8.884 226.378 9.112C226.054 9.34 225.892 9.64 225.892 10.012V10.678C225.892 11.038 226.054 11.326 226.378 11.542C226.702 11.746 227.128 11.848 227.656 11.848C228.232 11.848 228.706 11.728 229.078 11.488C229.462 11.236 229.654 10.924 229.654 10.552ZM239.95 3.46V13H238.294V9.292H236.71L234.532 13H232.894L235.144 9.076C234.52 8.884 234.028 8.572 233.668 8.14C233.32 7.708 233.146 7.186 233.146 6.574V6.178C233.146 5.35 233.464 4.69 234.1 4.198C234.748 3.706 235.594 3.46 236.638 3.46H239.95ZM234.784 6.664C234.784 7.084 234.952 7.414 235.288 7.654C235.624 7.882 236.08 7.996 236.656 7.996H238.294V4.756H236.656C236.08 4.756 235.624 4.876 235.288 5.116C234.952 5.344 234.784 5.662 234.784 6.07V6.664ZM0.0689976 33V23.46H1.401L4.677 29.472L7.917 23.46H9.267V33H7.773V26.574L5.073 31.596H4.263L1.563 26.574V33H0.0689976ZM16.9299 33V28.752H13.1679V33H11.5299V23.46H13.1679V27.456H16.9299V23.46H18.5679V33H16.9299ZM27.8128 30.318C27.8128 31.158 27.4768 31.842 26.8048 32.37C26.1448 32.886 25.2928 33.144 24.2488 33.144C23.2048 33.144 22.3468 32.886 21.6748 32.37C21.0148 31.842 20.6848 31.158 20.6848 30.318V26.142C20.6848 25.302 21.0148 24.624 21.6748 24.108C22.3468 23.58 23.2048 23.316 24.2488 23.316C25.2928 23.316 26.1448 23.58 26.8048 24.108C27.4768 24.624 27.8128 25.302 27.8128 26.142V30.318ZM26.1748 30.426V26.034C26.1748 25.602 25.9948 25.26 25.6348 25.008C25.2748 24.744 24.8128 24.612 24.2488 24.612C23.6728 24.612 23.2048 24.744 22.8448 25.008C22.4968 25.26 22.3228 25.602 22.3228 26.034V30.426C22.3228 30.858 22.4968 31.206 22.8448 31.47C23.2048 31.722 23.6728 31.848 24.2488 31.848C24.8128 31.848 25.2748 31.722 25.6348 31.47C25.9948 31.206 26.1748 30.858 26.1748 30.426ZM29.9342 33V23.46H35.4422V24.756H31.5722V33H29.9342ZM43.7561 30.318C43.7561 31.158 43.4201 31.842 42.7481 32.37C42.0881 32.886 41.2361 33.144 40.1921 33.144C39.1481 33.144 38.2901 32.886 37.6181 32.37C36.9581 31.842 36.6281 31.158 36.6281 30.318V26.142C36.6281 25.302 36.9581 24.624 37.6181 24.108C38.2901 23.58 39.1481 23.316 40.1921 23.316C41.2361 23.316 42.0881 23.58 42.7481 24.108C43.4201 24.624 43.7561 25.302 43.7561 26.142V30.318ZM42.1181 30.426V26.034C42.1181 25.602 41.9381 25.26 41.5781 25.008C41.2181 24.744 40.7561 24.612 40.1921 24.612C39.6161 24.612 39.1481 24.744 38.7881 25.008C38.4401 25.26 38.2661 25.602 38.2661 26.034V30.426C38.2661 30.858 38.4401 31.206 38.7881 31.47C39.1481 31.722 39.6161 31.848 40.1921 31.848C40.7561 31.848 41.2181 31.722 41.5781 31.47C41.9381 31.206 42.1181 30.858 42.1181 30.426ZM51.2776 33V24.756H47.5156V33H45.8776V23.46H52.9156V33H51.2776ZM55.1764 36.6V23.46H56.8144V24.288C57.5224 23.64 58.3564 23.316 59.3164 23.316C60.1804 23.316 60.8764 23.556 61.4044 24.036C61.9444 24.516 62.2144 25.158 62.2144 25.962V30.498C62.2144 31.302 61.9444 31.944 61.4044 32.424C60.8764 32.904 60.1804 33.144 59.3164 33.144C58.3684 33.144 57.5344 32.826 56.8144 32.19V36.6H55.1764ZM58.7044 31.848C59.2564 31.848 59.7064 31.722 60.0544 31.47C60.4024 31.206 60.5764 30.882 60.5764 30.498V25.962C60.5764 25.578 60.4024 25.26 60.0544 25.008C59.7064 24.744 59.2564 24.612 58.7044 24.612C58.1644 24.612 57.7144 24.732 57.3544 24.972C56.9944 25.212 56.8144 25.524 56.8144 25.908V30.624C56.8264 30.996 57.0124 31.296 57.3724 31.524C57.7324 31.74 58.1764 31.848 58.7044 31.848ZM71.3186 30.318C71.3186 31.158 70.9826 31.842 70.3106 32.37C69.6506 32.886 68.7986 33.144 67.7546 33.144C66.7106 33.144 65.8526 32.886 65.1806 32.37C64.5206 31.842 64.1906 31.158 64.1906 30.318V26.142C64.1906 25.302 64.5206 24.624 65.1806 24.108C65.8526 23.58 66.7106 23.316 67.7546 23.316C68.7986 23.316 69.6506 23.58 70.3106 24.108C70.9826 24.624 71.3186 25.302 71.3186 26.142V30.318ZM69.6806 30.426V26.034C69.6806 25.602 69.5006 25.26 69.1406 25.008C68.7806 24.744 68.3186 24.612 67.7546 24.612C67.1786 24.612 66.7106 24.744 66.3506 25.008C66.0026 25.26 65.8286 25.602 65.8286 26.034V30.426C65.8286 30.858 66.0026 31.206 66.3506 31.47C66.7106 31.722 67.1786 31.848 67.7546 31.848C68.3186 31.848 68.7806 31.722 69.1406 31.47C69.5006 31.206 69.6806 30.858 69.6806 30.426ZM78.0481 36.6V32.28C77.4241 32.856 76.7041 33.144 75.8881 33.144C75.1081 33.144 74.4781 32.904 73.9981 32.424C73.5301 31.944 73.2961 31.302 73.2961 30.498V25.962C73.2961 25.158 73.5301 24.516 73.9981 24.036C74.4781 23.556 75.1081 23.316 75.8881 23.316C76.7041 23.316 77.4241 23.604 78.0481 24.18V20.4H79.7041V24.162C80.3281 23.598 81.0481 23.316 81.8641 23.316C82.6321 23.316 83.2561 23.562 83.7361 24.054C84.2161 24.534 84.4561 25.17 84.4561 25.962V30.498C84.4561 31.29 84.2161 31.932 83.7361 32.424C83.2561 32.904 82.6321 33.144 81.8641 33.144C81.0241 33.144 80.3041 32.862 79.7041 32.298V36.6H78.0481ZM76.5001 31.848C76.9441 31.848 77.3101 31.728 77.5981 31.488C77.8981 31.248 78.0481 30.936 78.0481 30.552V25.908C78.0481 25.512 77.8981 25.2 77.5981 24.972C77.3101 24.732 76.9381 24.612 76.4821 24.612C76.0261 24.612 75.6541 24.738 75.3661 24.99C75.0781 25.242 74.9341 25.566 74.9341 25.962V30.498C74.9341 30.882 75.0781 31.206 75.3661 31.47C75.6661 31.722 76.0441 31.848 76.5001 31.848ZM81.2521 31.848C81.7081 31.848 82.0801 31.722 82.3681 31.47C82.6561 31.206 82.8001 30.882 82.8001 30.498V25.962C82.8001 25.578 82.6561 25.26 82.3681 25.008C82.0801 24.744 81.7081 24.612 81.2521 24.612C80.8081 24.612 80.4361 24.732 80.1361 24.972C79.8481 25.212 79.7041 25.524 79.7041 25.908V30.552C79.7041 30.936 79.8481 31.248 80.1361 31.488C80.4361 31.728 80.8081 31.848 81.2521 31.848ZM92.1338 33V26.34L87.8498 33H86.5358V23.46H88.1738V30.138L92.4578 23.46H93.7718V33H92.1338ZM95.1096 31.758H95.4516C95.8116 31.758 96.0876 31.614 96.2796 31.326C96.4836 31.026 96.6456 30.384 96.7656 29.4C96.8856 28.404 96.9456 26.976 96.9456 25.116V23.46H103.192V33H101.554V24.756H98.4756V25.116C98.4756 27.408 98.3676 29.13 98.1516 30.282C97.9476 31.422 97.6416 32.172 97.2336 32.532C96.8376 32.88 96.2436 33.054 95.4516 33.054H95.1096V31.758ZM105.467 33V23.46H107.105V26.898H108.833C109.877 26.898 110.717 27.156 111.353 27.672C112.001 28.176 112.325 28.848 112.325 29.688V30.21C112.325 31.05 112.001 31.728 111.353 32.244C110.717 32.748 109.877 33 108.833 33H105.467ZM108.797 28.194H107.105V31.704H108.797C109.373 31.704 109.829 31.578 110.165 31.326C110.513 31.074 110.687 30.732 110.687 30.3V29.58C110.687 29.16 110.513 28.824 110.165 28.572C109.829 28.32 109.373 28.194 108.797 28.194ZM119.375 33V28.752H115.613V33H113.975V23.46H115.613V27.456H119.375V23.46H121.013V33H119.375ZM124.75 26.556H123.094V26.142C123.094 25.314 123.418 24.636 124.066 24.108C124.726 23.58 125.566 23.316 126.586 23.316C127.606 23.316 128.44 23.58 129.088 24.108C129.736 24.624 130.06 25.302 130.06 26.142V33H128.422V32.136C127.69 32.808 126.82 33.144 125.812 33.144C124.972 33.144 124.294 32.928 123.778 32.496C123.262 32.052 123.004 31.446 123.004 30.678V30.102C123.004 29.31 123.322 28.68 123.958 28.212C124.606 27.732 125.458 27.468 126.514 27.42L128.422 27.33V26.034C128.422 25.614 128.248 25.272 127.9 25.008C127.552 24.744 127.114 24.612 126.586 24.612C126.046 24.612 125.602 24.744 125.254 25.008C124.918 25.26 124.75 25.602 124.75 26.034V26.556ZM128.422 30.552V28.626L126.532 28.716C125.944 28.752 125.482 28.884 125.146 29.112C124.822 29.34 124.66 29.64 124.66 30.012V30.678C124.66 31.038 124.822 31.326 125.146 31.542C125.47 31.746 125.896 31.848 126.424 31.848C127 31.848 127.474 31.728 127.846 31.488C128.23 31.236 128.422 30.924 128.422 30.552ZM138.718 23.46V33H137.062V29.292H135.478L133.3 33H131.662L133.912 29.076C133.288 28.884 132.796 28.572 132.436 28.14C132.088 27.708 131.914 27.186 131.914 26.574V26.178C131.914 25.35 132.232 24.69 132.868 24.198C133.516 23.706 134.362 23.46 135.406 23.46H138.718ZM133.552 26.664C133.552 27.084 133.72 27.414 134.056 27.654C134.392 27.882 134.848 27.996 135.424 27.996H137.062V24.756H135.424C134.848 24.756 134.392 24.876 134.056 25.116C133.72 25.344 133.552 25.662 133.552 26.07V26.664ZM144.86 33V23.46H146.498V31.704H150.26V23.46H151.898V31.704H153.464V35.412H151.808V33H144.86ZM154.419 30.318V26.142C154.419 25.302 154.749 24.624 155.409 24.108C156.081 23.58 156.939 23.316 157.983 23.316C159.027 23.316 159.879 23.58 160.539 24.108C161.211 24.624 161.547 25.302 161.547 26.142V28.824H156.057V30.426C156.057 30.858 156.231 31.206 156.579 31.47C156.939 31.722 157.407 31.848 157.983 31.848C158.547 31.848 159.009 31.722 159.369 31.47C159.729 31.206 159.909 30.858 159.909 30.426V30.03H161.547V30.318C161.547 31.158 161.211 31.842 160.539 32.37C159.879 32.886 159.027 33.144 157.983 33.144C156.939 33.144 156.081 32.886 155.409 32.37C154.749 31.842 154.419 31.158 154.419 30.318ZM157.983 24.612C157.407 24.612 156.939 24.744 156.579 25.008C156.231 25.26 156.057 25.602 156.057 26.034V27.528H159.909V26.034C159.909 25.602 159.729 25.26 159.369 25.008C159.009 24.744 158.547 24.612 157.983 24.612ZM168.963 33V28.752H165.201V33H163.563V23.46H165.201V27.456H168.963V23.46H170.601V33H168.963ZM172.178 24.756V23.46H179.576V24.756H176.696V33H175.058V24.756H172.178ZM181.159 36.6V23.46H182.797V24.288C183.505 23.64 184.339 23.316 185.299 23.316C186.163 23.316 186.859 23.556 187.387 24.036C187.927 24.516 188.197 25.158 188.197 25.962V30.498C188.197 31.302 187.927 31.944 187.387 32.424C186.859 32.904 186.163 33.144 185.299 33.144C184.351 33.144 183.517 32.826 182.797 32.19V36.6H181.159ZM184.687 31.848C185.239 31.848 185.689 31.722 186.037 31.47C186.385 31.206 186.559 30.882 186.559 30.498V25.962C186.559 25.578 186.385 25.26 186.037 25.008C185.689 24.744 185.239 24.612 184.687 24.612C184.147 24.612 183.697 24.732 183.337 24.972C182.977 25.212 182.797 25.524 182.797 25.908V30.624C182.809 30.996 182.995 31.296 183.355 31.524C183.715 31.74 184.159 31.848 184.687 31.848ZM191.688 26.556H190.032V26.142C190.032 25.314 190.356 24.636 191.004 24.108C191.664 23.58 192.504 23.316 193.524 23.316C194.544 23.316 195.378 23.58 196.026 24.108C196.674 24.624 196.998 25.302 196.998 26.142V33H195.36V32.136C194.628 32.808 193.758 33.144 192.75 33.144C191.91 33.144 191.232 32.928 190.716 32.496C190.2 32.052 189.942 31.446 189.942 30.678V30.102C189.942 29.31 190.26 28.68 190.896 28.212C191.544 27.732 192.396 27.468 193.452 27.42L195.36 27.33V26.034C195.36 25.614 195.186 25.272 194.838 25.008C194.49 24.744 194.052 24.612 193.524 24.612C192.984 24.612 192.54 24.744 192.192 25.008C191.856 25.26 191.688 25.602 191.688 26.034V26.556ZM195.36 30.552V28.626L193.47 28.716C192.882 28.752 192.42 28.884 192.084 29.112C191.76 29.34 191.598 29.64 191.598 30.012V30.678C191.598 31.038 191.76 31.326 192.084 31.542C192.408 31.746 192.834 31.848 193.362 31.848C193.938 31.848 194.412 31.728 194.784 31.488C195.168 31.236 195.36 30.924 195.36 30.552ZM198.276 31.758H198.618C198.978 31.758 199.254 31.614 199.446 31.326C199.65 31.026 199.812 30.384 199.932 29.4C200.052 28.404 200.112 26.976 200.112 25.116V23.46H206.358V33H204.72V24.756H201.642V25.116C201.642 27.408 201.534 29.13 201.318 30.282C201.114 31.422 200.808 32.172 200.4 32.532C200.004 32.88 199.41 33.054 198.618 33.054H198.276V31.758ZM208.633 33V23.46H210.271V26.898H211.999C213.043 26.898 213.883 27.156 214.519 27.672C215.167 28.176 215.491 28.848 215.491 29.688V30.21C215.491 31.05 215.167 31.728 214.519 32.244C213.883 32.748 213.043 33 211.999 33H208.633ZM211.963 28.194H210.271V31.704H211.963C212.539 31.704 212.995 31.578 213.331 31.326C213.679 31.074 213.853 30.732 213.853 30.3V29.58C213.853 29.16 213.679 28.824 213.331 28.572C212.995 28.32 212.539 28.194 211.963 28.194ZM222.541 33V28.752H218.779V33H217.141V23.46H218.779V27.456H222.541V23.46H224.179V33H222.541ZM227.916 26.556H226.26V26.142C226.26 25.314 226.584 24.636 227.232 24.108C227.892 23.58 228.732 23.316 229.752 23.316C230.772 23.316 231.606 23.58 232.254 24.108C232.902 24.624 233.226 25.302 233.226 26.142V33H231.588V32.136C230.856 32.808 229.986 33.144 228.978 33.144C228.138 33.144 227.46 32.928 226.944 32.496C226.428 32.052 226.17 31.446 226.17 30.678V30.102C226.17 29.31 226.488 28.68 227.124 28.212C227.772 27.732 228.624 27.468 229.68 27.42L231.588 27.33V26.034C231.588 25.614 231.414 25.272 231.066 25.008C230.718 24.744 230.28 24.612 229.752 24.612C229.212 24.612 228.768 24.744 228.42 25.008C228.084 25.26 227.916 25.602 227.916 26.034V26.556ZM231.588 30.552V28.626L229.698 28.716C229.11 28.752 228.648 28.884 228.312 29.112C227.988 29.34 227.826 29.64 227.826 30.012V30.678C227.826 31.038 227.988 31.326 228.312 31.542C228.636 31.746 229.062 31.848 229.59 31.848C230.166 31.848 230.64 31.728 231.012 31.488C231.396 31.236 231.588 30.924 231.588 30.552ZM241.884 23.46V33H240.228V29.292H238.644L236.466 33H234.828L237.078 29.076C236.454 28.884 235.962 28.572 235.602 28.14C235.254 27.708 235.08 27.186 235.08 26.574V26.178C235.08 25.35 235.398 24.69 236.034 24.198C236.682 23.706 237.528 23.46 238.572 23.46H241.884ZM236.718 26.664C236.718 27.084 236.886 27.414 237.222 27.654C237.558 27.882 238.014 27.996 238.59 27.996H240.228V24.756H238.59C238.014 24.756 237.558 24.876 237.222 25.116C236.886 25.344 236.718 25.662 236.718 26.07V26.664ZM0.0689976 56.6V43.46H1.707V44.288C2.415 43.64 3.249 43.316 4.209 43.316C5.073 43.316 5.769 43.556 6.297 44.036C6.837 44.516 7.107 45.158 7.107 45.962V50.498C7.107 51.302 6.837 51.944 6.297 52.424C5.769 52.904 5.073 53.144 4.209 53.144C3.261 53.144 2.427 52.826 1.707 52.19V56.6H0.0689976ZM3.597 51.848C4.149 51.848 4.599 51.722 4.947 51.47C5.295 51.206 5.469 50.882 5.469 50.498V45.962C5.469 45.578 5.295 45.26 4.947 45.008C4.599 44.744 4.149 44.612 3.597 44.612C3.057 44.612 2.607 44.732 2.247 44.972C1.887 45.212 1.707 45.524 1.707 45.908V50.624C1.719 50.996 1.905 51.296 2.265 51.524C2.625 51.74 3.069 51.848 3.597 51.848ZM10.5977 46.556H8.94173V46.142C8.94173 45.314 9.26573 44.636 9.91373 44.108C10.5737 43.58 11.4137 43.316 12.4337 43.316C13.4537 43.316 14.2877 43.58 14.9357 44.108C15.5837 44.624 15.9077 45.302 15.9077 46.142V53H14.2697V52.136C13.5377 52.808 12.6677 53.144 11.6597 53.144C10.8197 53.144 10.1417 52.928 9.62573 52.496C9.10973 52.052 8.85173 51.446 8.85173 50.678V50.102C8.85173 49.31 9.16973 48.68 9.80573 48.212C10.4537 47.732 11.3057 47.468 12.3617 47.42L14.2697 47.33V46.034C14.2697 45.614 14.0957 45.272 13.7477 45.008C13.3997 44.744 12.9617 44.612 12.4337 44.612C11.8937 44.612 11.4497 44.744 11.1017 45.008C10.7657 45.26 10.5977 45.602 10.5977 46.034V46.556ZM14.2697 50.552V48.626L12.3797 48.716C11.7917 48.752 11.3297 48.884 10.9937 49.112C10.6697 49.34 10.5077 49.64 10.5077 50.012V50.678C10.5077 51.038 10.6697 51.326 10.9937 51.542C11.3177 51.746 11.7437 51.848 12.2717 51.848C12.8477 51.848 13.3217 51.728 13.6937 51.488C14.0777 51.236 14.2697 50.924 14.2697 50.552ZM23.7197 53V46.34L19.4357 53H18.1217V43.46H19.7597V50.138L24.0437 43.46H25.3577V53H23.7197ZM23.0177 40.22H24.2777V40.526C24.2777 41.09 24.0377 41.552 23.5577 41.912C23.0897 42.272 22.4897 42.452 21.7577 42.452C21.0257 42.452 20.4257 42.272 19.9577 41.912C19.4897 41.552 19.2557 41.09 19.2557 40.526V40.22H20.5157V40.688C20.5157 40.904 20.6297 41.09 20.8577 41.246C21.0977 41.39 21.3977 41.462 21.7577 41.462C22.1177 41.462 22.4177 41.39 22.6577 41.246C22.8977 41.09 23.0177 40.904 23.0177 40.688V40.22ZM34.6155 50.318C34.6155 51.158 34.2795 51.842 33.6075 52.37C32.9475 52.886 32.0955 53.144 31.0515 53.144C30.0075 53.144 29.1495 52.886 28.4775 52.37C27.8175 51.842 27.4875 51.158 27.4875 50.318V46.142C27.4875 45.302 27.8175 44.624 28.4775 44.108C29.1495 43.58 30.0075 43.316 31.0515 43.316C32.0955 43.316 32.9475 43.58 33.6075 44.108C34.2795 44.624 34.6155 45.302 34.6155 46.142V50.318ZM32.9775 50.426V46.034C32.9775 45.602 32.7975 45.26 32.4375 45.008C32.0775 44.744 31.6155 44.612 31.0515 44.612C30.4755 44.612 30.0075 44.744 29.6475 45.008C29.2995 45.26 29.1255 45.602 29.1255 46.034V50.426C29.1255 50.858 29.2995 51.206 29.6475 51.47C30.0075 51.722 30.4755 51.848 31.0515 51.848C31.6155 51.848 32.0775 51.722 32.4375 51.47C32.7975 51.206 32.9775 50.858 32.9775 50.426ZM42.137 53V48.752H38.375V53H36.737V43.46H38.375V47.456H42.137V43.46H43.775V53H42.137ZM51.4358 53V48.752H47.6738V53H46.0358V43.46H47.6738V47.456H51.4358V43.46H53.0738V53H51.4358ZM56.8106 46.556H55.1546V46.142C55.1546 45.314 55.4786 44.636 56.1266 44.108C56.7866 43.58 57.6266 43.316 58.6466 43.316C59.6666 43.316 60.5006 43.58 61.1486 44.108C61.7966 44.624 62.1206 45.302 62.1206 46.142V53H60.4826V52.136C59.7506 52.808 58.8806 53.144 57.8726 53.144C57.0326 53.144 56.3546 52.928 55.8386 52.496C55.3226 52.052 55.0646 51.446 55.0646 50.678V50.102C55.0646 49.31 55.3826 48.68 56.0186 48.212C56.6666 47.732 57.5186 47.468 58.5746 47.42L60.4826 47.33V46.034C60.4826 45.614 60.3086 45.272 59.9606 45.008C59.6126 44.744 59.1746 44.612 58.6466 44.612C58.1066 44.612 57.6626 44.744 57.3146 45.008C56.9786 45.26 56.8106 45.602 56.8106 46.034V46.556ZM60.4826 50.552V48.626L58.5926 48.716C58.0046 48.752 57.5426 48.884 57.2066 49.112C56.8826 49.34 56.7206 49.64 56.7206 50.012V50.678C56.7206 51.038 56.8826 51.326 57.2066 51.542C57.5306 51.746 57.9566 51.848 58.4846 51.848C59.0606 51.848 59.5346 51.728 59.9066 51.488C60.2906 51.236 60.4826 50.924 60.4826 50.552ZM70.7786 43.46V53H69.1226V49.292H67.5386L65.3606 53H63.7226L65.9726 49.076C65.3486 48.884 64.8566 48.572 64.4966 48.14C64.1486 47.708 63.9746 47.186 63.9746 46.574V46.178C63.9746 45.35 64.2926 44.69 64.9286 44.198C65.5766 43.706 66.4226 43.46 67.4666 43.46H70.7786ZM65.6126 46.664C65.6126 47.084 65.7806 47.414 66.1166 47.654C66.4526 47.882 66.9086 47.996 67.4846 47.996H69.1226V44.756H67.4846C66.9086 44.756 66.4526 44.876 66.1166 45.116C65.7806 45.344 65.6126 45.662 65.6126 46.07V46.664ZM82.9506 52.37C82.2906 52.886 81.4386 53.144 80.3946 53.144C79.3506 53.144 78.4926 52.886 77.8206 52.37C77.1606 51.842 76.8306 51.158 76.8306 50.318V43.73C76.8306 42.866 77.0826 42.158 77.5866 41.606C78.1026 41.042 78.8346 40.712 79.7826 40.616L83.3646 40.22L83.5446 41.57L80.1606 42.002C79.6206 42.062 79.2006 42.242 78.9006 42.542C78.6126 42.83 78.4686 43.226 78.4686 43.73V44.504C79.0566 43.892 79.9146 43.586 81.0426 43.586C81.9066 43.586 82.6086 43.832 83.1486 44.324C83.6886 44.804 83.9586 45.44 83.9586 46.232V50.318C83.9586 51.158 83.6226 51.842 82.9506 52.37ZM79.0086 51.452C79.3686 51.716 79.8306 51.848 80.3946 51.848C80.9586 51.848 81.4206 51.722 81.7806 51.47C82.1406 51.206 82.3206 50.858 82.3206 50.426V46.232C82.3206 45.848 82.1406 45.53 81.7806 45.278C81.4326 45.014 80.9826 44.882 80.4306 44.882C79.8666 44.882 79.3986 44.996 79.0266 45.224C78.6666 45.44 78.4806 45.734 78.4686 46.106V50.426C78.4686 50.846 78.6486 51.188 79.0086 51.452ZM93.0628 50.318C93.0628 51.158 92.7268 51.842 92.0548 52.37C91.3948 52.886 90.5428 53.144 89.4988 53.144C88.4548 53.144 87.5968 52.886 86.9248 52.37C86.2648 51.842 85.9348 51.158 85.9348 50.318V46.142C85.9348 45.302 86.2648 44.624 86.9248 44.108C87.5968 43.58 88.4548 43.316 89.4988 43.316C90.5428 43.316 91.3948 43.58 92.0548 44.108C92.7268 44.624 93.0628 45.302 93.0628 46.142V50.318ZM91.4248 50.426V46.034C91.4248 45.602 91.2448 45.26 90.8848 45.008C90.5248 44.744 90.0628 44.612 89.4988 44.612C88.9228 44.612 88.4548 44.744 88.0948 45.008C87.7468 45.26 87.5728 45.602 87.5728 46.034V50.426C87.5728 50.858 87.7468 51.206 88.0948 51.47C88.4548 51.722 88.9228 51.848 89.4988 51.848C90.0628 51.848 90.5248 51.722 90.8848 51.47C91.2448 51.206 91.4248 50.858 91.4248 50.426ZM93.7736 51.758H94.1156C94.4756 51.758 94.7516 51.614 94.9436 51.326C95.1476 51.026 95.3096 50.384 95.4296 49.4C95.5496 48.404 95.6096 46.976 95.6096 45.116V43.46H101.856V53H100.218V44.756H97.1396V45.116C97.1396 47.408 97.0316 49.13 96.8156 50.282C96.6116 51.422 96.3056 52.172 95.8976 52.532C95.5016 52.88 94.9076 53.054 94.1156 53.054H93.7736V51.758ZM104.131 53V43.46H105.769V46.898H107.497C108.541 46.898 109.381 47.156 110.017 47.672C110.665 48.176 110.989 48.848 110.989 49.688V50.21C110.989 51.05 110.665 51.728 110.017 52.244C109.381 52.748 108.541 53 107.497 53H104.131ZM107.461 48.194H105.769V51.704H107.461C108.037 51.704 108.493 51.578 108.829 51.326C109.177 51.074 109.351 50.732 109.351 50.3V49.58C109.351 49.16 109.177 48.824 108.829 48.572C108.493 48.32 108.037 48.194 107.461 48.194ZM118.039 53V48.752H114.277V53H112.639V43.46H114.277V47.456H118.039V43.46H119.677V53H118.039ZM127.536 53V46.34L123.252 53H121.938V43.46H123.576V50.138L127.86 43.46H129.174V53H127.536ZM131.448 53V43.46H133.086V51.704H136.848V43.46H138.486V51.704H140.052V55.412H138.396V53H131.448ZM142.768 46.556H141.112V46.142C141.112 45.314 141.436 44.636 142.084 44.108C142.744 43.58 143.584 43.316 144.604 43.316C145.624 43.316 146.458 43.58 147.106 44.108C147.754 44.624 148.078 45.302 148.078 46.142V53H146.44V52.136C145.708 52.808 144.838 53.144 143.83 53.144C142.99 53.144 142.312 52.928 141.796 52.496C141.28 52.052 141.022 51.446 141.022 50.678V50.102C141.022 49.31 141.34 48.68 141.976 48.212C142.624 47.732 143.476 47.468 144.532 47.42L146.44 47.33V46.034C146.44 45.614 146.266 45.272 145.918 45.008C145.57 44.744 145.132 44.612 144.604 44.612C144.064 44.612 143.62 44.744 143.272 45.008C142.936 45.26 142.768 45.602 142.768 46.034V46.556ZM146.44 50.552V48.626L144.55 48.716C143.962 48.752 143.5 48.884 143.164 49.112C142.84 49.34 142.678 49.64 142.678 50.012V50.678C142.678 51.038 142.84 51.326 143.164 51.542C143.488 51.746 143.914 51.848 144.442 51.848C145.018 51.848 145.492 51.728 145.864 51.488C146.248 51.236 146.44 50.924 146.44 50.552ZM149.651 44.252V40.4H151.055V44.252H149.651ZM152.207 44.252V40.4H153.611V44.252H152.207Z" fill="#fff"/></svg>