<svg width="120" height="121" viewBox="0 0 120 121" fill="none" xmlns="http://www.w3.org/2000/svg"><g clip-path="url(#clip0_13_201)"><path d="M59.9999 118.589C91.9467 118.589 117.845 92.6909 117.845 60.7441C117.845 28.7974 91.9467 2.89948 59.9999 2.89948C28.0532 2.89948 2.15527 28.7974 2.15527 60.7441C2.15527 92.6909 28.0532 118.589 59.9999 118.589Z" fill="url(#paint0_linear_13_201)" stroke="url(#paint1_linear_13_201)" stroke-width="4.311"/><path d="M42.6504 22.7174V14.0456C42.6504 13.5973 42.9241 13.1944 43.3409 13.0291L44.2931 12.6517C55.6725 8.14094 68.3681 8.27867 79.647 13.0353C80.0316 13.1974 80.2815 13.5741 80.2815 13.9914V37.5678C80.2815 39.42 79.5341 41.1938 78.2085 42.4873L72.9336 46.4541C72.891 46.4958 72.8237 46.4985 72.7777 46.4607C69.7445 43.9773 65.8667 42.4873 61.6407 42.4873C56.125 42.4873 51.2021 45.0257 47.9765 48.9981C48.7601 46.084 49.1454 42.8909 48.851 39.5212C48.79 38.8229 48.994 38.2187 49.423 37.9115C49.965 37.5235 50.5048 37.3285 51.1408 37.3052C51.562 37.2898 51.9295 36.8811 51.7888 36.4086C51.4403 35.2398 50.6232 33.6993 48.9668 32.7348C48.689 32.573 48.3905 32.4291 48.0702 32.3067C48.4003 32.2021 48.6278 31.8591 48.5411 31.4832C48.1845 29.9353 47.8442 27.8669 47.6691 25.8149C47.493 23.752 47.4887 21.7554 47.7777 20.3285C47.882 19.8129 47.3697 19.3064 46.8164 19.5516C45.8615 19.9748 44.149 21.0785 42.6504 22.7174Z" fill="#fff"/><path d="M42.6504 28.0931V24.553C42.6867 24.5031 42.7233 24.4536 42.7604 24.4044C43.9358 22.8441 45.4274 21.6852 46.4892 21.0432C46.3251 22.4847 46.3629 24.2105 46.5082 25.914C46.6661 27.7643 46.9544 29.6272 47.2725 31.1388C46.2083 31.0875 44.9062 31.0745 44.1476 31.0711C44.1472 30.6259 44.1651 29.9763 44.216 29.2741C44.2893 28.2634 44.4267 27.2095 44.6515 26.5164C44.7221 26.2988 44.7053 25.9484 44.4022 25.7403C44.2474 25.634 44.0525 25.5999 43.8671 25.6519C43.6901 25.7015 43.57 25.8144 43.4977 25.9159C43.1587 26.3921 42.8688 27.2054 42.6504 28.0931Z" fill="#fff"/><path d="M42.6504 33.7202V33.3782C45.3749 32.6857 47.1867 33.0465 48.3806 33.7417C49.4735 34.378 50.1242 35.3384 50.4827 36.207C49.8533 36.3216 49.2857 36.5771 48.7449 36.9642C47.852 37.6033 47.6099 38.7014 47.6904 39.6227C48.5543 49.5115 43.2788 57.8738 39.659 61.7788C40.0634 54.1883 39.2665 48.1451 37.4529 42.8951H39.7378C41.1484 42.8951 42.3248 41.8922 42.5931 40.5607C44.0603 44.8406 44.0615 48.7183 44.0506 51.7045C44.0493 52.0603 44.3042 52.3515 44.6452 52.3969C44.9928 52.4431 45.3196 52.2191 45.4017 51.8644C46.0439 49.0847 46.0546 45.4247 45.4936 41.942C45.0012 38.8856 44.0568 35.8918 42.6504 33.7202Z" fill="#fff"/><path d="M42.6504 36.1755V37.6027C43.4985 39.4095 44.0678 41.1663 44.4492 42.8372C44.4167 42.6003 44.3814 42.3634 44.3433 42.1272C43.9959 39.9698 43.424 37.902 42.6504 36.1755Z" fill="#fff"/><path d="M21.3164 42.8951H14.0183C13.6132 42.8951 13.2476 43.1384 13.0912 43.5122C8.37421 54.7825 8.37421 67.4737 13.0912 78.7442C13.2476 79.1179 13.6132 79.3612 14.0183 79.3612H34.6605C37.5795 79.3612 40.383 78.2199 42.472 76.1812L47.7435 71.0368C47.7862 70.9952 47.7906 70.9281 47.7539 70.8811C45.4317 67.8999 44.0485 64.1512 44.0485 60.0796C44.0485 59.2495 44.106 58.4328 44.2171 57.6332C42.632 60.2151 40.93 62.2315 39.594 63.5066C39.3554 63.7342 39.0295 63.7425 38.7937 63.6182C38.5656 63.498 38.3997 63.2459 38.4203 62.9468C38.9874 54.7253 38.1736 48.3611 36.2179 42.8951H35.9256C40.6988 59.0231 36.5307 70.8934 33.4321 75.1557C32.413 76.5572 30.7191 76.9146 29.207 76.9146H26.0764C25.1964 76.9146 24.8233 75.8263 25.4644 75.2685C31.46 70.051 33.4797 65.8846 33.8886 63.9493C33.9295 63.7558 33.8313 63.4906 33.5526 63.2904C28.8558 59.9138 25.882 56.4144 24.0299 52.8163C22.3476 49.5482 21.6057 46.2275 21.3164 42.8951Z" fill="#fff"/><path d="M34.7098 42.8951H22.4858C22.7719 46.0861 23.4871 49.2166 25.0656 52.2831C26.8205 55.6925 29.6607 59.0577 34.2326 62.3443C34.7609 62.7242 35.1929 63.4112 35.0284 64.1901C34.5602 66.4063 32.4422 70.6183 26.6809 75.7495H29.2069C30.5946 75.7495 31.8034 75.4143 32.4895 74.4705C35.3777 70.4979 39.5448 58.8719 34.7098 42.8951Z" fill="#fff"/><path fill-rule="evenodd" clip-rule="evenodd" d="M54.231 92.9268C51.7554 94.7196 50.2188 93.6451 49.7571 92.8757C50.0139 92.9649 50.5413 92.9901 51.2267 92.7298C52.1231 92.3893 52.7615 91.6626 53.4034 90.9319C53.6891 90.6069 53.9755 90.281 54.2855 89.988C56.5851 87.8146 59.0468 88.294 60.1574 88.9222C60.251 88.9752 60.3755 88.8908 60.3563 88.785C59.8635 86.0535 61.0412 84.3939 61.6406 83.9631C62.24 84.3939 63.4176 86.0535 62.9248 88.785C62.9058 88.8908 63.0302 88.9752 63.1238 88.9222C64.2343 88.294 66.6961 87.8146 68.9958 89.988C69.3058 90.281 69.592 90.6069 69.8777 90.9319C70.5196 91.6626 71.1582 92.3893 72.0546 92.7298C72.7399 92.9901 73.2674 92.9649 73.5241 92.8757C73.0624 93.6451 71.5258 94.7196 69.0503 92.9268C69.0093 92.8971 68.9531 92.8955 68.9114 92.9243C67.6047 93.8289 65.2421 94.4727 64.5555 92.6243C64.3549 92.0843 64.4119 91.3834 64.9127 91.0986C65.7518 90.6218 67.0149 91.4536 66.4755 92.4679C68.5403 91.1286 65.0665 87.8646 62.8045 91.2803C62.5996 91.5895 62.5144 91.9628 62.5144 92.3336C62.5144 92.836 62.679 93.3256 63.0025 93.7099C63.4251 94.2114 63.8878 94.7216 64.3568 95.2384C66.1847 97.2535 68.1066 99.3721 68.1066 101.497C68.1066 103.059 66.4513 105.613 62.2205 104.519C62.1038 104.742 61.9118 105.02 61.6406 105.283C61.3377 105.022 61.1481 104.746 61.0422 104.524C56.8251 105.606 55.1746 103.056 55.1746 101.497C55.1746 99.3721 57.0965 97.2535 58.9245 95.2384C59.3934 94.7216 59.8562 94.2114 60.2786 93.7099C60.6023 93.3256 60.7668 92.836 60.7668 92.3336C60.7668 91.9628 60.6815 91.5895 60.4768 91.2803C58.2146 87.8646 54.7408 91.1286 56.8056 92.4679C56.2662 91.4536 57.5295 90.6218 58.3685 91.0986C58.8693 91.3834 58.9262 92.0843 58.7257 92.6243C58.0392 94.4727 55.6766 93.8289 54.3697 92.9243C54.328 92.8955 54.272 92.8971 54.231 92.9268ZM56.6687 102.199C56.1646 100.901 57.0812 98.7167 61.6406 94.1572C66.2 98.7167 67.1165 100.901 66.6125 102.199C66.1248 103.455 64.3806 104.259 63.2179 103.579C62.4655 103.139 62.4972 102.095 62.5114 101.63C62.5131 101.578 62.5144 101.533 62.5144 101.497C62.5144 100.973 63.2716 101.148 63.5046 101.497C63.1784 102.561 64.1066 102.678 64.6114 102.604C65.9642 101.928 64.6993 99.7242 62.7163 100.057C62.6269 100.072 62.5479 99.9882 62.5716 99.9006C63.1557 97.7351 62.2061 96.4171 61.6406 96.0213C61.0752 96.4171 60.1254 97.7351 60.7097 99.9006C60.7333 99.9882 60.6542 100.072 60.5649 100.057C58.582 99.7242 57.3171 101.928 58.6697 102.604C59.1746 102.678 60.1027 102.561 59.7765 101.497C60.0095 101.148 60.7668 100.973 60.7668 101.497C60.7668 101.533 60.7682 101.578 60.7698 101.63C60.7839 102.095 60.8157 103.139 60.0632 103.579C58.9006 104.259 57.1563 103.455 56.6687 102.199Z" fill="#51FFFF"/><path fill-rule="evenodd" clip-rule="evenodd" d="M54.231 25.9508C51.7554 24.158 50.2188 25.2324 49.7571 26.0019C50.0139 25.9126 50.5413 25.8875 51.2267 26.1478C52.1231 26.4882 52.7615 27.2149 53.4034 27.9456C53.6891 28.2708 53.9755 28.5966 54.2855 28.8896C56.5851 31.063 59.0468 30.5836 60.1574 29.9553C60.251 29.9024 60.3755 29.9868 60.3563 30.0927C59.8635 32.8241 61.0412 34.4837 61.6406 34.9146C62.24 34.4837 63.4176 32.8241 62.9248 30.0927C62.9058 29.9868 63.0302 29.9024 63.1238 29.9553C64.2343 30.5836 66.6961 31.063 68.9958 28.8896C69.3058 28.5966 69.592 28.2708 69.8777 27.9456C70.5196 27.215 71.1582 26.4882 72.0546 26.1478C72.7399 25.8875 73.2674 25.9126 73.5241 26.0019C73.0624 25.2324 71.5258 24.158 69.0503 25.9508C69.0093 25.9805 68.9531 25.9821 68.9114 25.9532C67.6047 25.0487 65.2421 24.4049 64.5555 26.2534C64.3549 26.7934 64.4119 27.4943 64.9127 27.7789C65.7518 28.2558 67.0149 27.424 66.4755 26.4097C68.5403 27.7491 65.0665 31.0129 62.8045 27.5972C62.5996 27.2882 62.5144 26.9148 62.5144 26.5439C62.5144 26.0417 62.679 25.552 63.0025 25.1678C63.4251 24.6661 63.8878 24.156 64.3568 23.6391C66.1847 21.6242 68.1066 19.5055 68.1066 17.3806C68.1066 15.819 66.4513 13.2642 62.2205 14.3581C62.1038 14.1351 61.9118 13.8574 61.6406 13.5942C61.3377 13.8555 61.1481 14.1313 61.0422 14.3533C56.8251 13.2716 55.1746 15.8213 55.1746 17.3806C55.1746 19.5055 57.0965 21.6242 58.9245 23.6391C59.3934 24.156 59.8562 24.6661 60.2786 25.1678C60.6023 25.552 60.7668 26.0417 60.7668 26.5439C60.7668 26.9148 60.6815 27.2882 60.4768 27.5972C58.2146 31.0129 54.7408 27.7491 56.8056 26.4097C56.2662 27.424 57.5295 28.2558 58.3685 27.7789C58.8693 27.4943 58.9262 26.7934 58.7257 26.2534C58.0392 24.4049 55.6766 25.0487 54.3697 25.9532C54.328 25.9821 54.272 25.9805 54.231 25.9508ZM56.6687 16.6783C56.1646 17.9762 57.0812 20.161 61.6406 24.7204C66.2 20.161 67.1165 17.9762 66.6125 16.6783C66.1248 15.4227 64.3806 14.6184 63.2179 15.2985C62.4655 15.7386 62.4972 16.7826 62.5114 17.2473C62.5131 17.2996 62.5144 17.3446 62.5144 17.3806C62.5144 17.9049 63.2716 17.7301 63.5046 17.3806C63.1784 16.3163 64.1066 16.1992 64.6114 16.2738C65.9642 16.9501 64.6993 19.1533 62.7163 18.8208C62.6269 18.8058 62.5479 18.8894 62.5716 18.9769C63.1557 21.1425 62.2061 22.4604 61.6406 22.8563C61.0752 22.4604 60.1254 21.1425 60.7097 18.9769C60.7333 18.8894 60.6542 18.8058 60.5649 18.8208C58.582 19.1533 57.3171 16.9501 58.6697 16.2738C59.1746 16.1992 60.1027 16.3163 59.7765 17.3806C60.0095 17.7301 60.7668 17.9049 60.7668 17.3806C60.7668 17.3446 60.7682 17.2996 60.7698 17.2473C60.7839 16.7826 60.8157 15.7386 60.0632 15.2985C58.9006 14.6184 57.1563 15.4227 56.6687 16.6783Z" fill="#201850"/><path d="M61.6406 77.6719C71.3566 77.6719 79.2329 69.7955 79.2329 60.0796C79.2329 56.2028 77.9789 52.6189 75.8543 49.7114C75.8108 49.6517 75.8321 49.567 75.8992 49.5362C84.7941 45.4474 95.6206 43.4124 108.819 45.5452C108.902 45.5587 108.95 45.6499 108.904 45.7208C108.703 46.029 108.487 46.3755 108.25 46.7548C105.213 51.6157 98.8164 61.855 78.9999 66.0213C88.8978 65.3267 100.636 63.8844 109.7 48.6072C109.757 48.512 109.905 48.5458 109.92 48.6554C113.52 76.1869 89.5539 79.7727 61.0581 80.7009C53.3369 80.7009 47.0775 86.9602 47.0775 94.6814V104.062C47.0775 104.643 47.4734 105.148 48.0369 105.287L49.8288 105.73C57.888 107.722 66.3463 107.391 74.2255 104.777C74.6762 104.627 74.9804 104.208 74.9804 103.733V90.662C74.9804 84.8285 78.1375 83.3851 79.8204 83.3788C79.8832 83.3786 79.9319 83.4302 79.9319 83.493V106.781C79.9319 107.532 79.4811 108.211 78.7882 108.501C67.4475 113.262 54.6689 113.262 43.3282 108.501C42.6352 108.211 42.1843 107.532 42.1843 106.781V92.4588C42.1843 85.5493 44.3155 78.7387 48.4975 73.2385C48.6739 73.0065 48.8525 72.7729 49.0333 72.538C49.0763 72.482 49.1588 72.477 49.2088 72.5269C52.3918 75.706 56.7866 77.6719 61.6406 77.6719Z" fill="#52FDFF"/><path d="M66.0955 68.8791C66.413 68.5687 66.7293 68.2594 67.0575 67.9429C82.6309 52.9256 66.1514 46.2254 61.4769 54.0602C56.7551 46.3181 40.3977 53.0224 55.9319 68.0019C56.2571 68.3155 56.5686 68.62 56.8794 68.9238C58.1275 70.1438 59.3675 71.356 61.4658 73.1281V70.099C59.7367 68.6577 58.9494 67.9028 57.7203 66.724C57.4592 66.4736 57.1781 66.2041 56.8639 65.9048C55.6406 64.7398 50.2744 59.0893 51.9706 55.5941C52.9794 53.5153 54.6781 52.8483 56.3425 53.088C59.4792 53.5396 62.165 57.8537 59.8532 60.0211C59.7863 60.0839 59.7178 60.1423 59.6486 60.1963C59.1397 60.5939 58.4297 60.6386 57.8508 60.3522C55.7724 59.3239 57.1591 56.9013 59.0774 57.1087C57.7221 55.3016 55.7646 56.4507 55.3277 57.6902C55.3055 57.7533 55.2377 57.7893 55.1727 57.7736C54.8498 57.6955 54.4757 57.7299 54.0094 58.0407C54.3658 58.4762 54.8315 58.6063 55.1063 58.6236C55.1743 58.6278 55.2326 58.6833 55.2343 58.7514C55.3063 61.6099 57.7894 62.527 59.8527 62.2452C59.9678 62.2294 60.0561 62.3866 59.9939 62.4848C59.1699 63.7856 60.5686 65.6034 61.4658 66.4291V66.4284C62.3632 65.6027 63.8113 63.735 62.9944 62.4266C62.9327 62.328 63.0215 62.1705 63.1366 62.1862C65.1999 62.468 67.6831 61.551 67.755 58.6925C67.7568 58.6244 67.815 58.569 67.883 58.5647C68.158 58.5473 68.6237 58.4173 68.9799 57.9818C68.5137 57.671 68.1396 57.6366 67.8167 57.7146C67.7517 57.7304 67.6839 57.6944 67.6617 57.6312C67.2248 56.3917 65.2673 55.2426 63.912 57.0497C65.8302 56.8424 67.217 59.265 65.1385 60.2932C64.5596 60.5797 63.8496 60.535 63.3407 60.1374C63.2715 60.0833 63.2032 60.0249 63.1362 59.9621C60.8244 57.7948 63.5101 53.4806 66.6468 53.029C68.3113 52.7894 70.01 53.4564 71.0188 55.5352C72.715 59.0303 67.3487 64.6808 66.1254 65.8459C65.8013 66.1546 65.5107 66.4335 65.2395 66.6935C64.0104 67.873 63.1835 68.6664 61.4658 70.0981V73.1271C63.5597 71.3589 64.8355 70.1112 66.0955 68.8791Z" fill="#fff"/><path d="M49.09 69.8235C49.2766 69.6603 49.3024 69.3801 49.1551 69.1806C47.2635 66.6184 46.1454 63.4504 46.1454 60.0213C46.1454 51.4957 53.0568 44.5844 61.5823 44.5844C65.1296 44.5844 68.3975 45.7809 71.0043 47.7923C71.1942 47.9389 71.4642 47.9258 71.6339 47.7562C71.8288 47.5613 71.8139 47.2404 71.5959 47.0716C68.828 44.9281 65.3542 43.6524 61.5823 43.6524C52.542 43.6524 45.2134 50.981 45.2134 60.0213C45.2134 63.6678 46.4058 67.0359 48.4219 69.7567C48.581 69.9714 48.8889 69.9994 49.09 69.8235Z" fill="#fff"/><path d="M61.5824 75.4583C70.108 75.4583 77.0193 68.547 77.0193 60.0214C77.0193 56.7099 75.9767 53.6421 74.2017 51.1281C74.0419 50.9016 74.1035 50.5845 74.3419 50.4429C74.5461 50.3217 74.8095 50.3736 74.9469 50.5673C76.8392 53.2375 77.9513 56.4995 77.9513 60.0214C77.9513 69.0617 70.6227 76.3903 61.5824 76.3903C57.3258 76.3903 53.4485 74.7655 50.5372 72.1022C50.3249 71.908 50.3478 71.5704 50.5786 71.3985C50.7621 71.2619 51.0169 71.2784 51.186 71.4324C53.9293 73.9333 57.5778 75.4583 61.5824 75.4583Z" fill="#52FDFF"/><path d="M29.2072 76.332H26.0765C25.7501 76.332 25.6008 75.922 25.8468 75.7078C31.8962 70.4436 34.0141 66.174 34.4586 64.0697C34.5614 63.5835 34.2962 63.1074 33.8928 62.8173C15.3552 49.4908 24.4558 34.553 21.2656 19.8867C21.245 19.7919 21.3469 19.7154 21.4346 19.7571C44.6323 30.7952 44.6605 44.2514 44.6331 51.7067C44.6327 51.8411 44.8038 51.8641 44.8341 51.7332C46.0762 46.3584 44.8978 37.4093 41.5922 33.2408C41.5411 33.1763 41.5737 33.0803 41.6522 33.0558C48.2464 31.0016 50.5893 34.4235 51.2306 36.575C51.2525 36.6485 51.1962 36.7203 51.1195 36.7231C50.3596 36.7509 49.7108 36.9891 49.084 37.4378C48.423 37.9111 48.2 38.7622 48.2708 39.5719C49.228 50.5293 42.8273 59.6152 39.1919 63.0852C39.1155 63.1581 38.9943 63.0922 39.0015 62.9869C39.9391 49.3918 37.1303 40.7716 31.6109 32.9336C31.5284 32.8164 31.3577 32.9337 31.4211 33.0622C41.7876 54.0871 36.5371 69.8941 32.9609 74.8131C32.1084 75.9858 30.657 76.332 29.2072 76.332Z" fill="#52FDFF"/><path d="M47.2067 20.2129C46.5953 23.2322 47.2476 28.4642 47.9734 31.6141C47.9912 31.6913 47.9289 31.7622 47.8499 31.7565C46.5132 31.6588 44.3237 31.6528 43.6873 31.6524C43.6274 31.6524 43.5782 31.6091 43.5749 31.5493C43.5342 30.7911 43.6016 27.8654 44.0973 26.3368C44.1321 26.2294 44.0377 26.1618 43.9722 26.2537C43.3634 27.1089 42.7841 29.6409 42.7673 31.6784C42.7668 31.7319 42.7305 31.778 42.6786 31.7909C42.0561 31.9466 41.4396 32.1024 40.9524 32.258C40.8923 32.2772 40.8267 32.2439 40.8058 32.1843C38.5502 25.7054 44.9506 21.0158 47.0523 20.0842C47.1373 20.0466 47.2251 20.1218 47.2067 20.2129Z" fill="#52FDFF"/><path d="M96.5315 81.6181C96.5315 81.4949 96.6313 81.395 96.7546 81.395H97.647C97.7703 81.395 97.8701 81.4949 97.8701 81.6181V94.4473C97.8701 94.5705 97.7703 94.6705 97.647 94.6705H96.7546C96.6313 94.6705 96.5315 94.5705 96.5315 94.4473V81.6181Z" fill="#fff"/><path fill-rule="evenodd" clip-rule="evenodd" d="M96.7546 81.395C96.6313 81.395 96.5315 81.4949 96.5315 81.6181V89.4272C96.5315 89.5504 96.6313 89.6503 96.7546 89.6503H97.5355C98.891 89.6503 99.9898 88.5515 99.9898 87.1961V83.8492C99.9898 82.4938 98.891 81.395 97.5355 81.395H96.7546ZM97.647 83.403C97.5238 83.403 97.4239 83.5029 97.4239 83.6261V87.4192C97.4239 87.5423 97.5238 87.6423 97.647 87.6423H97.7586C98.498 87.6423 99.0973 87.0429 99.0973 86.3035V84.7418C99.0973 84.0025 98.498 83.403 97.7586 83.403H97.647Z" fill="#fff"/><path d="M86.4912 81.6181C86.4912 81.4949 86.5911 81.395 86.7143 81.395H87.6067C87.73 81.395 87.83 81.4949 87.83 81.6181V94.4473C87.83 94.5705 87.73 94.6705 87.6067 94.6705H86.7143C86.5911 94.6705 86.4912 94.5705 86.4912 94.4473V81.6181Z" fill="#fff"/><path d="M89.7266 81.6181C89.7266 81.4949 89.8264 81.395 89.9497 81.395H90.8421C90.9654 81.395 91.0652 81.4949 91.0652 81.6181V94.4473C91.0652 94.5705 90.9654 94.6705 90.8421 94.6705H89.9497C89.8264 94.6705 89.7266 94.5705 89.7266 94.4473V81.6181Z" fill="#fff"/><path d="M89.7089 81.6146C89.7209 81.5011 89.8167 81.4149 89.9309 81.4149H90.3159C90.448 81.4149 90.5513 81.5291 90.5379 81.6605L89.2444 94.434C89.2329 94.5479 89.137 94.6346 89.0225 94.6346H88.5796C88.4471 94.6346 88.3438 94.5198 88.3577 94.3881L89.7089 81.6146Z" fill="#fff"/><path d="M87.7935 81.6146C87.7815 81.5011 87.6857 81.4149 87.5715 81.4149H87.1865C87.0544 81.4149 86.9512 81.5291 86.9646 81.6605L88.258 94.434C88.2695 94.5479 88.3654 94.6346 88.4799 94.6346H88.9228C89.0554 94.6346 89.1586 94.5198 89.1447 94.3881L87.7935 81.6146Z" fill="#fff"/><path d="M81.9124 81.6181C81.9124 81.4949 82.0123 81.395 82.1355 81.395H83.028C83.1512 81.395 83.2511 81.4949 83.2511 81.6181V94.4473C83.2511 94.5705 83.1512 94.6705 83.028 94.6705H82.1355C82.0123 94.6705 81.9124 94.5705 81.9124 94.4473V81.6181Z" fill="#fff"/><path d="M82.1355 83.6261C82.0123 83.6261 81.9124 83.5263 81.9124 83.403V81.6181C81.9124 81.4949 82.0123 81.395 82.1355 81.395H85.7054C85.8285 81.395 85.9285 81.4949 85.9285 81.6181V83.403C85.9285 83.5263 85.8285 83.6261 85.7054 83.6261H82.1355Z" fill="#fff"/><path d="M82.1355 89.2041C82.0123 89.2041 81.9124 89.1042 81.9124 88.981V87.1961C81.9124 87.0729 82.0123 86.9729 82.1355 86.9729H85.7054C85.8285 86.9729 85.9285 87.0729 85.9285 87.1961V88.981C85.9285 89.1042 85.8285 89.2041 85.7054 89.2041H82.1355Z" fill="#fff"/><path d="M82.1355 94.6705C82.0123 94.6705 81.9124 94.5705 81.9124 94.4474V92.6624C81.9124 92.5391 82.0123 92.4393 82.1355 92.4393H85.7054C85.8285 92.4393 85.9285 92.5391 85.9285 92.6624V94.4474C85.9285 94.5705 85.8285 94.6705 85.7054 94.6705H82.1355Z" fill="#fff"/><path d="M91.5115 81.6181C91.5115 81.4949 91.6114 81.395 91.7346 81.395H92.6271C92.7503 81.395 92.8502 81.4949 92.8502 81.6181V94.4473C92.8502 94.5705 92.7503 94.6705 92.6271 94.6705H91.7346C91.6114 94.6705 91.5115 94.5705 91.5115 94.4473V81.6181Z" fill="#fff"/><path d="M94.1887 81.6181C94.1887 81.4949 94.2887 81.395 94.4119 81.395H95.3044C95.4276 81.395 95.5275 81.4949 95.5275 81.6181V94.4473C95.5275 94.5705 95.4276 94.6705 95.3044 94.6705H94.4119C94.2887 94.6705 94.1887 94.5705 94.1887 94.4473V81.6181Z" fill="#fff"/><path d="M94.7466 92.6624C94.7466 92.5391 94.8465 92.4393 94.9697 92.4393H95.8622C95.9854 92.4393 96.0853 92.5391 96.0853 92.6624V97.2362C96.0853 97.3595 95.9854 97.4593 95.8622 97.4593H94.9697C94.8465 97.4593 94.7466 97.3595 94.7466 97.2362V92.6624Z" fill="#fff"/><path d="M91.7346 94.6705C91.6114 94.6705 91.5115 94.5705 91.5115 94.4474V92.6624C91.5115 92.5391 91.6114 92.4393 91.7346 92.4393H95.3045C95.4278 92.4393 95.5276 92.5391 95.5276 92.6624V94.4474C95.5276 94.5705 95.4278 94.6705 95.3045 94.6705H91.7346Z" fill="#fff"/><path d="M100.436 81.5066C100.436 81.3834 100.536 81.2835 100.659 81.2835H101.552C101.675 81.2835 101.775 81.3834 101.775 81.5066V94.3358C101.775 94.459 101.675 94.5589 101.552 94.5589H100.659C100.536 94.5589 100.436 94.459 100.436 94.3358V81.5066Z" fill="#fff"/><path fill-rule="evenodd" clip-rule="evenodd" d="M101.329 86.3036C101.205 86.3036 101.105 86.4035 101.105 86.5267V94.3358C101.105 94.459 101.205 94.5589 101.329 94.5589H102.11C103.465 94.5589 104.564 93.4601 104.564 92.1046V88.7579C104.564 87.4025 103.465 86.3036 102.11 86.3036H101.329ZM102.221 88.3117C102.098 88.3117 101.998 88.4115 101.998 88.5348V92.3278C101.998 92.451 102.098 92.5509 102.221 92.5509H102.333C103.072 92.5509 103.671 91.9515 103.671 91.2122V89.6503C103.671 88.911 103.072 88.3117 102.333 88.3117H102.221Z" fill="#fff"/><path d="M100.659 83.5147C100.536 83.5147 100.436 83.4147 100.436 83.2916V81.5066C100.436 81.3834 100.536 81.2835 100.659 81.2835H103.783C103.906 81.2835 104.006 81.3834 104.006 81.5066V83.2916C104.006 83.4147 103.906 83.5147 103.783 83.5147H100.659Z" fill="#fff"/><path d="M86.7095 30.2493H88.0481V43.5248H86.7095V30.2493Z" fill="#52FDFF"/><path d="M90.6544 31.5094L90.6268 30.5709C90.6197 30.3297 90.4164 30.1282 90.1851 30.1971C88.0958 30.8202 89.2924 36.1326 87.7693 35.6599V37.3891C88.7263 37.4307 88.9816 41.0635 88.9968 43.2426C88.9985 43.4906 89.1987 43.6921 89.4467 43.6921H90.2236C90.4701 43.6921 90.6698 43.4924 90.6698 43.2459V42.6324C90.6698 42.5712 90.6576 42.5131 90.6353 42.46C90.5275 42.2027 90.2448 41.942 90.2244 41.6638C90.1354 40.4491 89.5358 38.2052 88.7733 36.7756C89.9447 34.4886 89.7216 32.7594 89.8332 32.369C89.8751 32.2222 90.0007 32.1313 90.151 32.08C90.4114 31.9911 90.6624 31.7845 90.6544 31.5094Z" fill="#52FDFF"/><path d="M103.563 30.5067C103.543 30.3714 103.647 30.2493 103.784 30.2493H104.627C104.736 30.2493 104.83 30.3287 104.847 30.4367L106.94 43.3099C106.962 43.4456 106.857 43.5687 106.72 43.5687H105.779C105.669 43.5687 105.575 43.4886 105.558 43.3799L103.563 30.5067Z" fill="#52FDFF"/><path d="M104.728 30.5067C104.749 30.3714 104.644 30.2493 104.507 30.2493H103.664C103.555 30.2493 103.462 30.3287 103.444 30.4367L101.351 43.3099C101.329 43.4456 101.434 43.5687 101.572 43.5687H102.513C102.623 43.5687 102.716 43.4886 102.733 43.3799L104.728 30.5067Z" fill="#52FDFF"/><path d="M102.565 40.301C102.442 40.301 102.342 40.2012 102.342 40.0779V38.2929C102.342 38.1698 102.442 38.0698 102.565 38.0698H105.689C105.812 38.0698 105.912 38.1698 105.912 38.2929V40.0779C105.912 40.2012 105.812 40.301 105.689 40.301H102.565Z" fill="#52FDFF"/><path d="M97.6062 30.4953C97.5852 30.36 97.6899 30.2379 97.8266 30.2379H98.6697C98.7791 30.2379 98.8723 30.3173 98.8899 30.4253L100.983 43.2985C101.005 43.4342 100.9 43.5574 100.762 43.5574H99.8213C99.7113 43.5574 99.6177 43.4772 99.6009 43.3685L97.6062 30.4953Z" fill="#52FDFF"/><path d="M98.7705 30.4953C98.7914 30.36 98.6868 30.2379 98.5499 30.2379H97.707C97.5976 30.2379 97.5043 30.3173 97.4868 30.4253L95.394 43.2985C95.372 43.4342 95.4768 43.5574 95.6144 43.5574H96.5553C96.6654 43.5574 96.7589 43.4772 96.7758 43.3685L98.7705 30.4953Z" fill="#52FDFF"/><path d="M96.6084 40.2896C96.4852 40.2896 96.3853 40.1897 96.3853 40.0665V38.2815C96.3853 38.1584 96.4852 38.0584 96.6084 38.0584H99.7321C99.8552 38.0584 99.9552 38.1584 99.9552 38.2815V40.0665C99.9552 40.1897 99.8552 40.2896 99.7321 40.2896H96.6084Z" fill="#52FDFF"/><path d="M81.9124 30.4724C81.9124 30.3493 82.0123 30.2493 82.1355 30.2493H83.028C83.1512 30.2493 83.2511 30.3493 83.2511 30.4724V43.3017C83.2511 43.4249 83.1512 43.5248 83.028 43.5248H82.1355C82.0123 43.5248 81.9124 43.4249 81.9124 43.3017V30.4724Z" fill="#52FDFF"/><path d="M82.1355 32.4805C82.0123 32.4805 81.9124 32.3807 81.9124 32.2574V30.4724C81.9124 30.3493 82.0123 30.2493 82.1355 30.2493H85.7054C85.8285 30.2493 85.9285 30.3493 85.9285 30.4724V32.2574C85.9285 32.3807 85.8285 32.4805 85.7054 32.4805H82.1355Z" fill="#52FDFF"/><path d="M82.1355 38.0585C82.0123 38.0585 81.9124 37.9586 81.9124 37.8353V36.0505C81.9124 35.9272 82.0123 35.8273 82.1355 35.8273H85.7054C85.8285 35.8273 85.9285 35.9272 85.9285 36.0505V37.8353C85.9285 37.9586 85.8285 38.0585 85.7054 38.0585H82.1355Z" fill="#52FDFF"/><path d="M82.1355 43.5248C82.0123 43.5248 81.9124 43.4249 81.9124 43.3017V41.5167C81.9124 41.3935 82.0123 41.2936 82.1355 41.2936H85.7054C85.8285 41.2936 85.9285 41.3935 85.9285 41.5167V43.3017C85.9285 43.4249 85.8285 43.5248 85.7054 43.5248H82.1355Z" fill="#52FDFF"/><path fill-rule="evenodd" clip-rule="evenodd" d="M93.1144 43.5249C94.5005 43.5249 95.6243 40.5281 95.6243 36.8313C95.6243 33.1346 94.5005 30.1379 93.1144 30.1379C91.7281 30.1379 90.6042 33.1346 90.6042 36.8313C90.6042 40.5281 91.7281 43.5249 93.1144 43.5249ZM93.1144 41.3455C94.0077 41.3455 94.7319 39.3477 94.7319 36.8833C94.7319 34.4187 94.0077 32.4209 93.1144 32.4209C92.2209 32.4209 91.4967 34.4187 91.4967 36.8833C91.4967 39.3477 92.2209 41.3455 93.1144 41.3455Z" fill="#52FDFF"/><path d="M32.9792 81.5066C32.9792 81.3834 33.0792 81.2835 33.2024 81.2835H33.9833C34.1066 81.2835 34.2064 81.3834 34.2064 81.5066V94.3358C34.2064 94.459 34.1066 94.5589 33.9833 94.5589H33.2024C33.0792 94.5589 32.9792 94.459 32.9792 94.3358V81.5066Z" fill="#fff"/><path fill-rule="evenodd" clip-rule="evenodd" d="M33.2024 81.2835C33.0792 81.2835 32.9792 81.3834 32.9792 81.5066V94.3358C32.9792 94.459 33.0792 94.5589 33.2024 94.5589H34.0949C35.3887 94.5589 36.4376 93.5101 36.4376 92.2162V83.6262C36.4376 82.3324 35.3887 81.2835 34.0949 81.2835H33.2024ZM33.8844 83.4031C33.8774 83.4031 33.8718 83.4088 33.8718 83.4158V92.5382C33.8718 92.5452 33.8774 92.5509 33.8844 92.5509C34.9249 92.5509 35.7683 91.7074 35.7683 90.667V85.287C35.7683 84.2466 34.9249 83.4031 33.8844 83.4031Z" fill="#fff"/><path d="M23.3853 81.5066C23.3853 81.3834 23.49 81.2835 23.6192 81.2835H24.5552C24.6844 81.2835 24.7893 81.3834 24.7893 81.5066V94.3358C24.7893 94.459 24.6844 94.5589 24.5552 94.5589H23.6192C23.49 94.5589 23.3853 94.459 23.3853 94.3358V81.5066Z" fill="#fff"/><path d="M26.7783 81.5066C26.7783 81.3834 26.8831 81.2835 27.0123 81.2835H27.9483C28.0776 81.2835 28.1823 81.3834 28.1823 81.5066V94.3358C28.1823 94.459 28.0776 94.5589 27.9483 94.5589H27.0123C26.8831 94.5589 26.7783 94.459 26.7783 94.3358V81.5066Z" fill="#fff"/><path d="M26.7598 81.503C26.7724 81.3895 26.8728 81.3034 26.9924 81.3034H27.3964C27.5349 81.3034 27.6431 81.4176 27.6291 81.549L26.2726 94.3225C26.2606 94.4363 26.1599 94.5231 26.0398 94.5231H25.5754C25.4364 94.5231 25.3281 94.4082 25.3426 94.2765L26.7598 81.503Z" fill="#fff"/><path d="M24.751 81.503C24.7383 81.3895 24.638 81.3034 24.5183 81.3034H24.1145C23.9758 81.3034 23.8677 81.4176 23.8816 81.549L25.2382 94.3225C25.2503 94.4363 25.3509 94.5231 25.471 94.5231H25.9354C26.0744 94.5231 26.1828 94.4082 26.1681 94.2765L24.751 81.503Z" fill="#fff"/><path d="M37.0054 81.5066C37.0054 81.3834 37.1052 81.2835 37.2285 81.2835H38.0094C38.1326 81.2835 38.2325 81.3834 38.2325 81.5066V94.3358C38.2325 94.459 38.1326 94.5589 38.0094 94.5589H37.2285C37.1052 94.5589 37.0054 94.459 37.0054 94.3358V81.5066Z" fill="#fff"/><path d="M39.7942 81.5066C39.7942 81.3834 39.8942 81.2835 40.0174 81.2835H40.7982C40.9215 81.2835 41.0213 81.3834 41.0213 81.5066V94.3358C41.0213 94.459 40.9215 94.5589 40.7982 94.5589H40.0174C39.8942 94.5589 39.7942 94.459 39.7942 94.3358V81.5066Z" fill="#fff"/><path d="M37.7962 89.0926C37.6675 89.0926 37.5632 88.9882 37.5632 88.8596V87.0944C37.5632 86.9657 37.6675 86.8614 37.7962 86.8614H40.3422C40.471 86.8614 40.5752 86.9657 40.5752 87.0944V88.8596C40.5752 88.9882 40.471 89.0926 40.3422 89.0926H37.7962Z" fill="#fff"/><path d="M19.699 81.5066C19.699 81.3834 19.7989 81.2835 19.9221 81.2835H20.703C20.8263 81.2835 20.9261 81.3834 20.9261 81.5066V94.3358C20.9261 94.459 20.8263 94.5589 20.703 94.5589H19.9221C19.7989 94.5589 19.699 94.459 19.699 94.3358V81.5066Z" fill="#fff"/><path d="M19.9221 83.5147C19.7989 83.5147 19.699 83.4147 19.699 83.2916V81.5066C19.699 81.3834 19.7989 81.2835 19.9221 81.2835H22.5995C22.7227 81.2835 22.8226 81.3834 22.8226 81.5066V83.2916C22.8226 83.4147 22.7227 83.5147 22.5995 83.5147H19.9221Z" fill="#fff"/><path d="M19.9221 89.0926C19.7989 89.0926 19.699 88.9926 19.699 88.8695V87.0845C19.699 86.9612 19.7989 86.8614 19.9221 86.8614H22.5995C22.7227 86.8614 22.8226 86.9612 22.8226 87.0845V88.8695C22.8226 88.9926 22.7227 89.0926 22.5995 89.0926H19.9221Z" fill="#fff"/><path d="M19.9221 94.5589C19.7989 94.5589 19.699 94.459 19.699 94.3358V92.5509C19.699 92.4277 19.7989 92.3278 19.9221 92.3278H22.5995C22.7227 92.3278 22.8226 92.4277 22.8226 92.5509V94.3358C22.8226 94.459 22.7227 94.5589 22.5995 94.5589H19.9221Z" fill="#fff"/><path d="M32.8189 84.5345C32.8484 84.6772 32.7384 84.8098 32.5927 84.8098H31.7363C31.6309 84.8098 31.5392 84.7387 31.5086 84.6379C31.3241 84.0322 31.0886 83.6689 30.8318 83.6689C30.2407 83.6689 29.7615 85.5959 29.7615 87.9731C29.7615 90.3502 30.2407 92.2773 30.8318 92.2773C31.0886 92.2773 31.3241 91.9139 31.5086 91.3082C31.5392 91.2074 31.6309 91.1363 31.7363 91.1363H32.5709C32.7173 91.1363 32.8274 91.2703 32.7965 91.4134C32.3893 93.3014 31.6617 94.5589 30.8318 94.5589C29.5562 94.5589 28.522 91.5871 28.522 87.9213C28.522 84.2553 29.5562 81.2835 30.8318 81.2835C31.677 81.2835 32.4161 82.5879 32.8189 84.5345Z" fill="#fff"/></g><defs><linearGradient id="paint0_linear_13_201" x1="21.184" y1="23.121" x2="97.027" y2="101.945" gradientUnits="userSpaceOnUse"><stop stop-color="#130D2F"/><stop offset="1" stop-color="#30236B"/></linearGradient><linearGradient id="paint1_linear_13_201" x1="20.111" y1="10.898" x2="98.04" y2="105.999" gradientUnits="userSpaceOnUse"><stop stop-color="#FCFCFC"/><stop offset="1" stop-color="#9FD4E1"/></linearGradient><clipPath id="clip0_13_201"><path fill="#fff" transform="translate(0 .744)" d="M0 0H120V120H0z"/></clipPath></defs></svg>