<svg width="124" height="84" viewBox="0 0 124 84" fill="none" xmlns="http://www.w3.org/2000/svg"><path d="M0 23.2894C0 17.4904 4.28621 12.7894 9.57353 12.7894C12.2205 12.7894 14.6165 13.9676 16.3495 15.8719L46.5 48.9401V33.7894H65.647V73.2894C65.647 79.0884 61.3608 83.7894 56.0735 83.7894C55.7949 83.7894 55.519 83.7764 55.2464 83.7508C52.7568 83.7845 50.2575 82.7597 48.3579 80.6762L19.1471 48.6385V83.7894H0V23.2894Z" fill="#fff"/><path d="M54.7059 0.00012207L30.0883 14.2895L54.7059 28.579V22.7895L98.9265 22.7895C102.2 22.7895 104.853 25.6997 104.853 29.2895C104.853 32.8794 102.2 35.7895 98.9265 35.7895H73.853V83.7895H93V51.7895H103.029C114.611 51.7895 124 41.4921 124 28.7895C124 16.087 114.611 5.78955 103.029 5.78954L54.7059 5.78954V0.00012207Z" fill="#FFE01B"/></svg>